<svg xmlns="http://www.w3.org/2000/svg" xmlns:xlink="http://www.w3.org/1999/xlink" width="174" height="46.019" viewBox="0 0 174 46.019">
  <defs>
    <clipPath id="clip-path">
      <rect id="Rectangle_19" data-name="Rectangle 19" width="174" height="46.019" fill="none"/>
    </clipPath>
  </defs>
  <g id="Group_4456" data-name="Group 4456" transform="translate(-103.5 -6636.981)">
    <g id="Group_4453" data-name="Group 4453" transform="translate(103.5 6636.981)">
      <rect id="Rectangle_3" data-name="Rectangle 3" width="3.139" height="5.926" transform="translate(76.848 40.072)" fill="#f6c3cb"/>
      <rect id="Rectangle_4" data-name="Rectangle 4" width="3.138" height="13.569" transform="translate(71.725 32.43)" fill="#ee929d"/>
      <rect id="Rectangle_5" data-name="Rectangle 5" width="3.137" height="22.802" transform="translate(66.602 23.196)" fill="#e65964"/>
      <rect id="Rectangle_6" data-name="Rectangle 6" width="3.137" height="30.515" transform="translate(61.479 15.483)" fill="#dd1728"/>
      <rect id="Rectangle_7" data-name="Rectangle 7" width="3.137" height="37.982" transform="translate(56.356 8.016)" fill="#dd1728"/>
      <rect id="Rectangle_8" data-name="Rectangle 8" width="3.139" height="45.998" transform="translate(51.231 0)" fill="#b00009"/>
      <rect id="Rectangle_9" data-name="Rectangle 9" width="3.137" height="42.969" transform="translate(46.108 3.03)" fill="#93000d"/>
      <rect id="Rectangle_10" data-name="Rectangle 10" width="3.137" height="35.721" transform="translate(40.986 10.278)" fill="#8a0b0a"/>
      <rect id="Rectangle_11" data-name="Rectangle 11" width="3.137" height="25.002" transform="translate(35.863 20.997)" fill="#800b0d"/>
      <rect id="Rectangle_12" data-name="Rectangle 12" width="3.137" height="20.008" transform="translate(30.739 25.99)" fill="#800b0d"/>
      <rect id="Rectangle_13" data-name="Rectangle 13" width="3.138" height="22.858" transform="translate(25.616 23.14)" fill="#94001c"/>
      <rect id="Rectangle_14" data-name="Rectangle 14" width="3.137" height="29.655" transform="translate(20.493 16.343)" fill="#b10012"/>
      <rect id="Rectangle_15" data-name="Rectangle 15" width="3.137" height="27.86" transform="translate(15.37 18.138)" fill="#cd0d0f"/>
      <rect id="Rectangle_16" data-name="Rectangle 16" width="3.139" height="8.227" transform="translate(0 37.771)" fill="#a30012"/>
      <rect id="Rectangle_17" data-name="Rectangle 17" width="3.137" height="22.802" transform="translate(10.247 23.196)" fill="#c5001c"/>
      <rect id="Rectangle_18" data-name="Rectangle 18" width="3.138" height="16.453" transform="translate(5.124 29.545)" fill="#b70e26"/>
      <g id="Group_6" data-name="Group 6" transform="translate(0 0)">
        <g id="Group_5" data-name="Group 5" clip-path="url(#clip-path)">
          <path id="Path_1" data-name="Path 1" d="M158.27,15.921a6.778,6.778,0,0,1,2.43.392,2.09,2.09,0,0,1-.463,1.362,6.49,6.49,0,0,0-1.677-.23c-1,0-1.47.3-1.47.889,0,.635.961.784,1.932,1.13a2.523,2.523,0,0,1,2.036,2.458c0,1.673-1.03,2.585-3.124,2.585a6.354,6.354,0,0,1-2.765-.566,2.562,2.562,0,0,1,.44-1.408,7.61,7.61,0,0,0,2.2.358c.914,0,1.33-.3,1.33-.889,0-.531-.52-.762-1.191-.993-1.157-.381-2.731-.726-2.731-2.549,0-1.512.96-2.539,3.055-2.539" transform="translate(-60.916 -6.25)" fill="#3a3939"/>
          <path id="Path_2" data-name="Path 2" d="M174.1,20.376a3.161,3.161,0,0,1-6.317,0V15.067a3.285,3.285,0,0,1,.914-.1,3.432,3.432,0,0,1,.926.1v5.447a1.2,1.2,0,0,0,1.331,1.339,1.191,1.191,0,0,0,1.32-1.339V15.067a3.124,3.124,0,0,1,.9-.1,3.433,3.433,0,0,1,.924.1Zm-3.5-5.839a3.013,3.013,0,0,1-.765.081,2.8,2.8,0,0,1-.764-.081V13.209a2.816,2.816,0,0,1,.764-.08,3.034,3.034,0,0,1,.765.08Zm2.268,0a3.016,3.016,0,0,1-.764.081,2.8,2.8,0,0,1-.764-.081V13.209a2.822,2.822,0,0,1,.764-.08,3.038,3.038,0,0,1,.764.08Z" transform="translate(-65.867 -5.154)" fill="#3a3939"/>
          <path id="Path_3" data-name="Path 3" d="M184.679,16.149c2.268,0,3.575,1.166,3.575,4.154s-1.307,4.155-3.575,4.155h-2.858V16.149Zm-.07,6.866c1.042,0,1.69-.485,1.69-2.712,0-2.25-.649-2.712-1.69-2.712h-.936v5.424Z" transform="translate(-71.379 -6.34)" fill="#3a3939"/>
          <path id="Path_4" data-name="Path 4" d="M200.3,16.149a2.48,2.48,0,0,1,.116.762,2.64,2.64,0,0,1-.116.785H198.29v6.658a3.747,3.747,0,0,1-.926.1,3.079,3.079,0,0,1-.915-.1V17.7h-2.071a2.326,2.326,0,0,1-.115-.762,2.571,2.571,0,0,1,.115-.785Z" transform="translate(-76.263 -6.34)" fill="#3a3939"/>
          <path id="Path_5" data-name="Path 5" d="M207.122,16.253a3.49,3.49,0,0,1,.915-.1,3.689,3.689,0,0,1,.936.1v8.1a3.739,3.739,0,0,1-.925.1,3.212,3.212,0,0,1-.926-.1Z" transform="translate(-81.311 -6.34)" fill="#3a3939"/>
          <path id="Path_6" data-name="Path 6" d="M217.066,16.148A2.437,2.437,0,0,1,219.8,18.7a2.342,2.342,0,0,1-1.446,2.308l1.885,3.346a4.388,4.388,0,0,1-1.052.1,4.111,4.111,0,0,1-1.018-.1l-1.712-3.115h-.718v3.115a3.483,3.483,0,0,1-.915.1,3.268,3.268,0,0,1-.937-.1v-8.2Zm-1.33,3.659H216.8a.976.976,0,0,0,1.064-1.108A.979.979,0,0,0,216.8,17.58h-1.064Z" transform="translate(-83.966 -6.339)" fill="#3a3939"/>
          <path id="Path_7" data-name="Path 7" d="M229.907,15.921c2.13,0,3.494,1.292,3.494,4.292s-1.342,4.293-3.494,4.293-3.505-1.293-3.505-4.293c0-2.965,1.365-4.292,3.505-4.292m0,1.443c-.949,0-1.539.553-1.539,2.849s.59,2.839,1.539,2.839,1.54-.554,1.54-2.839-.58-2.849-1.54-2.849" transform="translate(-88.88 -6.25)" fill="#3a3939"/>
          <path id="Path_8" data-name="Path 8" d="M241.147,16.253a3.49,3.49,0,0,1,.915-.1,3.705,3.705,0,0,1,.937.1v6.7h3.239a2.326,2.326,0,0,1,.115.751,2.775,2.775,0,0,1-.115.75h-5.091Z" transform="translate(-94.669 -6.34)" fill="#3a3939"/>
          <path id="Path_9" data-name="Path 9" d="M257.455,16.149a2.166,2.166,0,0,1,.115.67,2.318,2.318,0,0,1-.115.737h-3.218v2.009h2.639a2.27,2.27,0,0,1,.115.68,2.175,2.175,0,0,1-.115.716h-2.639v2.088h3.333a2.059,2.059,0,0,1,.116.693,2.037,2.037,0,0,1-.116.716h-5.184V16.149Z" transform="translate(-99.081 -6.34)" fill="#3a3939"/>
          <path id="Path_10" data-name="Path 10" d="M267.3,16.148a2.438,2.438,0,0,1,2.732,2.551,2.343,2.343,0,0,1-1.447,2.308l1.886,3.346a4.394,4.394,0,0,1-1.053.1,4.118,4.118,0,0,1-1.018-.1l-1.712-3.115h-.718v3.115a3.471,3.471,0,0,1-.915.1,3.268,3.268,0,0,1-.937-.1v-8.2Zm-1.33,3.659h1.064A.976.976,0,0,0,268.1,18.7a.979.979,0,0,0-1.064-1.119h-1.064Z" transform="translate(-103.688 -6.339)" fill="#3a3939"/>
          <path id="Path_11" data-name="Path 11" d="M160.386,43.165a12.333,12.333,0,0,1-.243-2h-.056a11.877,11.877,0,0,1-.256,2l-.858,4.253a6.611,6.611,0,0,1-1.18.1,5.6,5.6,0,0,1-1.113-.1l-1.905-7.8a3.37,3.37,0,0,1,.9-.1,2.859,2.859,0,0,1,.846.1l1.068,4.441c.189.866.312,1.777.312,1.777h.045s.077-.888.255-1.766l.924-4.452a3.874,3.874,0,0,1,1.025-.1,4.132,4.132,0,0,1,1.034.1l.914,4.441a16.152,16.152,0,0,1,.234,1.777h.045a17.519,17.519,0,0,1,.311-1.766l1.092-4.452a2.8,2.8,0,0,1,.8-.1,3.176,3.176,0,0,1,.825.1l-1.928,7.8a4.95,4.95,0,0,1-1.09.1,5.619,5.619,0,0,1-1.147-.1Z" transform="translate(-60.761 -15.516)" fill="#3a3939"/>
          <path id="Path_12" data-name="Path 12" d="M174.89,39.623a3.367,3.367,0,0,1,.879-.1,3.573,3.573,0,0,1,.9.1v7.8a3.611,3.611,0,0,1-.891.1,3.094,3.094,0,0,1-.89-.1Z" transform="translate(-68.658 -15.516)" fill="#3a3939"/>
          <path id="Path_13" data-name="Path 13" d="M184.46,39.523a2.345,2.345,0,0,1,2.628,2.454A2.251,2.251,0,0,1,185.7,44.2l1.815,3.221a4.243,4.243,0,0,1-1.013.1,3.957,3.957,0,0,1-.979-.1l-1.649-3h-.691v3a3.359,3.359,0,0,1-.879.1,3.146,3.146,0,0,1-.9-.1V39.523Zm-1.28,3.52h1.025a1.073,1.073,0,0,0,0-2.143H183.18Z" transform="translate(-71.213 -15.516)" fill="#3a3939"/>
          <path id="Path_14" data-name="Path 14" d="M198.688,39.523a2.386,2.386,0,0,1,.112.733,2.53,2.53,0,0,1-.112.754h-1.937v6.407a3.606,3.606,0,0,1-.89.1,2.973,2.973,0,0,1-.881-.1V41.011h-1.993a2.219,2.219,0,0,1-.111-.733,2.46,2.46,0,0,1,.111-.755Z" transform="translate(-75.719 -15.516)" fill="#3a3939"/>
          <path id="Path_15" data-name="Path 15" d="M207.669,39.3a6.519,6.519,0,0,1,2.339.377,2,2,0,0,1-.446,1.31,6.218,6.218,0,0,0-1.613-.222c-.957,0-1.414.289-1.414.855,0,.61.925.754,1.86,1.088a2.428,2.428,0,0,1,1.959,2.365c0,1.61-.991,2.487-3.006,2.487a6.122,6.122,0,0,1-2.661-.544,2.468,2.468,0,0,1,.423-1.355,7.346,7.346,0,0,0,2.116.344c.879,0,1.28-.289,1.28-.855,0-.511-.5-.733-1.147-.955-1.113-.367-2.628-.7-2.628-2.454,0-1.454.925-2.442,2.94-2.442" transform="translate(-80.355 -15.43)" fill="#3a3939"/>
          <path id="Path_16" data-name="Path 16" d="M219.908,39.3a4.213,4.213,0,0,1,2.049.433,1.561,1.561,0,0,1-.513,1.221,4.194,4.194,0,0,0-1.3-.222c-1.135,0-1.859.589-1.859,2.71s.724,2.676,1.859,2.676a4.431,4.431,0,0,0,1.4-.244,1.707,1.707,0,0,1,.522,1.255,4.541,4.541,0,0,1-2.159.433c-2.272,0-3.508-1.444-3.508-4.13s1.236-4.13,3.508-4.13" transform="translate(-84.954 -15.43)" fill="#3a3939"/>
          <path id="Path_17" data-name="Path 17" d="M232.7,39.623a4.035,4.035,0,0,1,1.782,0v7.8a3.365,3.365,0,0,1-.881.1,3.139,3.139,0,0,1-.9-.1V44.142h-2.506v3.276a3.611,3.611,0,0,1-.891.1,3.1,3.1,0,0,1-.89-.1v-7.8a3.368,3.368,0,0,1,.88-.1,3.565,3.565,0,0,1,.9.1V42.7H232.7Z" transform="translate(-89.669 -15.516)" fill="#3a3939"/>
          <path id="Path_18" data-name="Path 18" d="M244.523,39.523a5.031,5.031,0,0,1,1.126.1l2.539,7.8a3.382,3.382,0,0,1-.936.1,2.784,2.784,0,0,1-.856-.1l-.524-1.621h-2.794l-.523,1.621a3.219,3.219,0,0,1-.869.1,2.859,2.859,0,0,1-.824-.1l2.538-7.8a5.409,5.409,0,0,1,1.124-.1m-.077,1.666a8.429,8.429,0,0,1-.3,1.3l-.657,2.009h1.972l-.647-2.009a9.061,9.061,0,0,1-.324-1.3Z" transform="translate(-94.556 -15.516)" fill="#3a3939"/>
          <path id="Path_19" data-name="Path 19" d="M257.181,47.418a3.561,3.561,0,0,1-.9.1,3.362,3.362,0,0,1-.88-.1V39.523h4.766a2.241,2.241,0,0,1,.111.666,2.09,2.09,0,0,1-.111.688h-2.984v2.076h2.649a1.782,1.782,0,0,1,.112.655,2.052,2.052,0,0,1-.112.7h-2.649Z" transform="translate(-100.264 -15.516)" fill="#3a3939"/>
          <path id="Path_20" data-name="Path 20" d="M271.132,39.523a2.385,2.385,0,0,1,.112.733,2.529,2.529,0,0,1-.112.754h-1.937v6.407a3.605,3.605,0,0,1-.89.1,2.973,2.973,0,0,1-.881-.1V41.011h-1.993a2.22,2.22,0,0,1-.111-.733,2.462,2.462,0,0,1,.111-.755Z" transform="translate(-104.159 -15.516)" fill="#3a3939"/>
          <path id="Path_21" data-name="Path 21" d="M280.112,39.3a6.507,6.507,0,0,1,2.337.377,2,2,0,0,1-.445,1.31,6.23,6.23,0,0,0-1.613-.222c-.958,0-1.415.289-1.415.855,0,.61.924.754,1.86,1.088a2.427,2.427,0,0,1,1.959,2.365c0,1.61-.991,2.487-3.006,2.487a6.112,6.112,0,0,1-2.66-.544,2.467,2.467,0,0,1,.422-1.355,7.345,7.345,0,0,0,2.116.344c.88,0,1.281-.289,1.281-.855,0-.511-.5-.733-1.147-.955-1.113-.367-2.628-.7-2.628-2.454,0-1.454.924-2.442,2.94-2.442" transform="translate(-108.794 -15.43)" fill="#3a3939"/>
          <path id="Path_22" data-name="Path 22" d="M157.511,70.275a3.581,3.581,0,0,1-.9.1,3.38,3.38,0,0,1-.88-.1v-7.9h4.766a2.245,2.245,0,0,1,.111.667,2.069,2.069,0,0,1-.111.688h-2.984v2.076h2.649a1.782,1.782,0,0,1,.112.655,2.045,2.045,0,0,1-.112.7h-2.649Z" transform="translate(-61.136 -24.489)" fill="#3a3939"/>
          <path id="Path_23" data-name="Path 23" d="M169.388,62.162c2.048,0,3.362,1.243,3.362,4.13s-1.292,4.13-3.362,4.13-3.374-1.243-3.374-4.13c0-2.854,1.314-4.13,3.374-4.13m0,1.388c-.912,0-1.482.533-1.482,2.743s.569,2.732,1.482,2.732,1.481-.533,1.481-2.732-.557-2.743-1.481-2.743" transform="translate(-65.173 -24.403)" fill="#3a3939"/>
          <path id="Path_24" data-name="Path 24" d="M183.269,62.38a2.345,2.345,0,0,1,2.628,2.455,2.252,2.252,0,0,1-1.392,2.22l1.814,3.221a4.249,4.249,0,0,1-1.012.1,4.009,4.009,0,0,1-.98-.1l-1.648-3h-.689v3a3.383,3.383,0,0,1-.88.1,3.164,3.164,0,0,1-.9-.1v-7.9ZM181.99,65.9h1.024a1.072,1.072,0,0,0,0-2.142H181.99Z" transform="translate(-70.745 -24.489)" fill="#3a3939"/>
          <path id="Path_25" data-name="Path 25" d="M198.773,67.589a3.042,3.042,0,0,1-6.079,0V62.481a3.148,3.148,0,0,1,.88-.1,3.3,3.3,0,0,1,.89.1v5.241a1.159,1.159,0,0,0,1.28,1.288,1.146,1.146,0,0,0,1.269-1.288V62.481a3.01,3.01,0,0,1,.868-.1,3.294,3.294,0,0,1,.891.1Z" transform="translate(-75.647 -24.489)" fill="#3a3939"/>
          <path id="Path_26" data-name="Path 26" d="M212.735,62.38a8.576,8.576,0,0,1,1.17.1v7.8a2.96,2.96,0,0,1-.847.1,3.127,3.127,0,0,1-.868-.1V67.943c0-1.3.067-2.919.145-3.519h-.067c-.132.477-.589,1.688-.968,2.6l-.725,1.7a2.1,2.1,0,0,1-.634.078,1.627,1.627,0,0,1-.589-.078c-.235-.544-.48-1.089-.7-1.632a24.868,24.868,0,0,1-1-2.665h-.066a23.764,23.764,0,0,1,.188,3.342v2.51a2.667,2.667,0,0,1-.791.1,2.742,2.742,0,0,1-.79-.1v-7.8a6.873,6.873,0,0,1,1.092-.1,5.318,5.318,0,0,1,1.057.1l.879,2.043a15.458,15.458,0,0,1,.769,2.144h.055a7.383,7.383,0,0,1,.378-1.266c.391-.955.825-1.954,1.237-2.921a5.223,5.223,0,0,1,1.079-.1" transform="translate(-80.945 -24.489)" fill="#3a3939"/>
        </g>
      </g>
    </g>
  </g>
</svg>
