<svg xmlns="http://www.w3.org/2000/svg" xmlns:xlink="http://www.w3.org/1999/xlink" width="278" height="83" viewBox="0 0 278 83"><defs><clipPath id="a"><rect width="200" height="52.895" fill="none"/></clipPath></defs><g transform="translate(0 54)"><g transform="translate(0 -54)"><rect width="278" height="83" fill="#f9f7f7"/><g transform="translate(39 15.052)"><rect width="3.608" height="6.812" transform="translate(88.33 46.06)" fill="#f6c3cb"/><rect width="3.607" height="15.596" transform="translate(82.442 37.276)" fill="#ee929d"/><rect width="3.605" height="26.209" transform="translate(76.553 26.663)" fill="#e65964"/><rect width="3.605" height="35.075" transform="translate(70.666 17.797)" fill="#dd1728"/><rect width="3.605" height="43.658" transform="translate(64.777 9.214)" fill="#dd1728"/><rect width="3.608" height="52.872" transform="translate(58.886 0)" fill="#b00009"/><rect width="3.606" height="49.389" transform="translate(52.998 3.483)" fill="#93000d"/><rect width="3.605" height="41.058" transform="translate(47.111 11.814)" fill="#8a0b0a"/><rect width="3.606" height="28.737" transform="translate(41.222 24.134)" fill="#800b0d"/><rect width="3.606" height="22.998" transform="translate(35.332 29.874)" fill="#800b0d"/><rect width="3.607" height="26.273" transform="translate(29.444 26.598)" fill="#94001c"/><rect width="3.605" height="34.086" transform="translate(23.555 18.786)" fill="#b10012"/><rect width="3.606" height="32.023" transform="translate(17.666 20.849)" fill="#cd0d0f"/><rect width="3.608" height="9.456" transform="translate(0 43.416)" fill="#a30012"/><rect width="3.605" height="26.209" transform="translate(11.778 26.663)" fill="#c5001c"/><rect width="3.607" height="18.912" transform="translate(5.889 33.96)" fill="#b70e26"/><g transform="translate(0 0)"><g clip-path="url(#a)"><path d="M158.733,15.921a7.791,7.791,0,0,1,2.793.45,2.4,2.4,0,0,1-.532,1.565,7.46,7.46,0,0,0-1.928-.265c-1.144,0-1.69.345-1.69,1.021,0,.73,1.1.9,2.221,1.3,1.17.424,2.34,1.088,2.34,2.826,0,1.923-1.183,2.971-3.591,2.971a7.3,7.3,0,0,1-3.178-.65,2.945,2.945,0,0,1,.505-1.618,8.747,8.747,0,0,0,2.527.412c1.05,0,1.529-.346,1.529-1.021,0-.61-.6-.876-1.369-1.142-1.33-.438-3.139-.835-3.139-2.93,0-1.738,1.1-2.918,3.511-2.918" transform="translate(-46.832 -4.805)" fill="#3a3939"/><path d="M175.041,21.458a3.633,3.633,0,0,1-7.261,0v-6.1a3.776,3.776,0,0,1,1.051-.119,3.945,3.945,0,0,1,1.064.119v6.261a1.384,1.384,0,0,0,1.53,1.539,1.369,1.369,0,0,0,1.517-1.539V15.357a3.591,3.591,0,0,1,1.037-.119,3.946,3.946,0,0,1,1.063.119Zm-4.029-6.711a3.463,3.463,0,0,1-.879.093,3.214,3.214,0,0,1-.878-.093V13.221a3.237,3.237,0,0,1,.878-.092,3.488,3.488,0,0,1,.879.092Zm2.606,0a3.467,3.467,0,0,1-.878.093,3.22,3.22,0,0,1-.878-.093V13.221a3.243,3.243,0,0,1,.878-.092,3.492,3.492,0,0,1,.878.092Z" transform="translate(-50.638 -3.963)" fill="#3a3939"/><path d="M185.106,16.149c2.606,0,4.109,1.34,4.109,4.775s-1.5,4.776-4.109,4.776h-3.285V16.149Zm-.08,7.892c1.2,0,1.943-.557,1.943-3.117,0-2.586-.746-3.117-1.943-3.117H183.95v6.234Z" transform="translate(-54.876 -4.874)" fill="#3a3939"/><path d="M201.205,16.149a2.851,2.851,0,0,1,.133.876,3.034,3.034,0,0,1-.133.9h-2.314v7.653a4.307,4.307,0,0,1-1.064.12,3.54,3.54,0,0,1-1.051-.12V17.927h-2.381a2.674,2.674,0,0,1-.132-.876,2.955,2.955,0,0,1,.132-.9Z" transform="translate(-58.631 -4.874)" fill="#3a3939"/><path d="M207.122,16.268a4.012,4.012,0,0,1,1.051-.119,4.24,4.24,0,0,1,1.076.119v9.311a4.3,4.3,0,0,1-1.063.12,3.693,3.693,0,0,1-1.064-.12Z" transform="translate(-62.512 -4.874)" fill="#3a3939"/><path d="M217.541,16.148a2.8,2.8,0,0,1,3.139,2.932,2.691,2.691,0,0,1-1.662,2.653l2.166,3.846a5.044,5.044,0,0,1-1.209.12,4.726,4.726,0,0,1-1.17-.12L216.838,22h-.825v3.581a4,4,0,0,1-1.051.12,3.756,3.756,0,0,1-1.077-.12v-9.43Zm-1.528,4.205h1.223a1.122,1.122,0,0,0,1.223-1.273,1.126,1.126,0,0,0-1.223-1.286h-1.223Z" transform="translate(-64.553 -4.874)" fill="#3a3939"/><path d="M230.431,15.921c2.448,0,4.016,1.485,4.016,4.933s-1.542,4.935-4.016,4.935S226.4,24.3,226.4,20.854c0-3.408,1.57-4.933,4.029-4.933m0,1.658c-1.091,0-1.769.636-1.769,3.275s.678,3.263,1.769,3.263,1.77-.637,1.77-3.263-.667-3.275-1.77-3.275" transform="translate(-68.331 -4.805)" fill="#3a3939"/><path d="M241.147,16.268a4.011,4.011,0,0,1,1.051-.119,4.259,4.259,0,0,1,1.077.119v7.706H247a2.673,2.673,0,0,1,.132.863A3.19,3.19,0,0,1,247,25.7h-5.852Z" transform="translate(-72.781 -4.874)" fill="#3a3939"/><path d="M258.213,16.149a2.49,2.49,0,0,1,.133.77,2.663,2.663,0,0,1-.133.848h-3.7v2.309h3.033a2.61,2.61,0,0,1,.132.782,2.5,2.5,0,0,1-.132.822h-3.033v2.4h3.831a2.367,2.367,0,0,1,.133.8,2.342,2.342,0,0,1-.133.822h-5.958V16.149Z" transform="translate(-76.174 -4.874)" fill="#3a3939"/><path d="M267.779,16.148a2.8,2.8,0,0,1,3.14,2.932,2.693,2.693,0,0,1-1.663,2.653l2.168,3.846a5.05,5.05,0,0,1-1.211.12,4.733,4.733,0,0,1-1.17-.12L267.076,22h-.825v3.581a3.99,3.99,0,0,1-1.051.12,3.756,3.756,0,0,1-1.077-.12v-9.43Zm-1.528,4.205h1.223A1.122,1.122,0,0,0,268.7,19.08a1.126,1.126,0,0,0-1.223-1.286h-1.223Z" transform="translate(-79.715 -4.874)" fill="#3a3939"/><path d="M161.225,43.709a14.179,14.179,0,0,1-.279-2.3h-.064a13.653,13.653,0,0,1-.295,2.3L159.6,48.6a7.6,7.6,0,0,1-1.357.115,6.436,6.436,0,0,1-1.279-.115l-2.19-8.96a3.874,3.874,0,0,1,1.038-.114,3.286,3.286,0,0,1,.973.114l1.228,5.105c.217,1,.359,2.042.359,2.042h.052s.089-1.021.293-2.03l1.063-5.118a4.453,4.453,0,0,1,1.178-.114,4.749,4.749,0,0,1,1.189.114l1.05,5.105a18.559,18.559,0,0,1,.269,2.042h.052a20.133,20.133,0,0,1,.357-2.03l1.255-5.118a3.212,3.212,0,0,1,.922-.114,3.651,3.651,0,0,1,.948.114l-2.216,8.96a5.69,5.69,0,0,1-1.253.115,6.459,6.459,0,0,1-1.319-.115Z" transform="translate(-46.713 -11.929)" fill="#3a3939"/><path d="M174.89,39.637a3.87,3.87,0,0,1,1.01-.114,4.107,4.107,0,0,1,1.037.114V48.6a4.151,4.151,0,0,1-1.024.115,3.556,3.556,0,0,1-1.023-.115Z" transform="translate(-52.784 -11.929)" fill="#3a3939"/><path d="M184.917,39.523a2.7,2.7,0,0,1,3.021,2.821,2.587,2.587,0,0,1-1.6,2.552l2.086,3.7a4.877,4.877,0,0,1-1.165.115,4.549,4.549,0,0,1-1.125-.115l-1.9-3.446h-.794V48.6a3.861,3.861,0,0,1-1.01.115A3.617,3.617,0,0,1,181.4,48.6V39.523Zm-1.471,4.046h1.179a1.233,1.233,0,0,0,0-2.463h-1.179Z" transform="translate(-54.748 -11.929)" fill="#3a3939"/><path d="M199.556,39.523a2.742,2.742,0,0,1,.128.843,2.908,2.908,0,0,1-.128.867H197.33V48.6a4.145,4.145,0,0,1-1.023.115,3.417,3.417,0,0,1-1.012-.115V41.233H193a2.55,2.55,0,0,1-.128-.842,2.827,2.827,0,0,1,.128-.868Z" transform="translate(-58.212 -11.929)" fill="#3a3939"/><path d="M208.115,39.3a7.493,7.493,0,0,1,2.688.434,2.3,2.3,0,0,1-.513,1.505,7.148,7.148,0,0,0-1.854-.255c-1.1,0-1.625.332-1.625.983,0,.7,1.063.867,2.138,1.25,1.125.408,2.252,1.047,2.252,2.719,0,1.851-1.139,2.859-3.455,2.859a7.036,7.036,0,0,1-3.059-.626,2.837,2.837,0,0,1,.487-1.557,8.443,8.443,0,0,0,2.432.4c1.01,0,1.471-.332,1.471-.983,0-.587-.575-.843-1.319-1.1-1.279-.422-3.02-.8-3.02-2.821,0-1.671,1.063-2.807,3.379-2.807" transform="translate(-61.776 -11.863)" fill="#3a3939"/><path d="M220.432,39.3a4.842,4.842,0,0,1,2.355.5,1.8,1.8,0,0,1-.589,1.4,4.821,4.821,0,0,0-1.5-.256c-1.3,0-2.137.677-2.137,3.115s.832,3.076,2.137,3.076a5.093,5.093,0,0,0,1.613-.281,1.962,1.962,0,0,1,.6,1.442,5.219,5.219,0,0,1-2.482.5c-2.611,0-4.032-1.66-4.032-4.748s1.421-4.748,4.032-4.748" transform="translate(-65.312 -11.863)" fill="#3a3939"/><path d="M233.338,39.637a4.638,4.638,0,0,1,2.048,0V48.6a3.869,3.869,0,0,1-1.012.115,3.608,3.608,0,0,1-1.036-.115V44.832h-2.88V48.6a4.151,4.151,0,0,1-1.024.115,3.562,3.562,0,0,1-1.023-.115v-8.96a3.873,3.873,0,0,1,1.011-.114,4.1,4.1,0,0,1,1.036.114v3.536h2.88Z" transform="translate(-68.937 -11.929)" fill="#3a3939"/><path d="M245.07,39.523a5.782,5.782,0,0,1,1.294.114l2.918,8.96a3.888,3.888,0,0,1-1.076.115,3.2,3.2,0,0,1-.984-.115l-.6-1.863h-3.212l-.6,1.863a3.7,3.7,0,0,1-1,.115,3.286,3.286,0,0,1-.947-.115l2.918-8.96a6.218,6.218,0,0,1,1.292-.114m-.089,1.914a9.7,9.7,0,0,1-.345,1.493l-.755,2.31h2.266l-.744-2.31a10.42,10.42,0,0,1-.372-1.493Z" transform="translate(-72.695 -11.929)" fill="#3a3939"/><path d="M257.447,48.6a4.093,4.093,0,0,1-1.038.115A3.864,3.864,0,0,1,255.4,48.6V39.523h5.478a2.577,2.577,0,0,1,.127.766,2.4,2.4,0,0,1-.127.791h-3.43v2.386h3.045a2.048,2.048,0,0,1,.128.753,2.358,2.358,0,0,1-.128.805h-3.045Z" transform="translate(-77.083 -11.929)" fill="#3a3939"/><path d="M272,39.523a2.742,2.742,0,0,1,.128.843,2.908,2.908,0,0,1-.128.867h-2.227V48.6a4.145,4.145,0,0,1-1.023.115,3.417,3.417,0,0,1-1.012-.115V41.233h-2.291a2.551,2.551,0,0,1-.128-.842,2.829,2.829,0,0,1,.128-.868Z" transform="translate(-80.077 -11.929)" fill="#3a3939"/><path d="M280.557,39.3a7.48,7.48,0,0,1,2.687.434,2.3,2.3,0,0,1-.512,1.505,7.161,7.161,0,0,0-1.854-.255c-1.1,0-1.627.332-1.627.983,0,.7,1.062.867,2.138,1.25,1.127.408,2.252,1.047,2.252,2.719,0,1.851-1.139,2.859-3.455,2.859a7.026,7.026,0,0,1-3.057-.626,2.836,2.836,0,0,1,.485-1.557,8.443,8.443,0,0,0,2.432.4c1.012,0,1.473-.332,1.473-.983,0-.587-.575-.843-1.319-1.1-1.279-.422-3.02-.8-3.02-2.821,0-1.671,1.063-2.807,3.379-2.807" transform="translate(-83.641 -11.863)" fill="#3a3939"/><path d="M157.777,71.455a4.116,4.116,0,0,1-1.037.115,3.885,3.885,0,0,1-1.011-.115V62.38h5.478a2.581,2.581,0,0,1,.127.767,2.378,2.378,0,0,1-.127.79h-3.43v2.386h3.045a2.049,2.049,0,0,1,.128.753,2.35,2.35,0,0,1-.128.8h-3.045Z" transform="translate(-47.001 -18.827)" fill="#3a3939"/><path d="M169.892,62.162c2.354,0,3.864,1.429,3.864,4.748s-1.485,4.747-3.864,4.747-3.878-1.428-3.878-4.747c0-3.281,1.511-4.748,3.878-4.748m0,1.6c-1.049,0-1.7.612-1.7,3.152s.654,3.14,1.7,3.14,1.7-.612,1.7-3.14-.64-3.152-1.7-3.152" transform="translate(-50.105 -18.761)" fill="#3a3939"/><path d="M183.726,62.38a2.7,2.7,0,0,1,3.021,2.821,2.588,2.588,0,0,1-1.6,2.552l2.085,3.7a4.884,4.884,0,0,1-1.163.115,4.609,4.609,0,0,1-1.126-.115l-1.894-3.446h-.792v3.446a3.888,3.888,0,0,1-1.012.115,3.637,3.637,0,0,1-1.037-.115V62.38Zm-1.47,4.046h1.177a1.233,1.233,0,0,0,0-2.463h-1.177Z" transform="translate(-54.389 -18.827)" fill="#3a3939"/><path d="M199.681,68.367a3.5,3.5,0,0,1-6.987,0V62.5a3.618,3.618,0,0,1,1.011-.115,3.8,3.8,0,0,1,1.024.115V68.52A1.332,1.332,0,0,0,196.2,70a1.317,1.317,0,0,0,1.459-1.481V62.5a3.46,3.46,0,0,1,1-.115,3.787,3.787,0,0,1,1.024.115Z" transform="translate(-58.157 -18.828)" fill="#3a3939"/><path d="M213.713,62.38a9.854,9.854,0,0,1,1.345.115v8.96a3.4,3.4,0,0,1-.974.115,3.594,3.594,0,0,1-1-.115V68.774c0-1.493.078-3.355.166-4.045h-.077c-.152.549-.677,1.94-1.112,2.987l-.834,1.952a2.412,2.412,0,0,1-.728.089,1.87,1.87,0,0,1-.677-.089c-.27-.625-.552-1.251-.808-1.876a28.582,28.582,0,0,1-1.151-3.063h-.076a27.311,27.311,0,0,1,.216,3.841v2.885a3.066,3.066,0,0,1-.91.115,3.151,3.151,0,0,1-.908-.115V62.5a7.9,7.9,0,0,1,1.255-.115,6.113,6.113,0,0,1,1.215.115l1.01,2.348a17.76,17.76,0,0,1,.884,2.464h.064a8.489,8.489,0,0,1,.435-1.455c.449-1.1.948-2.246,1.421-3.357a6,6,0,0,1,1.241-.115" transform="translate(-62.23 -18.827)" fill="#3a3939"/></g></g></g></g></g></svg>