<svg xmlns="http://www.w3.org/2000/svg" width="177.01" height="42.688" viewBox="0 0 177.01 42.688">
  <g id="Group_49" data-name="Group 49" transform="translate(-1520 -13.234)">
    <g id="Page-1" transform="translate(1520 27.234)">
      <g id="menu-Epipoli">
        <g id="Page-1-2" data-name="Page-1" transform="translate(0 0)">
          <path id="Fill-1" d="M64.381,12.817a7.506,7.506,0,0,0,.419,1.831,5.191,5.191,0,0,0,1.941,2.515,8.871,8.871,0,0,0,4.633,1.147c2.36,0,4.1-.551,5.272-1.677a5.132,5.132,0,0,0,1.39-3.75,4.354,4.354,0,0,0-1.831-3.794,9.711,9.711,0,0,0-3.6-1.346,18.847,18.847,0,0,1-3.11-.794A2.1,2.1,0,0,1,68,4.941c0-1.434,1.3-2.4,3.22-2.4A3.491,3.491,0,0,1,73.977,3.6a2.849,2.849,0,0,1,.662,1.567l3.155-.376a5.946,5.946,0,0,0-1.081-2.559C75.632.772,73.735,0,71.22,0c-3.794,0-6.264,1.985-6.264,5.051a4.341,4.341,0,0,0,1.7,3.574,7.794,7.794,0,0,0,3.331,1.346c3.044.706,3.177.728,3.839,1.081a2.24,2.24,0,0,1,1.1,2.03c0,1.654-1.324,2.647-3.529,2.647a3.918,3.918,0,0,1-3.221-1.3,3.168,3.168,0,0,1-.617-1.941Z" transform="translate(-30.844 0)" fill="#231f20" fill-rule="evenodd"/>
          <path id="Fill-3" d="M99.269,18.363a17.781,17.781,0,0,1-.177-2.868V11.812h4.213a6.258,6.258,0,0,0,4.7-1.588,5.667,5.667,0,0,0,1.477-4.059,5.157,5.157,0,0,0-1.368-3.794A6.263,6.263,0,0,0,103.416.8h-4.61C97.637.8,96.953.782,96,.738a19.928,19.928,0,0,1,.176,2.846V15.517A17.85,17.85,0,0,1,96,18.363Zm-.177-9.088V3.341h4.213a3.012,3.012,0,0,1,2.405.794,2.975,2.975,0,0,1,.728,2.118c0,1.941-1.1,3.022-3.133,3.022Z" transform="translate(-45.993 -0.353)" fill="#231f20" fill-rule="evenodd"/>
          <path id="Fill-5" d="M138.062,18.424a23.169,23.169,0,0,1-1.124-2.6l-4.9-12.728a14.614,14.614,0,0,1-.75-2.228h-3.838a13.052,13.052,0,0,1-.706,2.228l-4.853,12.728a24.154,24.154,0,0,1-1.168,2.6h3.617A10.963,10.963,0,0,1,125,16.108l.881-2.405h7.06l.881,2.405a14.805,14.805,0,0,1,.618,2.316Zm-5.912-7.258h-5.47l2.294-6.53c.066-.2.066-.2.419-1.235.242.728.309.992.4,1.235Z" transform="translate(-57.836 -0.414)" fill="#231f20" fill-rule="evenodd"/>
          <path id="Fill-7" d="M172.019,18.363c-.309-.6-.861-1.787-1.037-2.184-2.184-5.162-2.6-5.78-3.993-6.221a4.66,4.66,0,0,0,2.448-1.279,4.533,4.533,0,0,0,1.125-3.286c0-2.911-1.919-4.588-5.272-4.588H160c-1.213,0-1.9-.022-2.824-.066a19.634,19.634,0,0,1,.177,2.868V15.5a17.262,17.262,0,0,1-.177,2.868h3.287a17.218,17.218,0,0,1-.176-2.89v-4.5h3.286c1.7,0,2.471.817,3.662,3.861a17.787,17.787,0,0,1,1.147,3.529Zm-11.735-9.9V3.319h4.522c1.809,0,2.713.816,2.713,2.4a2.619,2.619,0,0,1-.706,1.941,2.973,2.973,0,0,1-2.1.794Z" transform="translate(-75.298 -0.353)" fill="#231f20" fill-rule="evenodd"/>
          <path id="Fill-9" d="M197.122,8.034,201.842,3.2c.97-.993,1.7-1.7,2.338-2.338h-4.169A10.858,10.858,0,0,1,198.291,3L192.665,8.85V3.71a15.793,15.793,0,0,1,.2-2.846H189.6a18.273,18.273,0,0,1,.176,2.846V15.578a19.015,19.015,0,0,1-.176,2.846h3.265a14.967,14.967,0,0,1-.2-2.846V12.335l2.405-2.4,4.389,6.177a20.628,20.628,0,0,1,1.39,2.316h4.081a29.907,29.907,0,0,1-2.206-2.8Z" transform="translate(-90.833 -0.414)" fill="#231f20" fill-rule="evenodd"/>
          <path id="Fill-11" d="M237.12,18.424a23.146,23.146,0,0,1-1.125-2.6L231.1,3.093a14.672,14.672,0,0,1-.75-2.228H226.51a13.053,13.053,0,0,1-.706,2.228l-4.852,12.728a24.245,24.245,0,0,1-1.169,2.6H223.4a11.029,11.029,0,0,1,.663-2.316l.881-2.405H232l.881,2.405a14.75,14.75,0,0,1,.618,2.316Zm-5.912-7.258h-5.471l2.295-6.53c.066-.2.066-.2.419-1.235.242.728.309.992.4,1.235Z" transform="translate(-105.293 -0.414)" fill="#231f20" fill-rule="evenodd"/>
          <path id="Fill-13" d="M255.129,12.919a7.514,7.514,0,0,0,.419,1.831,5.193,5.193,0,0,0,1.941,2.515,8.873,8.873,0,0,0,4.633,1.147c2.36,0,4.1-.552,5.272-1.677a5.133,5.133,0,0,0,1.39-3.75,4.353,4.353,0,0,0-1.831-3.794,9.715,9.715,0,0,0-3.6-1.346,18.743,18.743,0,0,1-3.11-.794,2.1,2.1,0,0,1-1.5-2.007c0-1.434,1.3-2.4,3.22-2.4A3.491,3.491,0,0,1,264.725,3.7a2.853,2.853,0,0,1,.662,1.567l3.155-.376a5.958,5.958,0,0,0-1.081-2.559C266.38.875,264.483.1,261.968.1c-3.794,0-6.265,1.985-6.265,5.052a4.342,4.342,0,0,0,1.7,3.574,7.809,7.809,0,0,0,3.331,1.346c3.044.706,3.177.728,3.839,1.08a2.241,2.241,0,0,1,1.1,2.03c0,1.654-1.324,2.647-3.529,2.647a3.918,3.918,0,0,1-3.221-1.3,3.161,3.161,0,0,1-.617-1.941Z" transform="translate(-122.227 -0.049)" fill="#231f20" fill-rule="evenodd"/>
          <path id="Fill-15" d="M285.1,12.919a7.511,7.511,0,0,0,.419,1.831,5.193,5.193,0,0,0,1.941,2.515,8.876,8.876,0,0,0,4.633,1.147c2.36,0,4.1-.552,5.272-1.677a5.133,5.133,0,0,0,1.39-3.75,4.353,4.353,0,0,0-1.831-3.794,9.7,9.7,0,0,0-3.6-1.346,18.706,18.706,0,0,1-3.11-.794,2.1,2.1,0,0,1-1.5-2.007c0-1.434,1.3-2.4,3.221-2.4A3.491,3.491,0,0,1,294.7,3.7a2.845,2.845,0,0,1,.662,1.567l3.155-.376a5.946,5.946,0,0,0-1.081-2.559C296.35.875,294.452.1,291.938.1c-3.794,0-6.265,1.985-6.265,5.052a4.341,4.341,0,0,0,1.7,3.574,7.8,7.8,0,0,0,3.331,1.346c3.045.706,3.177.728,3.839,1.08a2.242,2.242,0,0,1,1.1,2.03c0,1.654-1.324,2.647-3.529,2.647a3.916,3.916,0,0,1-3.221-1.3,3.164,3.164,0,0,1-.618-1.941Z" transform="translate(-136.585 -0.049)" fill="#231f20" fill-rule="evenodd"/>
          <path id="Fill-17" d="M328.48,15.5a17.723,17.723,0,0,1-2.6.155h-6.618V10.451h5.383a17.294,17.294,0,0,1,2.868.154V7.716a23.044,23.044,0,0,1-2.868.154h-5.36V3.326h6.353a19.74,19.74,0,0,1,2.846.154V.568a23.538,23.538,0,0,1-2.846.155h-6.662c-1.346,0-1.92-.022-2.8-.067a19.529,19.529,0,0,1,.177,2.846V15.436a17.845,17.845,0,0,1-.177,2.912c.882-.044,1.478-.067,2.8-.067h6.882a15.854,15.854,0,0,1,2.625.155Z" transform="translate(-151.47 -0.272)" fill="#231f20" fill-rule="evenodd"/>
          <path id="Fill-19" d="M70.038,44.931a1.973,1.973,0,0,1-.321.891,1.863,1.863,0,0,1-1.576.716c-1.362,0-2.218-1.1-2.218-2.875s.837-2.856,2.218-2.856a1.766,1.766,0,0,1,1.421.6,2.017,2.017,0,0,1,.418.832l1.352-.31a3.444,3.444,0,0,0-.3-.745A2.982,2.982,0,0,0,70,40.13a3.449,3.449,0,0,0-1.868-.465,3.39,3.39,0,0,0-2.432.919,4.875,4.875,0,0,0-.078,6.167,3.357,3.357,0,0,0,2.5.929,3.322,3.322,0,0,0,2.656-1.055,3.7,3.7,0,0,0,.652-1.452Z" transform="translate(-30.93 -19.003)" fill="#231f20" fill-rule="evenodd"/>
          <path id="Fill-21" d="M88.855,47.668a10.113,10.113,0,0,1-.5-1.142L86.2,40.94a6.444,6.444,0,0,1-.33-.978H84.175a5.756,5.756,0,0,1-.311.978l-2.14,5.585a10.559,10.559,0,0,1-.516,1.142h1.6a4.792,4.792,0,0,1,.291-1.016l.389-1.056H86.6l.389,1.056a6.508,6.508,0,0,1,.272,1.016Zm-2.607-3.185H83.835l1.012-2.866c.029-.087.029-.087.185-.542.107.319.136.435.175.542Z" transform="translate(-38.905 -19.145)" fill="#231f20" fill-rule="evenodd"/>
          <path id="Fill-23" d="M100.163,45.252a3.288,3.288,0,0,0,.184.8,2.285,2.285,0,0,0,.856,1.1,3.932,3.932,0,0,0,2.044.5,3.233,3.233,0,0,0,2.325-.736,2.248,2.248,0,0,0,.613-1.645,1.911,1.911,0,0,0-.807-1.666,4.311,4.311,0,0,0-1.586-.59,8.336,8.336,0,0,1-1.372-.348.922.922,0,0,1-.662-.881c0-.629.574-1.055,1.421-1.055a1.543,1.543,0,0,1,1.216.465,1.253,1.253,0,0,1,.292.688l1.391-.166a2.6,2.6,0,0,0-.477-1.123,2.874,2.874,0,0,0-2.422-.978c-1.674,0-2.763.871-2.763,2.217a1.9,1.9,0,0,0,.75,1.568,3.456,3.456,0,0,0,1.468.59,6.125,6.125,0,0,1,1.693.475.981.981,0,0,1,.487.891c0,.726-.583,1.161-1.557,1.161a1.732,1.732,0,0,1-1.42-.571,1.386,1.386,0,0,1-.273-.852Z" transform="translate(-47.986 -18.985)" fill="#231f20" fill-rule="evenodd"/>
          <path id="Fill-25" d="M117.557,45.252a3.288,3.288,0,0,0,.184.8,2.285,2.285,0,0,0,.856,1.1,3.932,3.932,0,0,0,2.044.5,3.233,3.233,0,0,0,2.325-.736,2.248,2.248,0,0,0,.613-1.645,1.911,1.911,0,0,0-.807-1.666,4.311,4.311,0,0,0-1.586-.59,8.376,8.376,0,0,1-1.372-.348.922.922,0,0,1-.662-.881c0-.629.574-1.055,1.421-1.055a1.543,1.543,0,0,1,1.216.465,1.253,1.253,0,0,1,.292.688l1.391-.166A2.6,2.6,0,0,0,123,40.605a2.874,2.874,0,0,0-2.422-.978c-1.674,0-2.763.871-2.763,2.217a1.9,1.9,0,0,0,.75,1.568,3.456,3.456,0,0,0,1.469.59,6.141,6.141,0,0,1,1.693.475.982.982,0,0,1,.486.891c0,.726-.583,1.161-1.557,1.161a1.732,1.732,0,0,1-1.42-.571,1.386,1.386,0,0,1-.273-.852Z" transform="translate(-56.319 -18.985)" fill="#231f20" fill-rule="evenodd"/>
          <path id="Fill-27" d="M141.039,47.668a10.115,10.115,0,0,1-.5-1.142l-2.16-5.585a6.319,6.319,0,0,1-.33-.978h-1.693a5.77,5.77,0,0,1-.312.978l-2.14,5.585a10.447,10.447,0,0,1-.516,1.142h1.6a4.8,4.8,0,0,1,.292-1.016l.389-1.056h3.114l.389,1.056a6.507,6.507,0,0,1,.272,1.016Zm-2.607-3.185h-2.413l1.012-2.866c.029-.087.029-.087.185-.542.107.319.136.435.175.542Z" transform="translate(-63.905 -19.145)" fill="#231f20" fill-rule="evenodd"/>
          <path id="Fill-29" d="M163.122,46.392a7.864,7.864,0,0,1-.077,1.278c.4-.019.641-.029,1.236-.029h1.77A3.465,3.465,0,0,0,168.6,46.8a4.065,4.065,0,0,0,1.148-3.079,3.885,3.885,0,0,0-1.08-2.933,3.479,3.479,0,0,0-2.626-.852h-1.761c-.614,0-.846-.01-1.236-.029a8.151,8.151,0,0,1,.077,1.259Zm1.294.106V41.077h1.557a2.189,2.189,0,0,1,1.751.581,2.872,2.872,0,0,1,.671,2.072,3.066,3.066,0,0,1-.71,2.149,2.15,2.15,0,0,1-1.723.619Z" transform="translate(-78.111 -19.118)" fill="#231f20" fill-rule="evenodd"/>
          <path id="Fill-31" d="M181.143,39.962a7.2,7.2,0,0,1,.078,1.248v5.209a7.279,7.279,0,0,1-.078,1.249h1.479a7.271,7.271,0,0,1-.078-1.249V41.211a7.187,7.187,0,0,1,.078-1.248Z" transform="translate(-86.782 -19.145)" fill="#231f20" fill-rule="evenodd"/>
          <path id="Fill-33" d="M206.7,47.641c-.136-.262-.379-.784-.457-.958-.963-2.265-1.148-2.536-1.761-2.73a2.058,2.058,0,0,0,1.08-.562,1.984,1.984,0,0,0,.5-1.442c0-1.278-.846-2.013-2.325-2.013H201.4c-.535,0-.837-.01-1.245-.03a8.653,8.653,0,0,1,.078,1.259v5.218a7.6,7.6,0,0,1-.078,1.259H201.6a7.579,7.579,0,0,1-.078-1.268V44.4h1.45c.749,0,1.089.358,1.614,1.694a7.8,7.8,0,0,1,.506,1.549Zm-5.176-4.347V41.038h2c.8,0,1.2.358,1.2,1.055a1.143,1.143,0,0,1-.311.851,1.313,1.313,0,0,1-.925.349Z" transform="translate(-95.888 -19.118)" fill="#231f20" fill-rule="evenodd"/>
          <path id="Fill-35" d="M216.963,39.962a7.2,7.2,0,0,1,.078,1.248v5.209a7.277,7.277,0,0,1-.078,1.249h1.479a7.261,7.261,0,0,1-.079-1.249V41.211a7.178,7.178,0,0,1,.079-1.248Z" transform="translate(-103.942 -19.145)" fill="#231f20" fill-rule="evenodd"/>
          <path id="Fill-37" d="M226.584,45.252a3.284,3.284,0,0,0,.185.8,2.281,2.281,0,0,0,.856,1.1,3.935,3.935,0,0,0,2.044.5,3.233,3.233,0,0,0,2.325-.736,2.246,2.246,0,0,0,.614-1.645,1.91,1.91,0,0,0-.808-1.666,4.307,4.307,0,0,0-1.586-.59,8.378,8.378,0,0,1-1.372-.348.923.923,0,0,1-.662-.881c0-.629.574-1.055,1.421-1.055a1.542,1.542,0,0,1,1.216.465,1.249,1.249,0,0,1,.293.688l1.391-.166a2.6,2.6,0,0,0-.477-1.123,2.875,2.875,0,0,0-2.422-.978c-1.674,0-2.763.871-2.763,2.217a1.9,1.9,0,0,0,.749,1.568,3.459,3.459,0,0,0,1.469.59,6.125,6.125,0,0,1,1.693.475.981.981,0,0,1,.486.891c0,.726-.583,1.161-1.557,1.161a1.733,1.733,0,0,1-1.421-.571,1.386,1.386,0,0,1-.272-.852Z" transform="translate(-108.551 -18.985)" fill="#231f20" fill-rule="evenodd"/>
          <path id="Fill-39" d="M245.353,47.641a7.771,7.771,0,0,1-.078-1.259V44.765h1.858a2.766,2.766,0,0,0,2.072-.7,2.478,2.478,0,0,0,.652-1.782,2.256,2.256,0,0,0-.6-1.665,2.771,2.771,0,0,0-2.072-.687h-2.034c-.516,0-.817-.01-1.236-.03a8.635,8.635,0,0,1,.078,1.249v5.237a7.731,7.731,0,0,1-.078,1.249Zm-.078-3.988v-2.6h1.858a1.332,1.332,0,0,1,1.06.348,1.3,1.3,0,0,1,.321.929,1.221,1.221,0,0,1-1.381,1.326Z" transform="translate(-116.853 -19.118)" fill="#231f20" fill-rule="evenodd"/>
          <path id="Fill-41" d="M265.808,47.668a10.02,10.02,0,0,1-.5-1.142l-2.161-5.585a6.444,6.444,0,0,1-.33-.978h-1.693a5.752,5.752,0,0,1-.311.978l-2.14,5.585a10.447,10.447,0,0,1-.516,1.142h1.6a4.76,4.76,0,0,1,.291-1.016l.389-1.056h3.114l.389,1.056a6.507,6.507,0,0,1,.272,1.016ZM263.2,44.483h-2.413l1.012-2.866c.029-.087.029-.087.185-.542.106.319.136.435.175.542Z" transform="translate(-123.679 -19.145)" fill="#231f20" fill-rule="evenodd"/>
          <path id="Fill-43" d="M283.963,47.641c-.137-.262-.379-.784-.457-.958-.963-2.265-1.148-2.536-1.761-2.73a2.058,2.058,0,0,0,1.08-.562,1.984,1.984,0,0,0,.5-1.442c0-1.278-.846-2.013-2.325-2.013h-2.335c-.535,0-.836-.01-1.245-.03a8.655,8.655,0,0,1,.078,1.259v5.218a7.6,7.6,0,0,1-.078,1.259h1.449a7.579,7.579,0,0,1-.078-1.268V44.4h1.45c.749,0,1.089.358,1.614,1.694a7.8,7.8,0,0,1,.506,1.549Zm-5.176-4.347V41.038h2c.8,0,1.2.358,1.2,1.055a1.143,1.143,0,0,1-.311.851,1.312,1.312,0,0,1-.925.349Z" transform="translate(-132.904 -19.118)" fill="#231f20" fill-rule="evenodd"/>
          <path id="Fill-45" d="M299.942,47.668a7.724,7.724,0,0,1,.428-1.287l1.46-3.408a11.677,11.677,0,0,0,.447-1.413c-.009.146-.039.64-.077,1.482v3.214a9.032,9.032,0,0,1-.078,1.413h1.362a8.344,8.344,0,0,1-.078-1.413v-4.86a9.972,9.972,0,0,1,.078-1.433h-1.79a5.307,5.307,0,0,1-.351,1.152l-1.964,4.8-1.975-4.8a6.674,6.674,0,0,1-.36-1.152h-1.781a9.554,9.554,0,0,1,.078,1.433v4.86a9.032,9.032,0,0,1-.078,1.413h1.362a8.8,8.8,0,0,1-.078-1.413V43.079c0-.213-.039-1.006-.077-1.52a10.672,10.672,0,0,0,.5,1.482l1.4,3.32a6.571,6.571,0,0,1,.428,1.307Z" transform="translate(-141.453 -19.145)" fill="#231f20" fill-rule="evenodd"/>
          <path id="Fill-47" d="M317.532,39.962a7.206,7.206,0,0,1,.077,1.248v5.209a7.285,7.285,0,0,1-.077,1.249h1.479a7.261,7.261,0,0,1-.079-1.249V41.211a7.177,7.177,0,0,1,.079-1.248Z" transform="translate(-152.122 -19.145)" fill="#231f20" fill-rule="evenodd"/>
          <path id="Fill-49" d="M329.468,39.665a3.384,3.384,0,0,0-2.51.968,4.133,4.133,0,0,0-1.109,3.02c0,2.459,1.421,4.037,3.629,4.037s3.639-1.588,3.639-4.037a4.164,4.164,0,0,0-1.09-3.02,3.421,3.421,0,0,0-2.559-.968m.029,6.873a2.107,2.107,0,0,1-1.508-.59,3.19,3.19,0,0,1-.788-2.285c0-1.752.886-2.856,2.286-2.856a2.1,2.1,0,0,1,1.5.591,3.115,3.115,0,0,1,.769,2.255c0,1.782-.865,2.885-2.257,2.885" transform="translate(-156.107 -19.002)" fill="#231f20" fill-rule="evenodd"/>
          <path id="Fill-51" d="M0,28.677H28.518V.237H0Z" transform="translate(0 -0.113)" fill="#df0514" fill-rule="evenodd"/>
          <path id="Fill-53" d="M18.5,13.748a3.249,3.249,0,0,1-.7-.234,6.687,6.687,0,0,1-4.166-6.391V4.258h.419c0,.327.006,3.5.053,3.832a6.431,6.431,0,0,0,4.022,5.143c.28.093.514.187.514.187.116.048.159.131.126.218-.065.169-.266.109-.266.109" transform="translate(-6.529 -2.04)" fill="#fefefe" fill-rule="evenodd"/>
          <path id="Fill-54" d="M15.142,25.461l1.648-2.169a.2.2,0,0,1,.284-.044c.141.1.1.189.043.278l-1.466,1.94" transform="translate(-7.254 -11.117)" fill="#fefefe" fill-rule="evenodd"/>
          <path id="Fill-55" d="M20.59,26.163l.54-1.37a.191.191,0,0,1,.253-.1.177.177,0,0,1,.121.238l-.491,1.229Z" transform="translate(-9.864 -11.823)" fill="#fefefe" fill-rule="evenodd"/>
          <path id="Fill-56" d="M26.647,8.118h.327V8.025H25.665v.093h.281c0,.187.14.281.327.281s.374-.094.374-.281" transform="translate(-12.296 -3.844)" fill="#fefefe" fill-rule="evenodd"/>
          <path id="Fill-57" d="M38.739,25.455l-1.651-2.172c-.046-.047-.116-.16-.281-.052-.123.082-.084.2-.046.285l1.469,1.945Z" transform="translate(-17.593 -11.108)" fill="#fefefe" fill-rule="evenodd"/>
          <path id="Fill-58" d="M34.3,26.192l-.546-1.384a.152.152,0,0,0-.186-.094c-.1.021-.219.09-.188.233l.5,1.238Z" transform="translate(-15.989 -11.837)" fill="#fefefe" fill-rule="evenodd"/>
          <path id="Fill-59" d="M24.1,13.84a12.465,12.465,0,0,0,1.5-2.011l-3.413-1.5a.194.194,0,0,1-.057-.294.184.184,0,0,1,.244-.08l3.413,1.5a16.279,16.279,0,0,0,.982-2.244l-3.74-.654c-.071-.019-.162-.087-.124-.26a.2.2,0,0,1,.217-.16l3.74.7a8.676,8.676,0,0,0,.421-2.244H23.446a.188.188,0,1,1,0-.374h3.881V3.113H19.659a.938.938,0,0,0-.935.935l.047,3.574a.948.948,0,0,1-.889.841V7.949H18.4l-.561-1.4.561-.187-.888-1.215.374-.328-1.4-.748.281-.514h0L14.048,3.6c-.684.034-.748.187-.935.514l-.141.421a2.05,2.05,0,0,0-1.589.655A1.584,1.584,0,0,0,11.1,6.5a.15.15,0,0,0,.141.14c.093,0,.14-.14.14-.234.093-.374.514-.561.888-.655a1.693,1.693,0,0,1,.842.047.708.708,0,0,1,.374.584H12.318c.28.233.561.678.841.958a11.921,11.921,0,0,0-.514,1.122H11.71a1.02,1.02,0,0,1-.982-.982V4.048a.938.938,0,0,0-.935-.935H2.125V6.172l3.881.047c.147,0,.184.063.186.187,0,.159-.1.183-.186.187H2.172a8.676,8.676,0,0,0,.421,2.244l3.74-.7c.094,0,.2,0,.233.168s-.048.225-.139.253c-.029.009-3.741.654-3.741.654a12.082,12.082,0,0,0,.982,2.244l3.413-1.5a.183.183,0,0,1,.266.1c.1.191-.028.244-.079.273l-3.413,1.5a12.465,12.465,0,0,0,1.5,2.011L8.3,11.5a.178.178,0,0,1,.248.035.211.211,0,0,1-.015.292l-2.9,2.291a4.521,4.521,0,0,0,.978.86H1.11V1.328H28.469V14.98H22.844a4.311,4.311,0,0,0,.976-.86l-2.9-2.291a.208.208,0,0,1,0-.295.218.218,0,0,1,.235-.032Z" transform="translate(-0.532 -0.636)" fill="#fefefe" fill-rule="evenodd"/>
          <path id="Fill-60" d="M36.905,4.258c0,.327-.006,3.5-.054,3.832a6.427,6.427,0,0,1-4.02,5.143c-.281.093-.514.187-.514.187a.206.206,0,0,0-.106.242c.067.141.246.085.246.085a3.241,3.241,0,0,0,.7-.234,6.688,6.688,0,0,0,4.166-6.391V4.258Z" transform="translate(-15.426 -2.04)" fill="#fefefe" fill-rule="evenodd"/>
          <path id="Fill-61" d="M27.006,46.109h.472v-.526h-.472Z" transform="translate(-12.938 -21.838)" fill="#fefefe" fill-rule="evenodd"/>
          <path id="Fill-62" d="M27.006,47.67h.472V47.2h-.472Z" transform="translate(-12.938 -22.611)" fill="#fefefe" fill-rule="evenodd"/>
          <path id="Fill-63" d="M26.882,43.871a.651.651,0,0,0,.631-.683.607.607,0,0,0-.631-.63.651.651,0,0,0-.683.63.7.7,0,0,0,.683.683" transform="translate(-12.551 -20.388)" fill="#fefefe" fill-rule="evenodd"/>
          <path id="Fill-64" d="M28.681,43.813a.789.789,0,0,0,.21-.578v-.579h.263v.579a1.053,1.053,0,0,1-.42.893l1,1.21a.191.191,0,0,1-.106.315h-.473v1h-.263v-1h-.315a.168.168,0,0,1-.158-.157V44.023a1.979,1.979,0,0,0,.263-.209" transform="translate(-13.615 -20.436)" fill="#fefefe" fill-rule="evenodd"/>
          <path id="Fill-65" d="M27.521,48.812a.718.718,0,0,1-.736.736A.763.763,0,0,1,26,48.812Z" transform="translate(-12.454 -23.385)" fill="#fefefe" fill-rule="evenodd"/>
          <path id="Fill-66" d="M25.006,43.813a.789.789,0,0,1-.21-.578v-.579h-.263v.579a1.053,1.053,0,0,0,.42.893l-1,1.21a.191.191,0,0,0,.106.315h.473v1H24.8v-1h.315a.168.168,0,0,0,.158-.157V44.023a1.979,1.979,0,0,1-.263-.209" transform="translate(-11.455 -20.436)" fill="#fefefe" fill-rule="evenodd"/>
          <path id="Fill-67" d="M39.778,42.312h.473v-.526h-.473Z" transform="translate(-19.057 -20.019)" fill="#fefefe" fill-rule="evenodd"/>
          <path id="Fill-68" d="M39.778,43.874h.473V43.4h-.473Z" transform="translate(-19.057 -20.793)" fill="#fefefe" fill-rule="evenodd"/>
          <path id="Fill-69" d="M39.654,40.074a.651.651,0,0,0,.631-.683.607.607,0,0,0-.631-.63.651.651,0,0,0-.683.63.7.7,0,0,0,.683.683" transform="translate(-18.67 -18.569)" fill="#fefefe" fill-rule="evenodd"/>
          <path id="Fill-70" d="M41.453,40.017a.789.789,0,0,0,.21-.578V38.86h.263v.579a1.053,1.053,0,0,1-.42.893l1,1.21a.191.191,0,0,1-.106.315h-.473v1h-.263v-1h-.315a.168.168,0,0,1-.158-.157V40.227a2.054,2.054,0,0,0,.263-.21" transform="translate(-19.734 -18.617)" fill="#fefefe" fill-rule="evenodd"/>
          <path id="Fill-71" d="M40.293,45.014a.717.717,0,0,1-.735.736.764.764,0,0,1-.789-.736Z" transform="translate(-18.573 -21.565)" fill="#fefefe" fill-rule="evenodd"/>
          <path id="Fill-72" d="M37.778,40.017a.791.791,0,0,1-.21-.578V38.86h-.263v.579a1.053,1.053,0,0,0,.42.893l-1,1.21a.191.191,0,0,0,.106.315h.473v1h.263v-1h.316a.168.168,0,0,0,.157-.157V40.227a2.1,2.1,0,0,1-.263-.21" transform="translate(-17.574 -18.617)" fill="#fefefe" fill-rule="evenodd"/>
          <path id="Fill-73" d="M46.1,34.5h.473v-.526H46.1Z" transform="translate(-22.087 -16.275)" fill="#fefefe" fill-rule="evenodd"/>
          <path id="Fill-74" d="M46.1,36.061h.473v-.473H46.1Z" transform="translate(-22.087 -17.049)" fill="#fefefe" fill-rule="evenodd"/>
          <path id="Fill-75" d="M45.98,32.26a.652.652,0,0,0,.631-.683.607.607,0,0,0-.631-.63.651.651,0,0,0-.683.63.7.7,0,0,0,.683.683" transform="translate(-21.701 -14.826)" fill="#fefefe" fill-rule="evenodd"/>
          <path id="Fill-76" d="M47.779,32.2a.787.787,0,0,0,.21-.578v-.579h.263v.579a1.053,1.053,0,0,1-.42.893l1,1.21a.191.191,0,0,1-.106.315h-.473v1h-.263v-1h-.315a.168.168,0,0,1-.158-.157V32.412a2,2,0,0,0,.263-.21" transform="translate(-22.764 -14.873)" fill="#fefefe" fill-rule="evenodd"/>
          <path id="Fill-77" d="M46.618,37.2a.717.717,0,0,1-.735.736.764.764,0,0,1-.789-.736Z" transform="translate(-21.604 -17.822)" fill="#fefefe" fill-rule="evenodd"/>
          <path id="Fill-78" d="M44.1,32.2a.787.787,0,0,1-.21-.578v-.579h-.263v.579a1.053,1.053,0,0,0,.42.893l-1,1.21a.191.191,0,0,0,.106.315h.473v1h.263v-1h.315a.168.168,0,0,0,.157-.157V32.412a2.042,2.042,0,0,1-.263-.21" transform="translate(-20.605 -14.873)" fill="#fefefe" fill-rule="evenodd"/>
          <path id="Fill-79" d="M33.484,34.5h.473v-.526h-.473Z" transform="translate(-16.041 -16.275)" fill="#fefefe" fill-rule="evenodd"/>
          <path id="Fill-80" d="M33.484,36.061h.473v-.473h-.473Z" transform="translate(-16.041 -17.049)" fill="#fefefe" fill-rule="evenodd"/>
          <path id="Fill-81" d="M33.36,32.26a.652.652,0,0,0,.631-.683.607.607,0,0,0-.631-.63.651.651,0,0,0-.683.63.7.7,0,0,0,.683.683" transform="translate(-15.655 -14.826)" fill="#fefefe" fill-rule="evenodd"/>
          <path id="Fill-82" d="M35.159,32.2a.789.789,0,0,0,.21-.578v-.579h.263v.579a1.053,1.053,0,0,1-.42.893l1,1.21a.191.191,0,0,1-.106.315h-.472v1h-.263v-1h-.315a.168.168,0,0,1-.157-.157V32.412a2.042,2.042,0,0,0,.263-.21" transform="translate(-16.718 -14.873)" fill="#fefefe" fill-rule="evenodd"/>
          <path id="Fill-83" d="M34,37.2a.718.718,0,0,1-.736.736.763.763,0,0,1-.789-.736Z" transform="translate(-15.558 -17.822)" fill="#fefefe" fill-rule="evenodd"/>
          <path id="Fill-84" d="M31.484,32.2a.79.79,0,0,1-.21-.578v-.579h-.263v.579a1.053,1.053,0,0,0,.42.893l-1,1.21a.191.191,0,0,0,.106.315h.472v1h.263v-1h.316a.168.168,0,0,0,.157-.157V32.412a2.042,2.042,0,0,1-.263-.21" transform="translate(-14.559 -14.873)" fill="#fefefe" fill-rule="evenodd"/>
          <path id="Fill-85" d="M13.989,42.312h.473v-.526h-.473Z" transform="translate(-6.702 -20.019)" fill="#fefefe" fill-rule="evenodd"/>
          <path id="Fill-86" d="M13.989,43.874h.473V43.4h-.473Z" transform="translate(-6.702 -20.793)" fill="#fefefe" fill-rule="evenodd"/>
          <path id="Fill-87" d="M13.865,40.074a.651.651,0,0,0,.631-.683.607.607,0,0,0-.631-.63.651.651,0,0,0-.683.63.7.7,0,0,0,.683.683" transform="translate(-6.315 -18.569)" fill="#fefefe" fill-rule="evenodd"/>
          <path id="Fill-88" d="M15.664,40.017a.791.791,0,0,0,.21-.578V38.86h.263v.579a1.053,1.053,0,0,1-.42.893l1,1.21a.191.191,0,0,1-.105.315h-.473v1h-.263v-1h-.316A.167.167,0,0,1,15.4,41.7V40.227a2.1,2.1,0,0,0,.263-.21" transform="translate(-7.379 -18.617)" fill="#fefefe" fill-rule="evenodd"/>
          <path id="Fill-89" d="M14.5,45.014a.718.718,0,0,1-.736.736.763.763,0,0,1-.789-.736Z" transform="translate(-6.218 -21.565)" fill="#fefefe" fill-rule="evenodd"/>
          <path id="Fill-90" d="M11.989,40.017a.79.79,0,0,1-.21-.578V38.86h-.263v.579a1.053,1.053,0,0,0,.42.893l-1,1.21a.191.191,0,0,0,.106.315h.473v1h.263v-1h.315a.167.167,0,0,0,.157-.157V40.227a2.1,2.1,0,0,1-.263-.21" transform="translate(-5.219 -18.617)" fill="#fefefe" fill-rule="evenodd"/>
          <path id="Fill-91" d="M20.283,34.5h.473v-.526h-.473Z" transform="translate(-9.717 -16.275)" fill="#fefefe" fill-rule="evenodd"/>
          <path id="Fill-92" d="M20.283,36.061h.473v-.473h-.473Z" transform="translate(-9.717 -17.049)" fill="#fefefe" fill-rule="evenodd"/>
          <path id="Fill-93" d="M20.159,32.26a.652.652,0,0,0,.631-.683.607.607,0,0,0-.631-.63.651.651,0,0,0-.683.63.7.7,0,0,0,.683.683" transform="translate(-9.33 -14.826)" fill="#fefefe" fill-rule="evenodd"/>
          <path id="Fill-94" d="M21.959,32.2a.789.789,0,0,0,.21-.578v-.579h.263v.579a1.053,1.053,0,0,1-.42.893l1,1.21a.191.191,0,0,1-.106.315h-.473v1h-.263v-1h-.315a.167.167,0,0,1-.157-.157V32.412a2.042,2.042,0,0,0,.263-.21" transform="translate(-10.394 -14.873)" fill="#fefefe" fill-rule="evenodd"/>
          <path id="Fill-95" d="M20.8,37.2a.718.718,0,0,1-.736.736.763.763,0,0,1-.789-.736Z" transform="translate(-9.234 -17.822)" fill="#fefefe" fill-rule="evenodd"/>
          <path id="Fill-96" d="M18.284,32.2a.79.79,0,0,1-.21-.578v-.579h-.263v.579a1.053,1.053,0,0,0,.42.893l-1,1.21a.191.191,0,0,0,.105.315h.473v1h.263v-1h.316a.168.168,0,0,0,.157-.157V32.412a2.042,2.042,0,0,1-.263-.21" transform="translate(-8.235 -14.873)" fill="#fefefe" fill-rule="evenodd"/>
          <path id="Fill-97" d="M7.725,34.5H8.2v-.526H7.725Z" transform="translate(-3.701 -16.275)" fill="#fefefe" fill-rule="evenodd"/>
          <path id="Fill-98" d="M7.725,36.061H8.2v-.473H7.725Z" transform="translate(-3.701 -17.049)" fill="#fefefe" fill-rule="evenodd"/>
          <path id="Fill-99" d="M7.6,32.26a.652.652,0,0,0,.631-.683.607.607,0,0,0-.631-.63.651.651,0,0,0-.683.63.7.7,0,0,0,.683.683" transform="translate(-3.314 -14.826)" fill="#fefefe" fill-rule="evenodd"/>
          <path id="Fill-100" d="M9.4,32.2a.789.789,0,0,0,.21-.578v-.579h.263v.579a1.053,1.053,0,0,1-.42.893l1,1.21a.191.191,0,0,1-.106.315H9.873v1H9.611v-1H9.3a.167.167,0,0,1-.157-.157V32.412A2.042,2.042,0,0,0,9.4,32.2" transform="translate(-4.378 -14.873)" fill="#fefefe" fill-rule="evenodd"/>
          <path id="Fill-101" d="M8.24,37.2a.718.718,0,0,1-.736.736.763.763,0,0,1-.789-.736Z" transform="translate(-3.217 -17.822)" fill="#fefefe" fill-rule="evenodd"/>
          <path id="Fill-102" d="M5.725,32.2a.79.79,0,0,1-.21-.578v-.579H5.252v.579a1.053,1.053,0,0,0,.42.893l-1,1.21a.191.191,0,0,0,.105.315h.473v1h.263v-1H5.83a.167.167,0,0,0,.157-.157V32.412a2.042,2.042,0,0,1-.263-.21" transform="translate(-2.218 -14.873)" fill="#fefefe" fill-rule="evenodd"/>
        </g>
      </g>
    </g>
    <text id="Main_Sponsor" data-name="Main Sponsor" transform="translate(1520 20.234)" fill="#333" font-size="9" font-family="GloberRegular, Glober"><tspan x="0" y="0">MAIN SPONSOR</tspan></text>
  </g>
</svg>
