<svg xmlns="http://www.w3.org/2000/svg" xmlns:xlink="http://www.w3.org/1999/xlink" width="122" height="122" viewBox="0 0 122 122"><defs><clipPath id="a"><path d="M0-682.665H122v122H0Z" transform="translate(0 682.665)"/></clipPath></defs><g transform="translate(0 682.665)"><path d="M-217.28,0l-47.28,48.156" transform="translate(315.264 -622.449)" fill="none" stroke="#fff" stroke-linecap="round" stroke-linejoin="round" stroke-miterlimit="10" stroke-width="2"/><g transform="translate(0 -682.665)" clip-path="url(#a)"><g transform="translate(78.542 2.729)"><path d="M0-28.3l4.178-4.255a6.359,6.359,0,0,1,8.975-.1L39.739-6.691" transform="translate(0 34.453)" fill="none" stroke="#fff" stroke-linecap="round" stroke-linejoin="round" stroke-miterlimit="10" stroke-width="2"/></g><g transform="translate(82.718 2.73)"><path d="M-124.079-89.157-142.1-106.751a6.362,6.362,0,0,0-8.978.1" transform="translate(151.078 108.558)" fill="none" stroke="#fff" stroke-linecap="round" stroke-linejoin="round" stroke-miterlimit="10" stroke-width="2"/></g><g transform="translate(89.14 51.582)"><path d="M0,0,8.844,8.634" fill="none" stroke="#fff" stroke-linecap="round" stroke-linejoin="round" stroke-miterlimit="10" stroke-width="2"/></g><g transform="translate(103.132 20.736)"><path d="M-50.233-106.175l4.314-4.394a6.319,6.319,0,0,0-.095-8.953l-9.993-9.756-5.157,5.253" transform="translate(61.164 129.278)" fill="none" stroke="#fff" stroke-linecap="round" stroke-linejoin="round" stroke-miterlimit="10" stroke-width="2"/></g><g transform="translate(89.14 51.582)"><path d="M0,0,8.844,8.634,17.126.2" fill="none" stroke="#fff" stroke-linecap="round" stroke-linejoin="round" stroke-miterlimit="10" stroke-width="2"/></g><g transform="translate(1.81 1.787)"><path d="M-34.159-360.317l-6.329,9.271a6.321,6.321,0,0,0,1.671,8.8l30.741,20.856a6.36,6.36,0,0,0,8.818-1.678l57.961-84.9a6.32,6.32,0,0,0-1.671-8.8L26.291-437.626a6.36,6.36,0,0,0-8.818,1.678l-46.283,67.8" transform="translate(41.592 438.721)" fill="none" stroke="#fff" stroke-linecap="round" stroke-linejoin="round" stroke-miterlimit="10" stroke-width="2"/></g><g transform="translate(44.458 1.788)"><path d="M-75.437-12.748-91.852,11.3-50.62,39.271-34.2,15.225a6.318,6.318,0,0,0-1.67-8.8L-66.616-14.427A6.362,6.362,0,0,0-75.437-12.748Z" transform="translate(91.852 15.522)" fill="none" stroke="#fff" stroke-linecap="round" stroke-linejoin="round" stroke-miterlimit="10" stroke-width="2"/></g><g transform="translate(57.764 12.503)"><path d="M0-63.5,9.433-77.318" transform="translate(0 77.318)" fill="none" stroke="#fff" stroke-linecap="round" stroke-linejoin="round" stroke-miterlimit="10" stroke-width="2"/></g><g transform="translate(64.412 21.295)"><path d="M0-43.823l6.51-9.536" transform="translate(0 53.359)" fill="none" stroke="#fff" stroke-linecap="round" stroke-linejoin="round" stroke-miterlimit="10" stroke-width="2"/></g><g transform="translate(30.327 55.853)"><path d="M0-210.56l31.279-45.818" transform="translate(0 256.378)" fill="none" stroke="#fff" stroke-linecap="round" stroke-linejoin="round" stroke-miterlimit="10" stroke-width="2"/></g><g transform="translate(38.369 75.867)"><path d="M0-143.654l21.34-31.259" transform="translate(0 174.913)" fill="none" stroke="#fff" stroke-linecap="round" stroke-linejoin="round" stroke-miterlimit="10" stroke-width="2"/></g><g transform="translate(39.679 50.397)"><path d="M0-93.473l13.885-20.34" transform="translate(0 113.813)" fill="none" stroke="#fff" stroke-linecap="round" stroke-linejoin="round" stroke-miterlimit="10" stroke-width="2"/></g><g transform="translate(15.239 75.209)"><path d="M-71-39.964l-5.262,7.708a5.589,5.589,0,0,1-7.75,1.475,5.555,5.555,0,0,1-1.469-7.734l5.262-7.708a5.59,5.59,0,0,1,7.75-1.475A5.555,5.555,0,0,1-71-39.964Z" transform="translate(86.453 48.66)" fill="none" stroke="#fff" stroke-linecap="round" stroke-linejoin="round" stroke-miterlimit="10" stroke-width="2"/></g><g transform="translate(68.89 15.9)"><path d="M0-134.572l16.8,11.4,16.415-24.045a6.318,6.318,0,0,0-1.67-8.8L19.99-163.854Z" transform="translate(0 163.854)" fill="none" stroke="#fff" stroke-linecap="round" stroke-linejoin="round" stroke-miterlimit="10" stroke-width="2"/></g><g transform="translate(79.913 42.358)"><path d="M0,0,4.368,2.964" fill="none" stroke="#fff" stroke-linecap="round" stroke-linejoin="round" stroke-miterlimit="10" stroke-width="2"/></g><g transform="translate(83.372 37.291)"><path d="M0,0,4.368,2.964" fill="none" stroke="#fff" stroke-linecap="round" stroke-linejoin="round" stroke-miterlimit="10" stroke-width="2"/></g><g transform="translate(86.83 32.225)"><path d="M0,0,4.368,2.964" fill="none" stroke="#fff" stroke-linecap="round" stroke-linejoin="round" stroke-miterlimit="10" stroke-width="2"/></g><g transform="translate(90.289 27.158)"><path d="M0,0,4.368,2.964" fill="none" stroke="#fff" stroke-linecap="round" stroke-linejoin="round" stroke-miterlimit="10" stroke-width="2"/></g></g></g></svg>