<svg xmlns="http://www.w3.org/2000/svg" width="42.241" height="41.397" viewBox="0 0 42.241 41.397">
  <g id="Group_4509" data-name="Group 4509" transform="translate(-0.421 -11)">
    <g id="Group_4511" data-name="Group 4511">
      <path id="Polygon_1_-_Kontur" data-name="Polygon 1 - Kontur" d="M111.114,1021.99a8.455,8.455,0,0,0-5.1,1.917q-5.1,3.834-10.294,7.525t-3.149,9.752q2.049,6.061,3.932,12.175t8.245,6.027q6.362-.088,12.724,0t8.245-6.027q1.883-6.115,3.932-12.175t-3.149-9.752q-5.2-3.691-10.294-7.525a8.454,8.454,0,0,0-5.1-1.917m0-2a10.434,10.434,0,0,1,6.3,2.319c3.365,2.531,6.813,5.052,10.25,7.492,4.195,2.978,5.539,7.136,3.886,12.023-1.354,4.006-2.672,8.085-3.915,12.123-1.5,4.867-4.948,7.44-9.977,7.44h-.207c-2.1-.029-4.233-.044-6.335-.044s-4.233.015-6.335.044h-.207c-5.028,0-8.478-2.573-9.977-7.44-1.243-4.038-2.56-8.117-3.915-12.123-1.652-4.887-.309-9.045,3.886-12.023,3.435-2.439,6.883-4.96,10.25-7.492A10.435,10.435,0,0,1,111.114,1019.99Z" transform="translate(-89.572 -1008.99)" fill="#333"/>
      <text id="_3." data-name="3." transform="translate(21.541 37.495)" fill="#333" font-size="14" font-family="GloberRegular, Glober"><tspan x="-5.215" y="0">3.</tspan></text>
    </g>
  </g>
</svg>
