<svg xmlns="http://www.w3.org/2000/svg" width="50.005" height="48.999" viewBox="0 0 50.005 48.999"><g transform="translate(1.997 2)"><g transform="translate(-91.995 -1021.99)" fill="rgba(255,255,255,0)" stroke-linejoin="round"><path d="M 122.8719100952148 1067.98974609375 C 122.7954635620117 1067.98974609375 122.718879699707 1067.9892578125 122.6416473388672 1067.988159179688 C 120.1063232421875 1067.953125 117.5352935791016 1067.935302734375 114.9999923706055 1067.935302734375 C 112.4646835327148 1067.935302734375 109.8936309814453 1067.953125 107.3582534790039 1067.988159179688 C 107.2813568115234 1067.9892578125 107.2041320800781 1067.98974609375 107.1279983520508 1067.98974609375 C 104.4284896850586 1067.98974609375 102.1539077758789 1067.312744140625 100.3674621582031 1065.9775390625 C 98.58444213867188 1064.644897460938 97.27236175537109 1062.64404296875 96.46768188476562 1060.030639648438 C 94.96817016601562 1055.159912109375 93.37917327880859 1050.239624023438 91.74478912353516 1045.40625 C 90.85643005371094 1042.778930664062 90.75891876220703 1040.353881835938 91.45496368408203 1038.198608398438 C 92.15128326416016 1036.04248046875 93.64769744873047 1034.137329101562 95.90267181396484 1032.536254882812 C 100.0461807250977 1029.594360351562 104.2061996459961 1026.553344726562 108.2671813964844 1023.497924804688 C 110.4787521362305 1021.834106445312 112.7439804077148 1020.990539550781 114.9999923706055 1020.990539550781 C 117.2559967041016 1020.990539550781 119.5212097167969 1021.834106445312 121.7326889038086 1023.497924804688 C 125.7919387817383 1026.552124023438 129.9519500732422 1029.593017578125 134.0972290039062 1032.536254882812 C 136.3522338867188 1034.137329101562 137.8486938476562 1036.04248046875 138.5450134277344 1038.198608398438 C 139.2410583496094 1040.353881835938 139.1435241699219 1042.778930664062 138.2551116943359 1045.40625 C 136.6213073730469 1050.238159179688 135.0322723388672 1055.158569335938 133.5321197509766 1060.030639648438 C 132.7275543212891 1062.643798828125 131.4154510498047 1064.644653320312 129.6322631835938 1065.977416992188 C 127.8457107543945 1067.312622070312 125.5711975097656 1067.98974609375 122.8719100952148 1067.98974609375 Z" stroke="none"/><path d="M 114.9999847412109 1021.990478515625 C 112.9561462402344 1021.990478515625 110.9123001098633 1022.759399414062 108.8684005737305 1024.296997070312 C 104.7807006835938 1027.37255859375 100.6517944335938 1030.390747070312 96.48159790039062 1033.351684570312 C 92.3114013671875 1036.312622070312 91.04820251464844 1040.223999023438 92.69210815429688 1045.0859375 C 94.33609008789062 1049.94775390625 95.9132080078125 1054.830932617188 97.42340087890625 1059.736328125 C 98.93382263183594 1064.641723632812 102.2404251098633 1067.0576171875 107.3443984985352 1066.98828125 C 112.4482040405273 1066.91748046875 117.5518035888672 1066.91748046875 122.6555023193359 1066.98828125 C 127.758918762207 1067.058837890625 131.0661010742188 1064.641723632812 132.5764007568359 1059.736328125 C 134.0868072509766 1054.830932617188 135.6638793945312 1049.94775390625 137.3078002929688 1045.0859375 C 138.9517974853516 1040.223999023438 137.6885986328125 1036.312622070312 133.5182800292969 1033.351684570312 C 129.3480987548828 1030.390747070312 125.2191009521484 1027.37255859375 121.1315002441406 1024.296997070312 C 119.087646484375 1022.759399414062 117.0438232421875 1021.990478515625 114.9999847412109 1021.990478515625 M 114.9999923706055 1019.990478515625 C 117.4777297973633 1019.990478515625 119.9452133178711 1020.901733398438 122.3338928222656 1022.69873046875 C 126.3857879638672 1025.747436523438 130.5382995605469 1028.782958984375 134.6761627197266 1031.720947265625 C 139.5623779296875 1035.190185546875 141.1275329589844 1040.033203125 139.2024230957031 1045.7265625 C 137.5716247558594 1050.549560546875 135.9854125976562 1055.461181640625 134.4878387451172 1060.324829101562 C 132.7425537109375 1065.993530273438 128.725830078125 1068.98974609375 122.8719024658203 1068.98974609375 C 122.7908020019531 1068.98974609375 122.7095794677734 1068.9892578125 122.6276702880859 1068.988037109375 C 120.0970687866211 1068.953125 117.5307006835938 1068.935302734375 114.9999923706055 1068.935302734375 C 112.4692764282227 1068.935302734375 109.9028778076172 1068.953125 107.3720932006836 1068.988037109375 C 107.2905578613281 1068.9892578125 107.2087020874023 1068.98974609375 107.1279983520508 1068.98974609375 C 101.2741394042969 1068.98974609375 97.25736999511719 1065.993530273438 95.511962890625 1060.324829101562 C 94.01536560058594 1055.463623046875 92.42918395996094 1050.552124023438 90.7974853515625 1045.7265625 C 88.87246704101562 1040.033203125 90.4376220703125 1035.190185546875 95.32373046875 1031.720947265625 C 99.45994567871094 1028.7841796875 103.6124725341797 1025.748657226562 107.6659469604492 1022.698852539062 C 110.0547485351562 1020.901733398438 112.5222473144531 1019.990478515625 114.9999923706055 1019.990478515625 Z" stroke="none" fill="#fff"/></g><text transform="translate(22.67 31.425)" fill="#fff" font-size="18" font-family="GloberRegular, Glober"><tspan x="-6.705" y="0">3.</tspan></text></g></svg>