<svg xmlns="http://www.w3.org/2000/svg" width="50.005" height="48.999" viewBox="0 0 50.005 48.999"><g transform="translate(1.997 2)"><g transform="translate(-91.995 -1021.99)" fill="none" stroke-linejoin="round"><path d="M121.132,1024.3q6.131,4.613,12.387,9.055t3.79,11.734q-2.466,7.293-4.731,14.65t-9.921,7.252q-7.656-.106-15.311,0t-9.921-7.252q-2.265-7.358-4.731-14.65t3.789-11.734q6.255-4.441,12.387-9.055T121.132,1024.3Z" stroke="none"/><path d="M 114.9999847412109 1021.990478515625 C 112.9561462402344 1021.990478515625 110.9123001098633 1022.759399414062 108.8684005737305 1024.296997070312 C 104.7807006835938 1027.37255859375 100.6517944335938 1030.390747070312 96.48159790039062 1033.351684570312 C 92.3114013671875 1036.312622070312 91.04820251464844 1040.223999023438 92.69210815429688 1045.0859375 C 94.33609008789062 1049.94775390625 95.9132080078125 1054.830932617188 97.42340087890625 1059.736328125 C 98.93382263183594 1064.641723632812 102.2404251098633 1067.0576171875 107.3443984985352 1066.98828125 C 112.4482040405273 1066.91748046875 117.5518035888672 1066.91748046875 122.6555023193359 1066.98828125 C 127.758918762207 1067.058837890625 131.0661010742188 1064.641723632812 132.5764007568359 1059.736328125 C 134.0868072509766 1054.830932617188 135.6638793945312 1049.94775390625 137.3078002929688 1045.0859375 C 138.9517974853516 1040.223999023438 137.6885986328125 1036.312622070312 133.5182800292969 1033.351684570312 C 129.3480987548828 1030.390747070312 125.2191009521484 1027.37255859375 121.1315002441406 1024.296997070312 C 119.087646484375 1022.759399414062 117.0438232421875 1021.990478515625 114.9999847412109 1021.990478515625 M 114.9999923706055 1019.990478515625 C 117.4777297973633 1019.990478515625 119.9452133178711 1020.901733398438 122.3338928222656 1022.69873046875 C 126.3857879638672 1025.747436523438 130.5382995605469 1028.782958984375 134.6761627197266 1031.720947265625 C 139.5623779296875 1035.190185546875 141.1275329589844 1040.033203125 139.2024230957031 1045.7265625 C 137.5716247558594 1050.549560546875 135.9854125976562 1055.461181640625 134.4878387451172 1060.324829101562 C 132.7425537109375 1065.993530273438 128.725830078125 1068.98974609375 122.8719024658203 1068.98974609375 C 122.7908020019531 1068.98974609375 122.7095794677734 1068.9892578125 122.6276702880859 1068.988037109375 C 120.0970687866211 1068.953125 117.5307006835938 1068.935302734375 114.9999923706055 1068.935302734375 C 112.4692764282227 1068.935302734375 109.9028778076172 1068.953125 107.3720932006836 1068.988037109375 C 107.2905578613281 1068.9892578125 107.2087020874023 1068.98974609375 107.1279983520508 1068.98974609375 C 101.2741394042969 1068.98974609375 97.25736999511719 1065.993530273438 95.511962890625 1060.324829101562 C 94.01536560058594 1055.463623046875 92.42918395996094 1050.552124023438 90.7974853515625 1045.7265625 C 88.87246704101562 1040.033203125 90.4376220703125 1035.190185546875 95.32373046875 1031.720947265625 C 99.45994567871094 1028.7841796875 103.6124725341797 1025.748657226562 107.6659469604492 1022.698852539062 C 110.0547485351562 1020.901733398438 112.5222473144531 1019.990478515625 114.9999923706055 1019.990478515625 Z" stroke="none" fill="#fff"/></g><text transform="translate(22.67 31.425)" fill="#fff" font-size="18" font-family="GloberRegular, Glober"><tspan x="-6.804" y="0">2.</tspan></text></g></svg>