<svg xmlns="http://www.w3.org/2000/svg" xmlns:xlink="http://www.w3.org/1999/xlink" width="228.582" height="82.125" viewBox="0 0 228.582 82.125">
  <defs>
    <clipPath id="clip-path">
      <rect id="Rectangle_2242" data-name="Rectangle 2242" width="228.582" height="82.125" fill="none"/>
    </clipPath>
  </defs>
  <g id="Group_4358" data-name="Group 4358" clip-path="url(#clip-path)">
    <path id="Path_15194" data-name="Path 15194" d="M204.576,80.706l.007.007a.665.665,0,0,1,.6-.35.639.639,0,0,1,.627.423.8.8,0,0,1,.663-.423.682.682,0,0,1,.68.783v1.206h-.231V81.105a.479.479,0,0,0-.508-.532c-.379,0-.551.32-.551.667v1.11h-.231V81.105a.479.479,0,0,0-.508-.532c-.379,0-.551.32-.551.667v1.11h-.231v-1.5c0-.149-.01-.3-.02-.433h.241Z" transform="translate(-100.222 99.56)" fill="#b2b2b2"/>
    <path id="Path_15195" data-name="Path 15195" d="M205.63,80.411h-.267v-.287h.267Zm-.02,2.488h-.231V80.97h.231Z" transform="translate(-97.835 99.012)" fill="#b2b2b2"/>
    <path id="Path_15196" data-name="Path 15196" d="M205.87,82.349h-.231V80.855c0-.152-.01-.3-.02-.436h.241l.01.284.007.007a.662.662,0,0,1,.6-.347.678.678,0,0,1,.68.78v1.206h-.231V81.1a.476.476,0,0,0-.508-.529c-.38,0-.551.317-.551.664Z" transform="translate(-97.246 99.562)" fill="#b2b2b2"/>
    <rect id="Rectangle_2237" data-name="Rectangle 2237" width="0.307" height="0.33" transform="translate(110.6 181.581)" fill="#b2b2b2"/>
    <path id="Path_15197" data-name="Path 15197" d="M206.852,82.2V82l1.181-1.837h.317v1.807h.426V82.2h-.426v.618H208.1V82.2ZM208.1,80.45h-.007l-.937,1.517h.944Z" transform="translate(-94.411 99.092)" fill="#b2b2b2"/>
    <path id="Path_15198" data-name="Path 15198" d="M209.294,81.529c0,.677-.158,1.388-.884,1.388s-.881-.71-.881-1.388.155-1.388.881-1.388.884.71.884,1.388m-1.495,0c0,.4.05,1.156.611,1.156s.614-.76.614-1.156-.049-1.156-.614-1.156-.611.76-.611,1.156" transform="translate(-92.854 99.051)" fill="#b2b2b2"/>
    <path id="Path_15199" data-name="Path 15199" d="M208.78,80.706l.007.007a.665.665,0,0,1,.6-.35.639.639,0,0,1,.627.423.8.8,0,0,1,.663-.423.682.682,0,0,1,.68.783v1.206h-.231V81.105a.479.479,0,0,0-.508-.532c-.379,0-.551.32-.551.667v1.11h-.231V81.105a.479.479,0,0,0-.508-.532c-.379,0-.551.32-.551.667v1.11h-.231v-1.5c0-.149-.01-.3-.02-.433h.241Z" transform="translate(-90.554 99.56)" fill="#b2b2b2"/>
    <path id="Path_15200" data-name="Path 15200" d="M209.815,80.706l.007.007a.665.665,0,0,1,.6-.35.632.632,0,0,1,.624.423.812.812,0,0,1,.667-.423.682.682,0,0,1,.68.783v1.206h-.231V81.105a.479.479,0,0,0-.508-.532c-.38,0-.551.32-.551.667v1.11h-.231V81.105a.479.479,0,0,0-.508-.532c-.38,0-.551.32-.551.667v1.11h-.231v-1.5c0-.149-.01-.3-.02-.433h.238Z" transform="translate(-88.174 99.56)" fill="#b2b2b2"/>
    <rect id="Rectangle_2238" data-name="Rectangle 2238" width="43.54" height="0.096" transform="translate(92.402 184.069)" fill="#c6c6c6"/>
    <path id="Path_15201" data-name="Path 15201" d="M244.287,81.343h.1v9.721h-.1Zm-43.537,0h.1v9.721h-.1Z" transform="translate(-108.443 101.82)" fill="#c6c6c6"/>
    <path id="Path_15202" data-name="Path 15202" d="M233.645,93.884l.911-.1-.825-8.478L204.838,88.6l-.073-.654,29.546-3.364.967,9.783-1.561.165Z" transform="translate(-99.209 109.293)" fill="#e30613"/>
    <path id="Path_15203" data-name="Path 15203" d="M200.757,86.18l.327-.036L202.4,86l.073.654-.99.109.825,8.478,29.321-3.34.073.651-29.975,3.413Z" transform="translate(-108.427 112.546)" fill="#e30613"/>
    <path id="Path_15204" data-name="Path 15204" d="M201.738,89.725l-.228-2.065,1.165-.129.02.172-.98.106.079.73.947-.1.02.172-.947.1.109.995Z" transform="translate(-106.694 116.079)" fill="#e30613"/>
    <path id="Path_15205" data-name="Path 15205" d="M203.336,88.367a.679.679,0,1,1-.749-.687.694.694,0,0,1,.749.687m-.733-.529a.539.539,0,0,0-.419.658c.026.264.2.588.548.548a.538.538,0,0,0,.416-.654c-.026-.268-.2-.591-.544-.552" transform="translate(-105.591 116.411)" fill="#e30613"/>
    <path id="Path_15206" data-name="Path 15206" d="M202.82,89.155l-.172.02-.122-1.114c-.013-.112-.033-.225-.049-.32l.178-.023.03.211.007.007a.5.5,0,0,1,.422-.311.505.505,0,0,1,.568.525l.1.9-.172.02-.1-.928a.356.356,0,0,0-.419-.354.436.436,0,0,0-.356.542Z" transform="translate(-104.472 116.284)" fill="#e30613"/>
    <path id="Path_15207" data-name="Path 15207" d="M204.1,89.245l-.007-.01a.585.585,0,0,1-.465.321c-.422.046-.63-.34-.67-.7s.079-.77.5-.819a.581.581,0,0,1,.521.208l0-.007-.092-.843.172-.016.191,1.741c.013.112.033.225.049.321l-.178.02Zm-.591-1.057c-.327.036-.4.35-.37.624s.148.621.475.585c.376-.04.455-.363.419-.691-.033-.291-.191-.555-.525-.519" transform="translate(-103.374 115.718)" fill="#e30613"/>
    <path id="Path_15208" data-name="Path 15208" d="M204.318,87.956a.291.291,0,0,0-.373-.271c-.182.02-.323.089-.327.287l-.182.02c.01-.3.218-.436.492-.466.317-.036.531.089.561.42l.076.681c.01.112.033.225.049.321l-.178.02-.026-.211H204.4l-.007.023a.547.547,0,0,1-.422.284.447.447,0,0,1-.284-.839,1.977,1.977,0,0,1,.64-.135Zm-.33.945c.376-.04.413-.357.363-.658-.244.036-.756.046-.716.406a.286.286,0,0,0,.353.251" transform="translate(-102.264 116.053)" fill="#e30613"/>
    <path id="Path_15209" data-name="Path 15209" d="M203.982,88.866l.716-1.213-.838.092-.016-.159,1.039-.116.017.159-.709,1.213.832-.093.02.159L204,89.025Z" transform="translate(-101.33 115.942)" fill="#e30613"/>
    <path id="Path_15210" data-name="Path 15210" d="M204.461,87.479l-.2.02-.023-.211.2-.023Zm.03.416.158,1.437-.172.016-.158-1.434Z" transform="translate(-100.424 115.463)" fill="#e30613"/>
    <path id="Path_15211" data-name="Path 15211" d="M205.79,88.1a.679.679,0,1,1-.752-.687.694.694,0,0,1,.752.687m-.736-.529a.541.541,0,0,0-.416.658c.03.264.2.588.548.552a.543.543,0,0,0,.416-.657c-.026-.268-.2-.591-.548-.552" transform="translate(-99.948 115.791)" fill="#e30613"/>
    <path id="Path_15212" data-name="Path 15212" d="M205.274,88.886l-.172.02-.122-1.113c-.013-.112-.033-.225-.049-.324l.178-.02.03.211.007.007a.5.5,0,0,1,.422-.311.507.507,0,0,1,.568.525l.1.9-.172.02-.1-.928a.356.356,0,0,0-.419-.354c-.284.03-.386.284-.356.542Z" transform="translate(-98.828 115.665)" fill="#e30613"/>
    <path id="Path_15213" data-name="Path 15213" d="M205.607,88.156c.04.307.208.548.561.509a.429.429,0,0,0,.376-.387l.182-.02a.61.61,0,0,1-.594.572c-.429.046-.67-.3-.713-.694a.682.682,0,0,1,.558-.829c.479-.053.693.278.743.727Zm.907-.258a.461.461,0,0,0-.518-.436.478.478,0,0,0-.4.535Z" transform="translate(-97.72 115.549)" fill="#e30613"/>
    <path id="Path_15214" data-name="Path 15214" d="M207.457,87.493a.438.438,0,0,0-.525-.3c-.528.056-.637.555-.591.978s.261.889.789.829a.488.488,0,0,0,.469-.426l.2-.023a.693.693,0,0,1-.65.621c-.627.069-.944-.406-1.006-.978s.148-1.107.769-1.173a.612.612,0,0,1,.746.449Z" transform="translate(-96.064 114.887)" fill="#e30613"/>
    <path id="Path_15215" data-name="Path 15215" d="M207.591,87.589a.291.291,0,0,0-.373-.271c-.181.017-.323.089-.323.287l-.185.02c.01-.3.218-.436.492-.466.317-.036.531.089.561.42l.076.681c.01.112.033.225.049.32l-.178.02-.026-.211h-.007l-.007.023a.547.547,0,0,1-.422.284.447.447,0,0,1-.284-.839,1.978,1.978,0,0,1,.64-.135Zm-.33.945c.376-.043.413-.357.363-.657-.244.036-.756.046-.716.406a.286.286,0,0,0,.353.251" transform="translate(-94.737 115.207)" fill="#e30613"/>
    <path id="Path_15216" data-name="Path 15216" d="M207.631,87.111c.271-.026.511.043.568.344l-.188.02c-.036-.178-.2-.221-.38-.2-.158.017-.317.1-.3.268.023.211.3.162.7.254a.355.355,0,0,1,.277.311c.036.324-.247.5-.551.535a.484.484,0,0,1-.587-.377l.185-.02c.04.215.234.254.429.235s.366-.129.343-.327-.251-.215-.485-.241-.469-.073-.5-.337c-.033-.3.231-.433.482-.463" transform="translate(-93.734 115.097)" fill="#e30613"/>
    <path id="Path_15217" data-name="Path 15217" d="M208.064,87.064c.271-.03.511.04.568.34l-.185.02c-.04-.178-.2-.221-.383-.2-.158.02-.317.1-.3.268.023.211.3.162.7.254a.358.358,0,0,1,.28.311c.033.324-.251.5-.554.535a.48.48,0,0,1-.587-.377l.185-.02c.04.211.234.254.429.235s.366-.129.343-.327-.251-.215-.485-.244-.469-.069-.5-.334c-.033-.3.231-.433.482-.459" transform="translate(-92.738 114.988)" fill="#e30613"/>
    <path id="Path_15218" data-name="Path 15218" d="M208.89,87.447a.291.291,0,0,0-.373-.271c-.182.017-.323.089-.327.287l-.181.02c.01-.3.218-.436.492-.466.317-.036.531.089.561.42l.076.681c.01.112.033.225.049.321l-.178.02-.03-.211h0l-.007.023a.553.553,0,0,1-.422.284.444.444,0,0,1-.528-.393.45.45,0,0,1,.244-.446,1.978,1.978,0,0,1,.64-.135Zm-.33.945c.373-.04.412-.357.363-.658-.244.036-.756.046-.716.406a.286.286,0,0,0,.353.251" transform="translate(-91.75 114.88)" fill="#e30613"/>
    <path id="Path_15219" data-name="Path 15219" d="M209.831,88.609l-.007-.01a.592.592,0,0,1-.462.32c-.426.046-.634-.34-.673-.7s.079-.773.5-.819a.582.582,0,0,1,.521.208l.007-.007-.1-.842.172-.017.191,1.741c.013.112.033.225.049.32l-.175.02Zm-.591-1.057c-.327.036-.4.35-.366.624s.145.621.472.585c.376-.04.455-.363.419-.691-.03-.291-.191-.555-.525-.519" transform="translate(-90.202 114.253)" fill="#e30613"/>
    <path id="Path_15220" data-name="Path 15220" d="M209.371,86.933l-.2.02-.023-.215.2-.02Zm.03.416.158,1.437-.172.017-.158-1.434Z" transform="translate(-89.133 114.205)" fill="#e30613"/>
    <path id="Path_15221" data-name="Path 15221" d="M210.015,88.779l-.185.02-.228-2.065.673-.073a.856.856,0,0,1,.5.053.476.476,0,0,1,.261.41.471.471,0,0,1-.35.489v0c.267.017.346.185.4.423.076.33.079.486.178.6l-.214.023a1.563,1.563,0,0,1-.119-.42c-.1-.469-.132-.548-.508-.509l-.511.056Zm.271-1.2c.264-.03.587-.083.548-.433-.043-.4-.413-.33-.607-.307l-.419.046.083.737Z" transform="translate(-88.084 114.044)" fill="#e30613"/>
    <path id="Path_15222" data-name="Path 15222" d="M210.381,86.822l-.2.02-.023-.215.2-.02Zm.03.416.158,1.437-.172.017-.158-1.434Z" transform="translate(-86.81 113.949)" fill="#e30613"/>
    <path id="Path_15223" data-name="Path 15223" d="M210.855,86.758c.271-.03.511.04.568.34l-.188.02c-.036-.175-.2-.221-.379-.2-.158.02-.317.1-.3.268.023.211.3.162.7.258a.347.347,0,0,1,.28.307c.036.324-.247.5-.551.535a.479.479,0,0,1-.587-.377l.185-.02c.04.215.234.254.429.235s.363-.129.343-.327-.254-.215-.488-.241-.465-.073-.495-.337c-.033-.3.231-.433.482-.459" transform="translate(-86.32 114.283)" fill="#e30613"/>
    <path id="Path_15224" data-name="Path 15224" d="M211.2,88.786l-.172.02-.181-1.662c-.01-.112-.033-.228-.05-.324l.178-.02.03.211.007,0a.573.573,0,0,1,.462-.311c.426-.05.63.317.673.691s-.079.783-.5.829a.588.588,0,0,1-.528-.211h-.007Zm.416-.717c.33-.036.373-.41.343-.674s-.175-.568-.5-.532-.432.33-.4.621c.036.327.181.624.558.585" transform="translate(-85.345 114.162)" fill="#e30613"/>
    <path id="Path_15225" data-name="Path 15225" d="M212.162,87.088a.291.291,0,0,0-.373-.271c-.181.02-.323.089-.323.287l-.185.02c.01-.3.218-.436.492-.466.32-.036.531.089.561.42l.076.681c.01.112.033.225.049.32l-.178.02-.026-.211-.007,0-.007.02a.547.547,0,0,1-.422.284.448.448,0,0,1-.284-.839,1.979,1.979,0,0,1,.64-.135Zm-.33.945c.373-.04.412-.357.363-.657-.244.036-.756.046-.716.406a.286.286,0,0,0,.353.251" transform="translate(-84.225 114.053)" fill="#e30613"/>
    <path id="Path_15226" data-name="Path 15226" d="M212.059,88.133l-.172.02-.122-1.113c-.01-.112-.033-.225-.049-.324l.178-.02.03.211h.007a.374.374,0,0,1,.3-.291l.172-.017.016.169c-.033,0-.073,0-.106,0-.254.026-.37.225-.346.5Z" transform="translate(-83.225 113.933)" fill="#e30613"/>
    <path id="Path_15227" data-name="Path 15227" d="M212.212,86.951l.007.007a.5.5,0,0,1,.419-.311.475.475,0,0,1,.5.264.6.6,0,0,1,.459-.37.51.51,0,0,1,.571.525l.1.9-.172.02-.1-.928a.359.359,0,0,0-.422-.354c-.28.03-.383.281-.356.539l.092.829-.172.02-.1-.928a.357.357,0,0,0-.422-.354c-.281.03-.383.281-.356.539l.092.829-.172.017-.122-1.11c-.013-.112-.033-.228-.049-.324l.175-.02Z" transform="translate(-82.562 113.787)" fill="#e30613"/>
    <path id="Path_15228" data-name="Path 15228" d="M212.979,86.537l-.2.02-.023-.215.2-.02Zm.03.416.158,1.437-.172.017-.158-1.437Z" transform="translate(-80.835 113.292)" fill="#e30613"/>
    <path id="Path_15229" data-name="Path 15229" d="M214.3,87.16a.678.678,0,1,1-.752-.691.693.693,0,0,1,.752.691m-.736-.532a.541.541,0,0,0-.416.658c.03.264.2.588.548.548a.538.538,0,0,0,.416-.654c-.026-.268-.2-.591-.548-.552" transform="translate(-80.359 113.621)" fill="#e30613"/>
    <path id="Path_15230" data-name="Path 15230" d="M202.211,88.844a.629.629,0,0,1-.709-.535l.211-.023c.043.33.294.4.581.367.244-.026.5-.195.479-.469-.03-.215-.191-.3-.383-.34-.356-.076-.9-.129-.954-.591a.636.636,0,0,1,.62-.658.625.625,0,0,1,.759.436l-.211.023c-.036-.264-.284-.307-.5-.284s-.485.169-.459.433c.073.608,1.251.2,1.333.942.053.466-.333.654-.762.7" transform="translate(-106.872 113.903)" fill="#e30613"/>
    <path id="Path_15231" data-name="Path 15231" d="M202.259,87.211l-.3.033-.02-.165.3-.033-.036-.317.168-.1.046.393.337-.036.02.165-.34.036.112,1a.183.183,0,0,0,.228.188.464.464,0,0,0,.152-.036l.017.155a.568.568,0,0,1-.178.046c-.38.043-.383-.2-.406-.4Z" transform="translate(-105.702 114.009)" fill="#e30613"/>
    <path id="Path_15232" data-name="Path 15232" d="M202.5,86.75l-.208.023-.023-.225.208-.023Zm.033.433.165,1.493-.178.02-.165-1.493Z" transform="translate(-104.95 113.76)" fill="#e30613"/>
    <path id="Path_15233" data-name="Path 15233" d="M202.906,88.708l-.145-1.332-.3.033-.02-.162.3-.033-.033-.321c-.03-.254.063-.383.317-.41a.783.783,0,0,1,.175.013l.017.142c-.036,0-.076,0-.112,0-.244.03-.238.152-.2.363l.023.192.337-.04.02.165-.34.036.145,1.332Z" transform="translate(-104.555 113.662)" fill="#e30613"/>
    <path id="Path_15234" data-name="Path 15234" d="M203.059,87.123l-.3.033-.02-.165.3-.033-.036-.317.172-.1.043.4.337-.04.02.165-.34.036.109,1a.189.189,0,0,0,.231.188.567.567,0,0,0,.152-.036l.017.155a.674.674,0,0,1-.178.046c-.376.043-.383-.2-.406-.4Z" transform="translate(-103.862 113.806)" fill="#e30613"/>
    <path id="Path_15235" data-name="Path 15235" d="M204.093,86.622l.178-.02.129,1.156c.013.119.033.235.049.337l-.185.02-.033-.218,0-.007a.517.517,0,0,1-.439.32.529.529,0,0,1-.594-.545l-.1-.935.178-.02.109.965a.366.366,0,0,0,.436.367c.294-.03.4-.294.373-.562Z" transform="translate(-103.055 113.937)" fill="#e30613"/>
    <path id="Path_15236" data-name="Path 15236" d="M203.946,88.145l-.178.02-.129-1.156c-.01-.119-.033-.235-.049-.337l.185-.02.033.218.007.007a.508.508,0,0,1,.436-.32.529.529,0,0,1,.594.545l.1.935-.178.02-.106-.965a.377.377,0,0,0-.439-.37c-.294.033-.4.3-.373.565Z" transform="translate(-101.912 113.819)" fill="#e30613"/>
    <path id="Path_15237" data-name="Path 15237" d="M205.156,86.511l.181-.02c.007.1.01.221.023.337l.1.9c.033.3.083.608-.231.8a.7.7,0,0,1-.33.106c-.271.03-.6-.026-.637-.337l.195-.02c.04.175.257.211.445.192a.437.437,0,0,0,.406-.466l-.03-.278h-.007a.552.552,0,0,1-.452.334c-.449.05-.68-.271-.726-.684s.1-.8.551-.849a.577.577,0,0,1,.521.221l0-.01Zm-.475.172c-.323.036-.426.38-.4.651s.208.591.535.555.439-.37.406-.664-.224-.578-.544-.542" transform="translate(-100.772 113.682)" fill="#e30613"/>
    <path id="Path_15238" data-name="Path 15238" d="M205.614,88.47a.629.629,0,0,1-.709-.535l.211-.02c.043.327.294.4.581.363.244-.026.5-.195.472-.469-.023-.215-.185-.3-.376-.34-.356-.076-.9-.129-.954-.591a.636.636,0,0,1,.62-.658.625.625,0,0,1,.759.436l-.211.023c-.036-.264-.284-.307-.5-.281s-.488.165-.459.43c.069.608,1.247.2,1.33.942.053.466-.333.651-.762.7" transform="translate(-99.046 113.041)" fill="#e30613"/>
    <path id="Path_15239" data-name="Path 15239" d="M206.4,86.779l.178-.02.129,1.156c.013.116.033.235.049.337l-.185.02-.03-.221-.007,0a.513.513,0,0,1-.439.321c-.485.056-.571-.373-.594-.545l-.1-.935.182-.02.109.965a.368.368,0,0,0,.432.367.455.455,0,0,0,.376-.562Zm-.818-.264-.026-.261.218-.023.03.261Zm.521-.056-.03-.261.221-.026.026.264Z" transform="translate(-97.759 112.944)" fill="#e30613"/>
    <path id="Path_15240" data-name="Path 15240" d="M207.085,88.043l-.007-.01a.613.613,0,0,1-.482.334c-.442.046-.657-.357-.7-.73s.083-.806.525-.856a.617.617,0,0,1,.544.215l0-.007-.1-.876.178-.02.2,1.814c.013.116.036.235.053.334l-.185.023Zm-.614-1.1c-.34.036-.416.363-.383.651s.152.644.495.608c.389-.043.472-.38.432-.72-.03-.3-.2-.578-.545-.539" transform="translate(-96.624 112.767)" fill="#e30613"/>
    <path id="Path_15241" data-name="Path 15241" d="M206.66,86.726l-.3.033-.016-.165.3-.033-.036-.317.172-.1.043.393.337-.036.02.165-.34.036.109,1a.189.189,0,0,0,.231.188.568.568,0,0,0,.152-.036l.016.155a.644.644,0,0,1-.178.046c-.376.043-.383-.2-.406-.4Z" transform="translate(-95.572 112.891)" fill="#e30613"/>
    <path id="Path_15242" data-name="Path 15242" d="M206.906,86.265l-.208.023-.026-.225.211-.023Zm.033.433.165,1.493-.178.02-.165-1.493Z" transform="translate(-94.824 112.642)" fill="#e30613"/>
    <path id="Path_15243" data-name="Path 15243" d="M207.25,87.78l-.178.02-.129-1.16c-.01-.116-.033-.235-.049-.334l.185-.02.033.218h0a.4.4,0,0,1,.307-.3,1.623,1.623,0,0,1,.181-.017l.016.172c-.036,0-.076,0-.112,0-.264.03-.383.235-.356.522Z" transform="translate(-94.314 112.981)" fill="#e30613"/>
    <path id="Path_15244" data-name="Path 15244" d="M208.588,86.876a.706.706,0,1,1-.782-.717.723.723,0,0,1,.782.717m-.766-.552a.561.561,0,0,0-.432.684c.03.278.211.611.571.572a.564.564,0,0,0,.432-.684c-.03-.274-.211-.611-.571-.572" transform="translate(-93.635 112.907)" fill="#e30613"/>
    <rect id="Rectangle_2239" data-name="Rectangle 2239" width="0.179" height="2.161" transform="translate(115.166 198.342) rotate(-6.353)" fill="#e30613"/>
    <path id="Path_15245" data-name="Path 15245" d="M208.1,86.969c.043.321.218.572.584.532a.45.45,0,0,0,.393-.406l.185-.02a.63.63,0,0,1-.617.595c-.445.05-.7-.311-.742-.72a.716.716,0,0,1,.581-.866c.5-.053.719.294.772.76Zm.944-.268a.479.479,0,0,0-.541-.453.5.5,0,0,0-.413.558Z" transform="translate(-92.012 112.731)" fill="#e30613"/>
    <path id="Path_15246" data-name="Path 15246" d="M208.752,87.615l-.178.02-.129-1.16c-.01-.116-.033-.231-.049-.334l.185-.02.03.218h.007a.388.388,0,0,1,.307-.3,1.626,1.626,0,0,1,.178-.016l.02.172c-.036,0-.076,0-.112,0-.264.03-.383.235-.356.522Z" transform="translate(-90.86 112.601)" fill="#e30613"/>
    <path id="Path_15247" data-name="Path 15247" d="M209.639,88a.628.628,0,0,1-.706-.535l.208-.02c.043.327.3.4.587.367.241-.03.5-.2.472-.472-.026-.215-.191-.3-.379-.337-.36-.079-.9-.132-.954-.595a.634.634,0,0,1,.62-.657.621.621,0,0,1,.756.436l-.208.023c-.033-.264-.284-.307-.5-.281s-.488.165-.459.43c.066.611,1.247.2,1.33.942.053.466-.333.651-.766.7" transform="translate(-89.783 111.963)" fill="#e30613"/>
    <path id="Path_15248" data-name="Path 15248" d="M209.855,88.26l-.178.02-.214-1.936a3.212,3.212,0,0,0-.053-.334l.185-.02.033.218.007.007a.6.6,0,0,1,.482-.327c.445-.05.657.33.7.717s-.082.819-.515.866a.617.617,0,0,1-.551-.221l-.007,0Zm.409-.952c.343-.036.386-.426.356-.7s-.182-.588-.521-.548-.449.34-.416.644c.036.34.191.651.581.608" transform="translate(-88.528 112.282)" fill="#e30613"/>
    <path id="Path_15249" data-name="Path 15249" d="M210.834,86.286a.3.3,0,0,0-.389-.281c-.188.02-.337.093-.337.3l-.191.023a.5.5,0,0,1,.511-.486c.333-.036.554.093.584.436l.079.707c.013.116.04.235.056.337l-.185.02-.03-.221-.007,0-.007.02a.58.58,0,0,1-.442.3.459.459,0,0,1-.548-.41.471.471,0,0,1,.251-.463,1.991,1.991,0,0,1,.673-.142Zm-.34.985c.389-.043.426-.373.376-.684-.251.036-.789.05-.749.423a.3.3,0,0,0,.373.261" transform="translate(-87.362 112.168)" fill="#e30613"/>
    <path id="Path_15250" data-name="Path 15250" d="M210.727,87.373l-.178.02-.129-1.156c-.01-.119-.033-.238-.049-.337l.182-.02.036.218h0a.384.384,0,0,1,.307-.3,1.611,1.611,0,0,1,.178-.017l.02.172c-.036,0-.076,0-.112,0-.264.03-.383.235-.356.522Z" transform="translate(-86.318 112.043)" fill="#e30613"/>
    <path id="Path_15251" data-name="Path 15251" d="M210.976,86.844l.653-.691.231-.023-.683.727.907.76-.228.023-.874-.724.089.81-.178.023-.234-2.151.178-.02Z" transform="translate(-85.655 111.578)" fill="#e30613"/>
    <path id="Path_15252" data-name="Path 15252" d="M212.035,86.153a.3.3,0,0,0-.389-.281c-.188.02-.337.092-.337.3l-.191.023c.013-.314.228-.453.515-.486.33-.036.551.093.581.436l.079.707c.01.119.036.235.053.337l-.185.02-.03-.221h-.007l-.007.023a.558.558,0,0,1-.439.294.455.455,0,0,1-.548-.406.46.46,0,0,1,.251-.463,1.973,1.973,0,0,1,.67-.142Zm-.343.985c.389-.043.429-.373.376-.684-.251.04-.785.046-.746.423a.3.3,0,0,0,.37.261" transform="translate(-84.6 111.862)" fill="#e30613"/>
    <path id="Path_15253" data-name="Path 15253" d="M212.076,85.659c.28-.033.531.04.591.354l-.195.02c-.04-.185-.211-.228-.4-.208-.168.02-.33.1-.31.278.026.221.31.168.733.268a.368.368,0,0,1,.29.321c.036.334-.261.522-.574.555a.5.5,0,0,1-.614-.39l.195-.02c.04.221.244.264.445.241s.38-.132.356-.34-.264-.225-.5-.251-.488-.073-.518-.35c-.033-.307.241-.446.5-.476" transform="translate(-83.555 111.748)" fill="#e30613"/>
    <path id="Path_15254" data-name="Path 15254" d="M212.526,85.608c.284-.03.531.043.591.354l-.195.023c-.036-.188-.211-.231-.4-.211-.165.02-.327.1-.31.281.026.218.31.165.733.264a.369.369,0,0,1,.29.321c.036.337-.261.522-.574.558a.5.5,0,0,1-.61-.393l.191-.02c.04.221.244.264.446.244s.379-.132.356-.344-.261-.221-.5-.248-.488-.076-.518-.35c-.033-.311.241-.449.5-.479" transform="translate(-82.521 111.634)" fill="#e30613"/>
    <path id="Path_15255" data-name="Path 15255" d="M212.674,86.443c.043.317.218.568.584.529a.45.45,0,0,0,.393-.406l.185-.02a.63.63,0,0,1-.617.595c-.446.05-.7-.311-.739-.72a.712.712,0,0,1,.577-.866c.5-.053.719.294.772.76Zm.944-.271a.481.481,0,0,0-.541-.453.5.5,0,0,0-.412.558Z" transform="translate(-81.484 111.512)" fill="#e30613"/>
    <path id="Path_15256" data-name="Path 15256" d="M202.282,86.679c.023.195.007.413-.36.453-.185.023-.386,0-.419-.225l.238-.026c.01.073.079.093.149.086.188-.023.162-.195.139-.314h0a.266.266,0,0,1-.221.142c-.228.026-.366-.172-.389-.377a.383.383,0,0,1,.3-.466.218.218,0,0,1,.238.092h0l-.01-.1.247-.03Zm-.422-.059c.135-.017.145-.159.132-.268s-.056-.258-.191-.241-.145.159-.132.281.056.245.191.228" transform="translate(-106.926 112.364)" fill="#e30613"/>
    <path id="Path_15257" data-name="Path 15257" d="M201.981,86.42c.013.106.04.208.168.192a.135.135,0,0,0,.139-.126l.224-.026c0,.208-.148.294-.343.317-.287.036-.419-.112-.452-.393a.4.4,0,0,1,.346-.489.359.359,0,0,1,.379.155.467.467,0,0,1,.059.145,1.235,1.235,0,0,1,.026.159Zm.271-.2c-.01-.092-.046-.172-.168-.159s-.129.1-.122.192Z" transform="translate(-106.23 112.296)" fill="#e30613"/>
    <path id="Path_15258" data-name="Path 15258" d="M202.476,85.9c-.178,0-.172.083-.145.244l.148-.017.02.165-.148.02.079.667-.251.03-.079-.671-.122.017-.02-.165.122-.017c-.033-.238-.03-.393.241-.423a.929.929,0,0,1,.135-.007Z" transform="translate(-105.665 111.97)" fill="#e30613"/>
    <path id="Path_15259" data-name="Path 15259" d="M202.65,86.977a.446.446,0,1,1,.383-.492.411.411,0,0,1-.383.492m-.35-1-.023-.2.172-.02.023.2Zm.33.836c.155-.02.162-.165.145-.3s-.056-.274-.208-.254-.162.162-.145.294.056.274.208.258m-.043-.869-.023-.2.168-.02.023.2Z" transform="translate(-105.199 111.917)" fill="#e30613"/>
    <path id="Path_15260" data-name="Path 15260" d="M202.686,85.845l.023.152,0,0a.259.259,0,0,1,.264-.192l.026.218-.109.013a.192.192,0,0,0-.112.076.3.3,0,0,0-.016.152l.049.413-.247.03-.079-.667c-.007-.033-.02-.1-.03-.165Z" transform="translate(-104.515 112.094)" fill="#e30613"/>
    <path id="Path_15261" data-name="Path 15261" d="M203.187,85.689l.251-.03.122,1.034c.007.056.016.109.026.165l-.247.03a.748.748,0,0,1-.02-.119l0,0a.284.284,0,0,1-.241.172c-.244.03-.383-.185-.409-.4a.407.407,0,0,1,.337-.489.293.293,0,0,1,.238.1h0Zm-.053,1.08c.135-.017.162-.182.145-.3s-.076-.271-.211-.254c-.158.02-.162.169-.145.3s.053.274.211.254" transform="translate(-104.047 111.765)" fill="#e30613"/>
    <path id="Path_15262" data-name="Path 15262" d="M203.241,86.272c.01.106.04.2.165.192a.141.141,0,0,0,.142-.126l.224-.026c0,.208-.152.294-.346.317-.284.033-.419-.112-.452-.393a.4.4,0,0,1,.35-.489.357.357,0,0,1,.376.155.467.467,0,0,1,.059.145,1.138,1.138,0,0,1,.026.159Zm.267-.2c-.01-.092-.046-.172-.165-.159s-.132.1-.122.192Z" transform="translate(-103.339 111.955)" fill="#e30613"/>
    <path id="Path_15263" data-name="Path 15263" d="M203.469,85.752l.023.152h0a.259.259,0,0,1,.264-.195l.026.218-.109.013a.192.192,0,0,0-.112.076.333.333,0,0,0-.016.152l.049.413-.247.03-.079-.667c-.007-.036-.02-.1-.03-.165Z" transform="translate(-102.715 111.88)" fill="#e30613"/>
    <path id="Path_15264" data-name="Path 15264" d="M203.578,85.9l-.02-.165.238-.119.03.254.188-.023.02.168-.188.02.046.39c.013.109.033.135.119.126l.079-.013.02.145a1.115,1.115,0,0,1-.195.05c-.195.023-.247-.076-.267-.254l-.049-.413-.168.02-.02-.165Z" transform="translate(-102.326 111.67)" fill="#e30613"/>
    <path id="Path_15265" data-name="Path 15265" d="M203.752,85.744l.264-.033.251.545h.007l.122-.588.238-.03-.2.872-.271.03Z" transform="translate(-101.54 111.716)" fill="#e30613"/>
    <path id="Path_15266" data-name="Path 15266" d="M204.553,86.5a.444.444,0,1,1,.383-.492.412.412,0,0,1-.383.492m-.02-.165c.152-.017.162-.165.145-.3s-.059-.274-.211-.254-.158.165-.145.3.059.271.211.254" transform="translate(-100.829 111.653)" fill="#e30613"/>
    <path id="Path_15267" data-name="Path 15267" d="M205.2,85.854l.063.542-.247.033-.059-.5c-.013-.093-.049-.188-.172-.175-.079.01-.139.086-.129.208l.063.5-.251.03-.1-.833.247-.03.01.1.007,0a.279.279,0,0,1,.241-.155.3.3,0,0,1,.294.152.493.493,0,0,1,.033.129" transform="translate(-100.13 111.563)" fill="#e30613"/>
    <path id="Path_15268" data-name="Path 15268" d="M210.757,87.941c-.01-.056-.066-.076-.122-.069s-.1.033-.092.089c.016.129.485,0,.521.311.02.182-.191.3-.343.32-.195.023-.373-.033-.4-.225l.231-.03a.12.12,0,0,0,.148.086c.066-.007.116-.04.109-.106s-.132-.083-.185-.086c-.162-.02-.313-.036-.337-.231-.02-.175.182-.278.327-.294.175-.02.333.026.366.208Z" transform="translate(-86.51 116.471)" fill="#e30613"/>
    <path id="Path_15269" data-name="Path 15269" d="M211.041,88.559a.446.446,0,1,1,.383-.5.416.416,0,0,1-.383.5m-.02-.169c.152-.016.162-.162.145-.3s-.059-.271-.211-.254-.158.165-.145.3.059.274.211.254" transform="translate(-85.909 116.397)" fill="#e30613"/>
    <path id="Path_15270" data-name="Path 15270" d="M211.317,87.875c-.01-.056-.066-.076-.122-.069s-.1.033-.092.089c.016.129.485,0,.521.311.02.182-.191.3-.343.32-.195.023-.373-.033-.4-.225l.231-.026c.013.063.073.093.148.083s.116-.04.106-.106-.129-.079-.181-.086c-.162-.02-.313-.036-.337-.231-.02-.175.181-.278.327-.294.175-.02.333.026.366.208Z" transform="translate(-85.224 116.319)" fill="#e30613"/>
    <path id="Path_15271" data-name="Path 15271" d="M211.24,87.822l-.02-.165.238-.119.03.254.188-.023.02.168-.188.02.046.39c.013.109.033.135.119.126l.083-.013.016.145a1.117,1.117,0,0,1-.195.05c-.195.023-.248-.076-.267-.254l-.05-.413-.168.02-.02-.165Z" transform="translate(-84.706 116.094)" fill="#e30613"/>
    <path id="Path_15272" data-name="Path 15272" d="M211.573,88.112c.01.106.04.208.165.192a.141.141,0,0,0,.142-.126l.224-.026c0,.208-.152.294-.346.317-.284.036-.419-.112-.452-.39a.405.405,0,0,1,.35-.492.352.352,0,0,1,.376.155.468.468,0,0,1,.059.145,1.222,1.222,0,0,1,.026.159Zm.267-.2c-.01-.089-.046-.172-.165-.159s-.132.1-.125.192Z" transform="translate(-84.177 116.194)" fill="#e30613"/>
    <path id="Path_15273" data-name="Path 15273" d="M211.838,87.7l0,.007a.293.293,0,0,1,.241-.159.306.306,0,0,1,.3.152c.016.05.026.1.033.129l.063.545-.251.03-.059-.5c-.01-.089-.046-.188-.172-.175-.076.01-.135.089-.125.208l.059.5-.247.03-.1-.833.248-.03Z" transform="translate(-83.535 116.107)" fill="#e30613"/>
    <path id="Path_15274" data-name="Path 15274" d="M212.52,88.265a.286.286,0,0,1-.241.159.3.3,0,0,1-.3-.152.548.548,0,0,1-.033-.132l-.063-.542.247-.03.059.5c.013.089.049.188.172.175.079-.01.139-.089.129-.211l-.059-.5.247-.03.083.684c.007.05.017.1.026.149l-.247.03Z" transform="translate(-82.834 116.018)" fill="#e30613"/>
    <path id="Path_15275" data-name="Path 15275" d="M212.33,87.693l-.02-.165.238-.119.03.254.188-.023.02.169-.188.02.046.387c.013.112.033.139.119.129l.083-.013.016.145a1.117,1.117,0,0,1-.195.05c-.195.02-.247-.076-.267-.254l-.049-.413-.168.02-.02-.165Z" transform="translate(-82.199 115.797)" fill="#e30613"/>
    <path id="Path_15276" data-name="Path 15276" d="M212.883,88.337a.444.444,0,1,1,.383-.492.409.409,0,0,1-.383.492m-.02-.165c.152-.017.162-.162.145-.3s-.056-.271-.211-.254-.158.165-.142.3.056.271.208.254" transform="translate(-81.666 115.893)" fill="#e30613"/>
    <path id="Path_15277" data-name="Path 15277" d="M213.363,87.311l.254-.03.122,1.034c.007.056.013.112.023.165l-.244.03a.354.354,0,0,1-.02-.116h-.007a.279.279,0,0,1-.238.172c-.247.03-.389-.185-.412-.4a.407.407,0,0,1,.337-.489.3.3,0,0,1,.241.1h0Zm-.049,1.08c.132-.017.162-.182.142-.3s-.073-.271-.208-.254c-.162.02-.162.169-.148.3s.056.274.214.254" transform="translate(-80.645 115.502)" fill="#e30613"/>
    <path id="Path_15278" data-name="Path 15278" d="M213.153,87.671a.227.227,0,0,1,.089-.221.5.5,0,0,1,.238-.083c.168-.02.363.02.393.271l.053.456a.677.677,0,0,0,.023.089l-.224.026c-.007-.036-.016-.076-.02-.109h0a.277.277,0,0,1-.241.165.245.245,0,0,1-.3-.218.3.3,0,0,1,.145-.287.807.807,0,0,1,.32-.083l-.01-.079a.106.106,0,0,0-.125-.089.118.118,0,0,0-.1.135Zm.241.314a.12.12,0,0,0,.135.106c.139-.017.125-.172.112-.268-.086.007-.264.026-.247.162" transform="translate(-79.923 115.69)" fill="#e30613"/>
    <rect id="Rectangle_2240" data-name="Rectangle 2240" width="228.582" height="0.192" transform="translate(0 163.835)" fill="#b2b2b2"/>
    <path id="Path_15279" data-name="Path 15279" d="M185.147,50.948l-.908-8.012,4.521-.512.076.667-3.8.43.32,2.828,3.669-.413.073.664-3.666.416.436,3.849Z" transform="translate(-146.414 12.149)" fill="#e30613"/>
    <path id="Path_15280" data-name="Path 15280" d="M191.318,45.66a2.632,2.632,0,1,1-5.187.585,2.632,2.632,0,1,1,5.187-.585m-2.858-2.049a2.1,2.1,0,0,0-1.61,2.554c.116,1.031.8,2.28,2.142,2.124A2.1,2.1,0,0,0,190.6,45.74c-.119-1.031-.8-2.283-2.138-2.128" transform="translate(-142.119 13.433)" fill="#e30613"/>
    <path id="Path_15281" data-name="Path 15281" d="M189.34,48.717l-.663.079-.492-4.322c-.049-.43-.132-.869-.195-1.246l.686-.079.125.819.026.02a1.921,1.921,0,0,1,1.623-1.209,1.973,1.973,0,0,1,2.217,2.032l.393,3.482-.663.076-.409-3.595a1.382,1.382,0,0,0-1.633-1.365c-1.1.122-1.491,1.1-1.379,2.1Z" transform="translate(-137.788 12.926)" fill="#e30613"/>
    <path id="Path_15282" data-name="Path 15282" d="M194.309,49.062l-.026-.04a2.267,2.267,0,0,1-1.788,1.246c-1.653.188-2.462-1.315-2.62-2.716-.162-1.441.3-3,1.95-3.185a2.243,2.243,0,0,1,2.023.793l.02-.02-.37-3.264.663-.079.766,6.763c.049.426.132.866.195,1.246l-.686.076Zm-2.3-4.1c-1.264.145-1.541,1.365-1.422,2.428.119,1.031.577,2.409,1.851,2.267,1.452-.165,1.759-1.424,1.617-2.689-.129-1.133-.749-2.154-2.046-2.006" transform="translate(-133.525 10.702)" fill="#e30613"/>
    <path id="Path_15283" data-name="Path 15283" d="M195.129,44.042a1.136,1.136,0,0,0-1.455-1.047c-.7.076-1.251.354-1.251,1.117l-.709.083c.036-1.163.838-1.692,1.9-1.814,1.231-.139,2.059.34,2.181,1.619l.3,2.643c.04.433.135.872.2,1.246l-.686.079-.116-.819h-.023l-.023.083a2.1,2.1,0,0,1-1.637,1.107,1.709,1.709,0,0,1-2.046-1.507,1.733,1.733,0,0,1,.937-1.738,7.593,7.593,0,0,1,2.488-.539Zm-1.267,3.674c1.452-.169,1.594-1.4,1.4-2.554-.94.142-2.933.188-2.775,1.583a1.12,1.12,0,0,0,1.379.971" transform="translate(-129.224 11.995)" fill="#e30613"/>
    <path id="Path_15284" data-name="Path 15284" d="M193.845,47.583l2.755-4.718-3.247.37-.069-.611,4.032-.459.069.611-2.732,4.715,3.224-.367.069.611-4.032.456Z" transform="translate(-125.613 11.55)" fill="#e30613"/>
    <path id="Path_15285" data-name="Path 15285" d="M195.683,42.188l-.775.089-.1-.833.775-.089Zm.125,1.616.63,5.567-.663.079-.63-5.574Z" transform="translate(-122.099 9.686)" fill="#e30613"/>
    <path id="Path_15286" data-name="Path 15286" d="M200.832,44.581a2.631,2.631,0,1,1-5.184.588,2.631,2.631,0,1,1,5.184-.588m-2.858-2.049a2.106,2.106,0,0,0-1.607,2.557c.115,1.028.8,2.276,2.138,2.128a2.106,2.106,0,0,0,1.607-2.557c-.119-1.031-.8-2.28-2.138-2.128" transform="translate(-120.236 10.947)" fill="#e30613"/>
    <path id="Path_15287" data-name="Path 15287" d="M198.855,47.637l-.663.076-.488-4.318c-.049-.433-.132-.869-.2-1.246l.686-.076.125.816.026.02a1.916,1.916,0,0,1,1.623-1.206,1.975,1.975,0,0,1,2.221,2.029l.389,3.482-.663.073L201.5,43.7a1.381,1.381,0,0,0-1.633-1.368c-1.1.126-1.492,1.1-1.379,2.1Z" transform="translate(-115.906 10.445)" fill="#e30613"/>
    <path id="Path_15288" data-name="Path 15288" d="M200.137,44.808c.158,1.186.812,2.121,2.174,1.969a1.673,1.673,0,0,0,1.459-1.513l.7-.079a2.35,2.35,0,0,1-2.293,2.227c-1.663.188-2.6-1.156-2.772-2.676s.5-3.043,2.148-3.231c1.858-.211,2.693,1.077,2.887,2.818Zm3.511-1.014a1.794,1.794,0,0,0-2.019-1.685,1.86,1.86,0,0,0-1.538,2.085Z" transform="translate(-111.605 9.977)" fill="#e30613"/>
    <path id="Path_15289" data-name="Path 15289" d="M207.3,42.211a1.7,1.7,0,0,0-2.039-1.163c-2.049.235-2.458,2.167-2.273,3.81s1.016,3.436,3.065,3.2a1.876,1.876,0,0,0,1.808-1.665l.779-.086a2.683,2.683,0,0,1-2.511,2.419c-2.425.278-3.666-1.56-3.917-3.783-.251-2.194.558-4.289,2.973-4.56,1.307-.149,2.613.311,2.894,1.738Z" transform="translate(-105.188 7.386)" fill="#e30613"/>
    <path id="Path_15290" data-name="Path 15290" d="M207.818,42.572a1.138,1.138,0,0,0-1.455-1.047c-.7.079-1.247.357-1.251,1.12l-.709.083c.036-1.163.842-1.695,1.907-1.814,1.228-.139,2.056.34,2.178,1.619l.3,2.64c.036.433.132.872.195,1.246l-.686.079-.115-.816-.023,0-.023.079A2.1,2.1,0,0,1,206.5,46.87a1.731,1.731,0,0,1-1.105-3.245,7.445,7.445,0,0,1,2.485-.539Zm-1.267,3.674c1.452-.165,1.594-1.394,1.4-2.551-.94.139-2.93.185-2.772,1.583a1.112,1.112,0,0,0,1.376.968" transform="translate(-100.042 8.615)" fill="#e30613"/>
    <path id="Path_15291" data-name="Path 15291" d="M207.967,40.725c1.056-.119,1.98.145,2.2,1.312l-.723.083c-.142-.691-.792-.852-1.478-.776-.62.069-1.224.387-1.152,1.041.1.823,1.162.621,2.729.985a1.363,1.363,0,0,1,1.089,1.189c.139,1.256-.957,1.953-2.135,2.085a1.856,1.856,0,0,1-2.283-1.45l.719-.079c.149.826.907.988,1.663.9.709-.083,1.412-.5,1.326-1.275-.089-.8-.983-.833-1.891-.932-.9-.116-1.815-.264-1.93-1.3-.132-1.156.888-1.678,1.861-1.787" transform="translate(-96.153 8.175)" fill="#e30613"/>
    <path id="Path_15292" data-name="Path 15292" d="M209.649,40.536c1.053-.122,1.98.145,2.2,1.312l-.719.083c-.145-.691-.792-.856-1.478-.78-.62.076-1.224.387-1.155,1.044.1.819,1.162.621,2.729.981a1.359,1.359,0,0,1,1.092,1.189c.142,1.256-.96,1.953-2.135,2.088A1.853,1.853,0,0,1,207.9,45l.719-.079c.148.826.907.985,1.663.9.709-.079,1.412-.5,1.327-1.272-.092-.8-.98-.833-1.891-.935s-1.815-.261-1.934-1.3c-.132-1.156.891-1.675,1.864-1.784" transform="translate(-92.291 7.736)" fill="#e30613"/>
    <path id="Path_15293" data-name="Path 15293" d="M212.856,42a1.14,1.14,0,0,0-1.455-1.051c-.7.079-1.251.357-1.254,1.123l-.706.079c.033-1.163.841-1.692,1.9-1.811,1.227-.142,2.059.337,2.181,1.616l.3,2.64c.04.436.135.876.2,1.249l-.686.076-.116-.816-.023,0-.023.079a2.1,2.1,0,0,1-1.637,1.107,1.709,1.709,0,0,1-2.046-1.507,1.726,1.726,0,0,1,.937-1.735,7.53,7.53,0,0,1,2.485-.542Zm-1.267,3.671c1.452-.162,1.594-1.394,1.393-2.547-.934.135-2.93.185-2.772,1.579a1.119,1.119,0,0,0,1.379.968" transform="translate(-88.456 7.303)" fill="#e30613"/>
    <path id="Path_15294" data-name="Path 15294" d="M216.512,46.518l-.026-.04a2.287,2.287,0,0,1-1.788,1.246c-1.653.185-2.462-1.318-2.617-2.716-.165-1.441.3-3,1.947-3.188a2.234,2.234,0,0,1,2.019.793l.02-.026-.366-3.261.663-.073.766,6.757c.049.433.132.872.195,1.246l-.686.079Zm-2.3-4.1c-1.264.142-1.541,1.368-1.419,2.432.112,1.034.574,2.405,1.848,2.26,1.449-.162,1.759-1.417,1.614-2.689-.125-1.13-.746-2.151-2.043-2" transform="translate(-82.458 4.841)" fill="#e30613"/>
    <path id="Path_15295" data-name="Path 15295" d="M214.718,40l-.772.086-.1-.829.775-.089Zm.125,1.616.63,5.571-.663.076-.63-5.574Z" transform="translate(-78.324 4.649)" fill="#e30613"/>
    <path id="Path_15296" data-name="Path 15296" d="M217.246,47.169l-.723.079-.907-8.009,2.617-.3a3.285,3.285,0,0,1,1.934.208,1.884,1.884,0,0,1-.337,3.476l0,.023c1.039.05,1.336.714,1.544,1.629.287,1.285.31,1.89.686,2.343l-.828.093a6.3,6.3,0,0,1-.465-1.632c-.376-1.811-.521-2.121-1.973-1.956l-1.986.225Zm1.033-4.662c1.02-.112,2.274-.324,2.118-1.688-.172-1.543-1.6-1.269-2.366-1.183l-1.617.185.323,2.865Z" transform="translate(-74.256 4.008)" fill="#e30613"/>
    <path id="Path_15297" data-name="Path 15297" d="M218.639,39.555l-.779.089-.1-.833.779-.086Zm.122,1.616.634,5.571-.667.076-.63-5.571Z" transform="translate(-69.314 3.629)" fill="#e30613"/>
    <path id="Path_15298" data-name="Path 15298" d="M220.468,39.308c1.053-.119,1.98.149,2.2,1.315l-.723.083c-.142-.691-.792-.852-1.478-.78-.62.073-1.224.387-1.152,1.041.092.823,1.162.624,2.726.985a1.367,1.367,0,0,1,1.092,1.193c.139,1.252-.96,1.949-2.135,2.085a1.858,1.858,0,0,1-2.287-1.447l.723-.086c.148.829.908.988,1.663.9.706-.079,1.409-.5,1.327-1.272-.092-.8-.983-.833-1.891-.932s-1.815-.268-1.93-1.3c-.132-1.153.888-1.675,1.861-1.787" transform="translate(-67.404 4.91)" fill="#e30613"/>
    <path id="Path_15299" data-name="Path 15299" d="M221.826,47.174l-.663.076-.729-6.446c-.04-.433-.132-.872-.2-1.246l.686-.079.125.816.026.02a2.233,2.233,0,0,1,1.792-1.222c1.65-.188,2.452,1.226,2.617,2.67.155,1.4-.3,3.043-1.914,3.228a2.292,2.292,0,0,1-2.056-.813l-.026,0Zm1.607-2.785c1.27-.145,1.435-1.593,1.32-2.623-.122-1.064-.69-2.194-1.953-2.049-1.293.145-1.67,1.279-1.544,2.412.145,1.265.726,2.422,2.178,2.26" transform="translate(-63.631 4.432)" fill="#e30613"/>
    <path id="Path_15300" data-name="Path 15300" d="M225.549,40.565a1.14,1.14,0,0,0-1.459-1.047c-.7.076-1.251.357-1.254,1.12l-.709.079c.04-1.16.842-1.692,1.907-1.811,1.231-.142,2.059.337,2.181,1.616l.3,2.643c.04.433.135.872.2,1.246l-.686.079-.116-.819-.023,0-.02.079a2.111,2.111,0,0,1-1.64,1.107,1.731,1.731,0,0,1-1.105-3.245,7.681,7.681,0,0,1,2.485-.542Zm-1.27,3.671c1.452-.162,1.594-1.391,1.392-2.551-.934.139-2.93.185-2.768,1.586a1.112,1.112,0,0,0,1.376.965" transform="translate(-59.282 3.99)" fill="#e30613"/>
    <path id="Path_15301" data-name="Path 15301" d="M225.166,44.621l-.663.076-.488-4.318c-.04-.436-.135-.869-.2-1.246l.69-.079.122.816h.023a1.437,1.437,0,0,1,1.142-1.127,6.267,6.267,0,0,1,.663-.066l.076.641c-.135.007-.284-.01-.416.007-.987.109-1.429.879-1.33,1.946Z" transform="translate(-55.398 3.516)" fill="#e30613"/>
    <path id="Path_15302" data-name="Path 15302" d="M225.742,40.045l.026.02a1.927,1.927,0,0,1,1.623-1.206,1.839,1.839,0,0,1,1.944,1.014,2.325,2.325,0,0,1,1.779-1.434,1.97,1.97,0,0,1,2.217,2.025l.4,3.486-.663.076-.409-3.595a1.384,1.384,0,0,0-1.637-1.365c-1.1.122-1.491,1.1-1.376,2.1l.36,3.208-.663.076-.406-3.595a1.387,1.387,0,0,0-1.637-1.368,1.69,1.69,0,0,0-1.376,2.1l.36,3.2-.667.076-.485-4.312c-.049-.436-.132-.876-.2-1.252l.69-.079Z" transform="translate(-52.836 2.924)" fill="#e30613"/>
    <path id="Path_15303" data-name="Path 15303" d="M228.709,38.414l-.775.089-.1-.833.779-.086Zm.125,1.616.63,5.571-.667.076-.627-5.574Z" transform="translate(-46.148 1)" fill="#e30613"/>
    <path id="Path_15304" data-name="Path 15304" d="M233.858,40.811a2.631,2.631,0,1,1-5.184.585,2.631,2.631,0,1,1,5.184-.585M231,38.762a2.1,2.1,0,0,0-1.607,2.554c.112,1.031.8,2.28,2.135,2.128a2.1,2.1,0,0,0,1.607-2.554c-.112-1.031-.8-2.28-2.135-2.128" transform="translate(-44.285 2.261)" fill="#e30613"/>
    <path id="Path_15305" data-name="Path 15305" d="M186.955,47.515a2.426,2.426,0,0,1-2.745-2.062l.808-.089c.168,1.275,1.155,1.54,2.274,1.411.934-.106,1.944-.77,1.825-1.83-.1-.833-.739-1.156-1.468-1.308-1.4-.3-3.5-.489-3.7-2.293a2.433,2.433,0,0,1,2.4-2.547c1.092-.129,2.564.093,2.933,1.675l-.808.093c-.139-1.024-1.105-1.183-1.957-1.087s-1.888.658-1.772,1.672c.271,2.369,4.851.76,5.177,3.638.208,1.807-1.29,2.541-2.96,2.729" transform="translate(-147.124 3.718)" fill="#e30613"/>
    <path id="Path_15306" data-name="Path 15306" d="M187.127,41.183l-1.152.132-.073-.634,1.152-.132-.139-1.232.657-.38.175,1.533,1.313-.145.073.631-1.317.152.442,3.876a.72.72,0,0,0,.888.73,2.029,2.029,0,0,0,.594-.139l.066.6a2.915,2.915,0,0,1-.69.185c-1.465.165-1.491-.78-1.581-1.563Z" transform="translate(-142.587 4.112)" fill="#e30613"/>
    <path id="Path_15307" data-name="Path 15307" d="M188.068,39.377l-.805.093-.1-.866.808-.089Zm.132,1.682.66,5.8-.693.079-.657-5.8Z" transform="translate(-139.688 3.142)" fill="#e30613"/>
    <path id="Path_15308" data-name="Path 15308" d="M189.658,46.981l-.587-5.161-1.162.135-.073-.638L189,41.186l-.139-1.236c-.116-.991.238-1.487,1.231-1.6a3.022,3.022,0,0,1,.67.05l.063.555a2.7,2.7,0,0,0-.432,0c-.944.109-.914.585-.785,1.411l.086.74,1.313-.149.069.634-1.313.149.587,5.161Z" transform="translate(-138.14 2.748)" fill="#e30613"/>
    <path id="Path_15309" data-name="Path 15309" d="M190.228,40.831l-1.152.132L189,40.325l1.152-.126-.139-1.239.657-.377.172,1.533,1.317-.149.073.634-1.313.149.439,3.879a.723.723,0,0,0,.891.73,2.01,2.01,0,0,0,.587-.139l.069.6a3.076,3.076,0,0,1-.69.182c-1.465.165-1.492-.773-1.581-1.56Z" transform="translate(-135.456 3.301)" fill="#e30613"/>
    <path id="Path_15310" data-name="Path 15310" d="M194.24,38.878l.693-.079.508,4.49c.053.449.139.909.2,1.3l-.716.083-.129-.852-.023-.017a2.013,2.013,0,0,1-1.693,1.252,2.058,2.058,0,0,1-2.31-2.111l-.409-3.621.693-.079.422,3.74a1.444,1.444,0,0,0,1.7,1.421c1.142-.132,1.551-1.15,1.435-2.187Z" transform="translate(-132.324 3.797)" fill="#e30613"/>
    <path id="Path_15311" data-name="Path 15311" d="M193.7,44.785l-.69.079-.511-4.487c-.049-.453-.139-.909-.2-1.3L193,39l.132.849.026.02a2.006,2.006,0,0,1,1.689-1.256,2.054,2.054,0,0,1,2.307,2.111l.412,3.625-.693.079-.422-3.74a1.446,1.446,0,0,0-1.7-1.421c-1.142.129-1.551,1.15-1.435,2.187Z" transform="translate(-127.897 3.319)" fill="#e30613"/>
    <path id="Path_15312" data-name="Path 15312" d="M198.353,38.432l.713-.079c.023.393.043.859.092,1.312l.393,3.473c.132,1.156.327,2.359-.884,3.106a2.637,2.637,0,0,1-1.284.413c-1.053.122-2.336-.1-2.471-1.3l.749-.086c.158.684,1,.823,1.742.737a1.7,1.7,0,0,0,1.571-1.8l-.122-1.087-.023,0a2.137,2.137,0,0,1-1.759,1.3c-1.739.2-2.64-1.044-2.821-2.64-.178-1.569.36-3.1,2.125-3.3a2.226,2.226,0,0,1,2.023.859l.02-.05Zm-1.838.677c-1.257.142-1.643,1.474-1.524,2.534s.808,2.283,2.075,2.138c1.327-.149,1.693-1.444,1.564-2.574-.125-1.11-.871-2.24-2.115-2.1" transform="translate(-123.469 2.769)" fill="#e30613"/>
    <path id="Path_15313" data-name="Path 15313" d="M200.153,46.017a2.425,2.425,0,0,1-2.745-2.062l.808-.089c.168,1.279,1.155,1.54,2.27,1.411.937-.106,1.947-.77,1.825-1.834-.092-.833-.736-1.153-1.468-1.305-1.4-.3-3.5-.489-3.7-2.29a2.441,2.441,0,0,1,2.4-2.554c1.1-.122,2.567.093,2.933,1.678l-.805.093c-.139-1.024-1.105-1.186-1.957-1.087s-1.888.658-1.772,1.675c.271,2.366,4.851.757,5.177,3.631.2,1.814-1.29,2.541-2.96,2.732" transform="translate(-116.779 0.263)" fill="#e30613"/>
    <path id="Path_15314" data-name="Path 15314" d="M203.169,39.445l.693-.079.508,4.494c.053.446.139.905.208,1.3l-.716.079-.129-.849-.026-.017a2,2,0,0,1-1.693,1.252,2.049,2.049,0,0,1-2.307-2.108l-.409-3.628.69-.076.426,3.737a1.442,1.442,0,0,0,1.7,1.421c1.138-.126,1.551-1.147,1.432-2.184Zm-3.174-1-.112-1.018.851-.1.115,1.011ZM202,38.209l-.112-1.014.851-.1.115,1.014Z" transform="translate(-111.783 -0.12)" fill="#e30613"/>
    <path id="Path_15315" data-name="Path 15315" d="M205.857,44.352l-.03-.043a2.369,2.369,0,0,1-1.861,1.3c-1.716.195-2.561-1.371-2.726-2.825-.168-1.5.313-3.122,2.033-3.317a2.324,2.324,0,0,1,2.1.826l.02-.026-.383-3.393.69-.079.8,7.031c.049.449.139.905.2,1.3l-.716.083Zm-2.4-4.266c-1.313.152-1.6,1.424-1.475,2.528.119,1.077.6,2.508,1.924,2.356,1.508-.172,1.828-1.484,1.68-2.8-.132-1.18-.779-2.24-2.128-2.088" transform="translate(-107.387 -0.827)" fill="#e30613"/>
    <path id="Path_15316" data-name="Path 15316" d="M204.209,39.243l-1.155.132-.073-.634,1.152-.132L204,37.376l.653-.38.175,1.533,1.313-.145.073.631-1.313.152.439,3.879a.722.722,0,0,0,.888.727,2.111,2.111,0,0,0,.594-.135l.066.6a3.033,3.033,0,0,1-.69.185c-1.465.169-1.492-.776-1.581-1.563Z" transform="translate(-103.31 -0.357)" fill="#e30613"/>
    <path id="Path_15317" data-name="Path 15317" d="M205.15,37.44l-.805.093-.1-.866.808-.093Zm.132,1.682.657,5.8-.69.076-.657-5.792Z" transform="translate(-100.411 -1.33)" fill="#e30613"/>
    <path id="Path_15318" data-name="Path 15318" d="M206.509,43.326l-.69.076-.508-4.49c-.043-.449-.139-.909-.208-1.3l.716-.083.132.852.023,0a1.5,1.5,0,0,1,1.185-1.176c.228-.036.459-.053.693-.069l.076.671c-.142,0-.3-.013-.436,0-1.023.122-1.482.919-1.379,2.032Z" transform="translate(-98.433 -0.03)" fill="#e30613"/>
    <path id="Path_15319" data-name="Path 15319" d="M211.673,39.8c.172,1.523-.508,3.169-2.353,3.377s-2.871-1.239-3.046-2.762.5-3.169,2.349-3.38,2.874,1.242,3.049,2.765M208.7,37.669c-1.4.159-1.8,1.583-1.673,2.656s.828,2.372,2.224,2.214,1.8-1.583,1.673-2.656-.832-2.372-2.224-2.214" transform="translate(-95.797 -0.323)" fill="#e30613"/>
    <rect id="Rectangle_2241" data-name="Rectangle 2241" width="0.695" height="8.386" transform="translate(116.693 33.875) rotate(-6.551)" fill="#e30613"/>
    <path id="Path_15320" data-name="Path 15320" d="M209.784,40.167c.162,1.232.845,2.207,2.26,2.049a1.737,1.737,0,0,0,1.518-1.579l.726-.083a2.445,2.445,0,0,1-2.389,2.319c-1.729.2-2.706-1.2-2.884-2.782s.518-3.169,2.237-3.364c1.934-.218,2.8,1.12,3,2.931Zm3.653-1.057a1.867,1.867,0,0,0-2.105-1.748,1.93,1.93,0,0,0-1.6,2.171Z" transform="translate(-89.499 -1.03)" fill="#e30613"/>
    <path id="Path_15321" data-name="Path 15321" d="M212.332,42.663l-.69.079-.508-4.49c-.043-.449-.142-.909-.208-1.3l.716-.079.129.852.023,0a1.5,1.5,0,0,1,1.185-1.173,5.457,5.457,0,0,1,.7-.069l.076.671c-.142,0-.3-.013-.436,0-1.026.116-1.482.919-1.379,2.029Z" transform="translate(-85.041 -1.551)" fill="#e30613"/>
    <path id="Path_15322" data-name="Path 15322" d="M215.769,44.15a2.42,2.42,0,0,1-2.742-2.062l.805-.093c.168,1.275,1.158,1.54,2.273,1.414.934-.106,1.944-.773,1.825-1.834-.1-.829-.739-1.156-1.468-1.308-1.4-.294-3.5-.486-3.706-2.29a2.443,2.443,0,0,1,2.4-2.551c1.1-.126,2.567.093,2.933,1.675l-.808.093c-.139-1.024-1.1-1.183-1.954-1.087-.868.1-1.891.661-1.775,1.678.271,2.366,4.851.757,5.177,3.631.208,1.811-1.287,2.541-2.96,2.732" transform="translate(-80.866 -4.042)" fill="#e30613"/>
    <path id="Path_15323" data-name="Path 15323" d="M216.61,45.157l-.69.079-.851-7.507c-.04-.453-.139-.905-.208-1.3l.713-.079.132.849.03.02a2.31,2.31,0,0,1,1.861-1.275c1.719-.2,2.551,1.275,2.722,2.775.165,1.457-.307,3.169-1.99,3.364a2.39,2.39,0,0,1-2.138-.846l-.026,0Zm1.577-3.7c1.326-.152,1.495-1.655,1.373-2.729-.129-1.11-.716-2.28-2.029-2.128-1.35.149-1.739,1.328-1.607,2.5.152,1.315.752,2.524,2.264,2.352" transform="translate(-75.992 -2.819)" fill="#e30613"/>
    <path id="Path_15324" data-name="Path 15324" d="M220.384,37.477a1.186,1.186,0,0,0-1.515-1.09c-.726.086-1.3.373-1.3,1.166l-.736.083c.036-1.206.874-1.761,1.977-1.883,1.28-.149,2.145.35,2.273,1.682l.31,2.749c.04.449.139.905.2,1.3l-.716.076-.119-.849-.023,0-.026.083a2.168,2.168,0,0,1-1.7,1.153,1.779,1.779,0,0,1-2.128-1.569,1.808,1.808,0,0,1,.973-1.807,7.855,7.855,0,0,1,2.587-.558Zm-1.32,3.823c1.511-.172,1.656-1.454,1.449-2.656-.973.145-3.046.195-2.881,1.649a1.159,1.159,0,0,0,1.432,1.008" transform="translate(-71.464 -3.28)" fill="#e30613"/>
    <path id="Path_15325" data-name="Path 15325" d="M219.991,41.7l-.693.076-.511-4.49c-.036-.453-.139-.909-.2-1.3l.713-.083.135.852.023-.007a1.49,1.49,0,0,1,1.181-1.176c.231-.036.462-.053.693-.066l.079.671c-.142.007-.294-.017-.436,0-1.023.116-1.482.915-1.379,2.029Z" transform="translate(-67.428 -3.774)" fill="#e30613"/>
    <path id="Path_15326" data-name="Path 15326" d="M220.949,39.632l2.534-2.683.888-.1-2.646,2.835,3.531,2.934-.874.093-3.4-2.789.356,3.139-.693.079L219.7,34.8l.693-.076Z" transform="translate(-64.868 -5.582)" fill="#e30613"/>
    <path id="Path_15327" data-name="Path 15327" d="M225.039,36.95a1.184,1.184,0,0,0-1.511-1.094c-.729.086-1.3.377-1.307,1.17l-.736.083c.036-1.209.874-1.758,1.98-1.883,1.28-.152,2.141.35,2.27,1.685l.31,2.742c.04.453.139.909.2,1.3l-.713.086-.122-.852-.023,0-.023.086a2.176,2.176,0,0,1-1.7,1.15,1.782,1.782,0,0,1-2.132-1.569,1.8,1.8,0,0,1,.973-1.807,7.961,7.961,0,0,1,2.587-.562Zm-1.317,3.819c1.511-.169,1.653-1.447,1.449-2.653-.973.149-3.046.2-2.884,1.649a1.161,1.161,0,0,0,1.435,1" transform="translate(-60.759 -4.498)" fill="#e30613"/>
    <path id="Path_15328" data-name="Path 15328" d="M225.2,35.026c1.1-.126,2.059.152,2.293,1.368l-.752.083c-.152-.72-.825-.889-1.538-.806-.647.073-1.274.4-1.2,1.084.1.852,1.208.648,2.834,1.021a1.419,1.419,0,0,1,1.135,1.236c.145,1.308-1,2.032-2.217,2.174a1.931,1.931,0,0,1-2.376-1.507l.746-.086c.158.859.947,1.024,1.732.935.736-.083,1.472-.515,1.376-1.325-.092-.833-1.016-.869-1.967-.968-.934-.112-1.887-.278-2.01-1.348-.135-1.2.924-1.745,1.94-1.86" transform="translate(-56.712 -4.959)" fill="#e30613"/>
    <path id="Path_15329" data-name="Path 15329" d="M226.939,34.828c1.1-.126,2.062.152,2.293,1.368l-.749.083c-.152-.72-.825-.885-1.541-.806-.643.073-1.274.4-1.195,1.084.092.852,1.2.644,2.834,1.021a1.423,1.423,0,0,1,1.135,1.239c.145,1.305-1,2.032-2.221,2.171a1.932,1.932,0,0,1-2.376-1.507l.752-.086c.152.859.944,1.028,1.726.938.739-.083,1.475-.519,1.379-1.328-.092-.829-1.02-.866-1.967-.968-.934-.119-1.887-.278-2.01-1.351-.135-1.2.924-1.741,1.937-1.857" transform="translate(-52.697 -5.416)" fill="#e30613"/>
    <path id="Path_15330" data-name="Path 15330" d="M227.53,38.056c.165,1.236.845,2.207,2.264,2.045a1.733,1.733,0,0,0,1.515-1.573l.726-.083a2.442,2.442,0,0,1-2.386,2.316c-1.732.2-2.706-1.2-2.884-2.782s.515-3.169,2.231-3.364c1.937-.221,2.8,1.117,3.006,2.934ZM231.183,37a1.866,1.866,0,0,0-2.1-1.748,1.931,1.931,0,0,0-1.6,2.171Z" transform="translate(-48.679 -5.895)" fill="#e30613"/>
    <path id="Path_15331" data-name="Path 15331" d="M187.225,39.04c.089.757.02,1.6-1.4,1.754-.716.083-1.5,0-1.623-.866l.914-.109c.046.287.317.37.581.337.736-.086.63-.757.535-1.219h-.01a1.033,1.033,0,0,1-.858.552,1.464,1.464,0,0,1-1.515-1.454,1.5,1.5,0,0,1,1.175-1.821.841.841,0,0,1,.917.37l.013,0-.043-.373.964-.112Zm-1.64-.231c.528-.059.561-.615.511-1.034-.056-.476-.218-1-.746-.945s-.561.618-.5,1.094c.049.42.211.948.739.885" transform="translate(-147.345 -2.431)" fill="#e30613"/>
    <path id="Path_15332" data-name="Path 15332" d="M186.057,38.037c.046.42.155.806.65.747a.531.531,0,0,0,.541-.489l.871-.1c.01.806-.584,1.147-1.336,1.232-1.109.132-1.627-.439-1.755-1.523A1.571,1.571,0,0,1,186.377,36a1.394,1.394,0,0,1,1.468.611,1.756,1.756,0,0,1,.231.562,5.138,5.138,0,0,1,.1.618Zm1.046-.776c-.043-.357-.178-.671-.65-.615-.442.05-.5.39-.472.75Z" transform="translate(-144.638 -2.696)" fill="#e30613"/>
    <path id="Path_15333" data-name="Path 15333" d="M187.977,36.033c-.693,0-.67.314-.568.952l.587-.069.076.644-.587.069.307,2.59-.967.112-.307-2.59-.482.056-.076-.641.485-.059c-.135-.919-.122-1.52.927-1.645a3.192,3.192,0,0,1,.535-.017Z" transform="translate(-142.454 -3.964)" fill="#e30613"/>
    <path id="Path_15334" data-name="Path 15334" d="M188.654,40.2a1.727,1.727,0,1,1,1.485-1.916,1.6,1.6,0,0,1-1.485,1.916M187.3,36.316l-.089-.763.657-.079.089.767Zm1.277,3.238c.594-.069.624-.638.564-1.15s-.224-1.061-.818-.991-.62.638-.561,1.153.224,1.057.815.988m-.168-3.367-.092-.767.657-.076.092.767Z" transform="translate(-140.64 -4.161)" fill="#e30613"/>
    <path id="Path_15335" data-name="Path 15335" d="M188.787,35.811l.089.585h.013a1.018,1.018,0,0,1,1.026-.757l.1.856-.419.05a.7.7,0,0,0-.442.3,1.124,1.124,0,0,0-.059.585l.188,1.606-.957.116-.314-2.59c-.016-.135-.069-.406-.109-.641Z" transform="translate(-137.981 -3.484)" fill="#e30613"/>
    <path id="Path_15336" data-name="Path 15336" d="M190.74,35.2l.96-.116.478,4.011c.026.211.069.43.106.641l-.967.116c-.03-.155-.059-.3-.079-.456h-.013a1.077,1.077,0,0,1-.924.674c-.947.112-1.495-.72-1.594-1.55a1.575,1.575,0,0,1,1.31-1.9,1.1,1.1,0,0,1,.917.37h.013Zm-.211,4.19c.518-.063.617-.71.568-1.153s-.3-1.051-.818-.988c-.624.073-.63.658-.574,1.153s.2,1.061.825.988" transform="translate(-136.172 -4.758)" fill="#e30613"/>
    <path id="Path_15337" data-name="Path 15337" d="M190.934,37.462c.049.416.152.8.647.747a.537.537,0,0,0,.544-.492l.868-.1c.013.809-.581,1.146-1.333,1.239-1.109.129-1.627-.443-1.755-1.526a1.563,1.563,0,0,1,1.35-1.9,1.387,1.387,0,0,1,1.468.608,1.833,1.833,0,0,1,.231.562,5.082,5.082,0,0,1,.1.615Zm1.043-.783c-.043-.35-.178-.667-.647-.611-.445.05-.5.393-.475.747Z" transform="translate(-133.423 -4.025)" fill="#e30613"/>
    <path id="Path_15338" data-name="Path 15338" d="M191.822,35.451l.089.585.013,0a1.019,1.019,0,0,1,1.026-.753l.1.856-.419.05a.71.71,0,0,0-.442.294,1.178,1.178,0,0,0-.059.588l.188,1.609-.96.112-.313-2.594c-.013-.132-.066-.4-.106-.638Z" transform="translate(-131.001 -4.313)" fill="#e30613"/>
    <path id="Path_15339" data-name="Path 15339" d="M192.248,36.029l-.076-.641.924-.459.119.985.726-.086.076.644-.726.086.178,1.5c.05.426.129.535.462.5.1-.013.2-.04.307-.059l.066.568a3.521,3.521,0,0,1-.746.188c-.756.089-.964-.284-1.046-.988l-.188-1.593-.65.076-.076-.644Z" transform="translate(-129.491 -5.12)" fill="#e30613"/>
    <path id="Path_15340" data-name="Path 15340" d="M192.923,35.41l1.023-.122.98,2.108.013,0,.482-2.276.921-.109-.789,3.373-1.056.126Z" transform="translate(-126.445 -4.941)" fill="#e30613"/>
    <path id="Path_15341" data-name="Path 15341" d="M196.025,38.344a1.727,1.727,0,1,1,1.485-1.916,1.6,1.6,0,0,1-1.485,1.916m-.076-.644c.594-.069.624-.638.564-1.153s-.224-1.057-.818-.988-.62.638-.561,1.153.224,1.057.815.988" transform="translate(-123.689 -5.191)" fill="#e30613"/>
    <path id="Path_15342" data-name="Path 15342" d="M198.526,35.843l.247,2.108-.964.116-.231-1.946c-.05-.347-.191-.73-.667-.674-.3.036-.535.337-.492.809l.231,1.949-.967.112-.383-3.235.957-.116.046.373.017.02a1.115,1.115,0,0,1,.934-.611,1.181,1.181,0,0,1,1.145.585,2.43,2.43,0,0,1,.125.509" transform="translate(-120.972 -5.545)" fill="#e30613"/>
    <path id="Path_15343" data-name="Path 15343" d="M220.1,43.939c-.04-.218-.257-.287-.475-.264-.264.033-.376.126-.35.337.059.509,1.871,0,2.013,1.213.082.707-.733,1.166-1.333,1.236-.756.089-1.445-.129-1.548-.869l.9-.106a.47.47,0,0,0,.574.33c.264-.033.449-.162.419-.416s-.5-.314-.7-.334c-.637-.076-1.228-.142-1.317-.9-.079-.681.7-1.071,1.27-1.14.683-.083,1.29.1,1.422.806Z" transform="translate(-68.142 13.502)" fill="#e30613"/>
    <path id="Path_15344" data-name="Path 15344" d="M221.194,46.33a1.727,1.727,0,1,1,1.485-1.913,1.6,1.6,0,0,1-1.485,1.913m-.076-.644c.594-.073.624-.634.564-1.153s-.224-1.057-.815-.988-.624.638-.561,1.153.221,1.057.812.988" transform="translate(-65.807 13.209)" fill="#e30613"/>
    <path id="Path_15345" data-name="Path 15345" d="M222.265,43.679c-.04-.218-.254-.287-.472-.264-.264.033-.379.126-.353.337.059.509,1.871,0,2.016,1.213.086.71-.739,1.166-1.336,1.236-.752.089-1.445-.129-1.544-.869l.894-.106a.472.472,0,0,0,.574.33c.264-.033.449-.162.422-.416s-.508-.314-.706-.334c-.637-.076-1.228-.142-1.313-.9-.082-.674.7-1.067,1.267-1.133.683-.083,1.294.1,1.422.8Z" transform="translate(-63.159 12.912)" fill="#e30613"/>
    <path id="Path_15346" data-name="Path 15346" d="M221.971,43.473l-.073-.634.921-.463.119.985.726-.086.076.641-.726.093.175,1.5c.053.423.132.535.465.492.1-.013.2-.033.307-.056l.066.572a3.767,3.767,0,0,1-.749.185c-.752.089-.957-.284-1.043-.991l-.191-1.589-.647.079-.076-.648Z" transform="translate(-61.136 12.038)" fill="#e30613"/>
    <path id="Path_15347" data-name="Path 15347" d="M223.258,44.6c.049.416.152.8.647.743a.531.531,0,0,0,.544-.486l.871-.106c.01.81-.584,1.15-1.336,1.239-1.109.132-1.627-.443-1.755-1.526a1.567,1.567,0,0,1,1.35-1.9,1.389,1.389,0,0,1,1.468.611,1.8,1.8,0,0,1,.231.562,4.981,4.981,0,0,1,.1.615Zm1.043-.776c-.043-.357-.178-.674-.647-.618-.445.053-.5.393-.472.747Z" transform="translate(-59.086 12.423)" fill="#e30613"/>
    <path id="Path_15348" data-name="Path 15348" d="M224.294,42.993l.016.02a1.108,1.108,0,0,1,.934-.611,1.181,1.181,0,0,1,1.145.585,2.4,2.4,0,0,1,.125.512l.247,2.1-.964.116-.234-1.946c-.046-.347-.188-.733-.667-.674-.3.036-.531.337-.488.809l.228,1.949-.964.112-.383-3.235.96-.116Z" transform="translate(-56.605 12.086)" fill="#e30613"/>
    <path id="Path_15349" data-name="Path 15349" d="M226.936,45.2a1.125,1.125,0,0,1-.94.615,1.178,1.178,0,0,1-1.145-.588,2.229,2.229,0,0,1-.125-.509l-.251-2.1.967-.116.231,1.943c.046.344.191.734.667.677.3-.036.535-.344.492-.816L226.6,42.36l.964-.112.313,2.656c.03.195.066.387.106.575l-.964.116Z" transform="translate(-53.885 11.744)" fill="#e30613"/>
    <path id="Path_15350" data-name="Path 15350" d="M226.195,42.978l-.073-.638.924-.466.115.988.729-.086.076.644-.729.089.178,1.5c.053.426.129.535.462.5.106-.013.208-.036.31-.056l.066.568a3.821,3.821,0,0,1-.749.185c-.756.089-.96-.284-1.043-.988l-.188-1.593-.653.079-.073-.648Z" transform="translate(-51.415 10.882)" fill="#e30613"/>
    <path id="Path_15351" data-name="Path 15351" d="M228.35,45.483a1.727,1.727,0,1,1,1.482-1.913,1.6,1.6,0,0,1-1.482,1.913m-.076-.644c.594-.069.624-.638.561-1.153s-.224-1.057-.815-.988-.624.634-.561,1.153.221,1.057.815.988" transform="translate(-49.357 11.258)" fill="#e30613"/>
    <path id="Path_15352" data-name="Path 15352" d="M230.216,41.49l.964-.112.472,4.011c.026.211.073.43.112.641l-.967.112a4.331,4.331,0,0,1-.079-.453H230.7a1.077,1.077,0,0,1-.927.671c-.947.116-1.495-.717-1.59-1.55a1.569,1.569,0,0,1,1.307-1.893,1.1,1.1,0,0,1,.921.367h.013ZM230,45.683c.521-.063.62-.71.568-1.153s-.3-1.051-.822-.988c-.617.073-.627.654-.568,1.153s.2,1.061.822.988" transform="translate(-45.385 9.739)" fill="#e30613"/>
    <path id="Path_15353" data-name="Path 15353" d="M229.392,42.893a.883.883,0,0,1,.343-.859,1.942,1.942,0,0,1,.927-.32c.65-.073,1.406.076,1.521,1.051l.211,1.768a3.309,3.309,0,0,0,.086.347l-.868.1a3.1,3.1,0,0,1-.083-.426h-.017a1.052,1.052,0,0,1-.927.644.959.959,0,0,1-1.171-.852,1.138,1.138,0,0,1,.568-1.107,3.118,3.118,0,0,1,1.241-.324l-.036-.3a.415.415,0,0,0-.492-.35.443.443,0,0,0-.376.519Zm.934,1.216a.455.455,0,0,0,.525.406c.535-.063.485-.657.442-1.037-.34.033-1.03.109-.967.631" transform="translate(-42.591 10.474)" fill="#e30613"/>
    <path id="Path_15354" data-name="Path 15354" d="M301.717,74.891,185.5,88.15l-4.356-38.258,6.877-.786.307,2.686-4.194.479,3.742,32.888L301.41,72.2Zm46.322-44.04,4.352,38.261-7.091.809-.307-2.689,4.412-.5-3.742-32.885L233.208,46.674l-.307-2.686L348.039,30.851" transform="translate(-153.53 -14.516)" fill="#e30613"/>
    <path id="Path_15355" data-name="Path 15355" d="M224.958,80.017V77.242h.4L226.4,79.66l1.063-2.419h.379v2.775h-.248V77.453h-.01l-1.059,2.564h-.248l-1.059-2.551h-.007v2.551Z" transform="translate(-52.771 92.371)" fill="#b2b2b2"/>
    <path id="Path_15356" data-name="Path 15356" d="M226.3,77.529h-.267v-.287h.267Zm-.017,2.488h-.231v-1.93h.231Z" transform="translate(-50.302 92.371)" fill="#b2b2b2"/>
    <path id="Path_15357" data-name="Path 15357" d="M226.54,79.467h-.231V77.973c0-.152-.01-.3-.02-.436h.238l.013.284.007.007a.662.662,0,0,1,.6-.347.678.678,0,0,1,.68.78v1.206H227.6V78.221a.476.476,0,0,0-.508-.529c-.379,0-.551.317-.551.664Z" transform="translate(-49.711 92.922)" fill="#b2b2b2"/>
    <path id="Path_15358" data-name="Path 15358" d="M228.361,79.73l-.01-.013a.782.782,0,0,1-.66.357c-.571,0-.789-.545-.789-1.031s.218-1.014.789-1.014a.764.764,0,0,1,.66.35l.01-.007v-1.13h.231v2.339c0,.149.01.3.016.433h-.238Zm-.63-1.49c-.439,0-.581.406-.581.776s.106.846.548.846c.5,0,.653-.42.653-.859,0-.39-.172-.763-.62-.763" transform="translate(-48.299 92.371)" fill="#b2b2b2"/>
    <path id="Path_15359" data-name="Path 15359" d="M227.8,78.557c.01.41.2.757.67.757a.571.571,0,0,0,.554-.463h.244a.812.812,0,0,1-.871.674c-.577,0-.845-.5-.845-1.021a.913.913,0,0,1,.858-1.024c.647,0,.881.472.881,1.077Zm1.241-.211a.618.618,0,0,0-.627-.654.637.637,0,0,0-.6.654Z" transform="translate(-46.802 92.92)" fill="#b2b2b2"/>
    <path id="Path_15360" data-name="Path 15360" d="M228.968,77.48c.363,0,.67.126.7.535h-.251c-.023-.244-.238-.324-.475-.324-.214,0-.432.083-.432.311,0,.284.37.258.894.443a.471.471,0,0,1,.327.449c0,.433-.406.631-.812.631-.333,0-.716-.159-.726-.585h.251c.02.287.271.373.535.373.244,0,.5-.116.5-.387s-.3-.32-.61-.39-.61-.162-.61-.519c0-.4.37-.539.706-.539" transform="translate(-45.325 92.92)" fill="#b2b2b2"/>
    <path id="Path_15361" data-name="Path 15361" d="M229.135,78.067h-.383v-.211h.383v-.41l.231-.1v.512h.436v.211h-.436v1.292a.238.238,0,0,0,.264.271.673.673,0,0,0,.2-.023v.2a.953.953,0,0,1-.234.033c-.488,0-.462-.311-.462-.572Z" transform="translate(-44.047 92.604)" fill="#b2b2b2"/>
    <path id="Path_15362" data-name="Path 15362" d="M230.639,77.536h.238c-.01.132-.02.287-.02.436v1.156c0,.383.02.786-.406.988a.88.88,0,0,1-.439.089c-.35,0-.762-.119-.762-.519h.247c.026.228.3.307.544.307a.56.56,0,0,0,.584-.535V79.1h-.007a.706.706,0,0,1-.627.36c-.577,0-.828-.443-.828-.971s.234-1.008.822-1.008a.74.74,0,0,1,.634.357l.007-.013Zm-.627.155c-.422,0-.6.423-.6.776s.178.78.6.78.607-.41.607-.786-.2-.77-.614-.77" transform="translate(-43.099 92.92)" fill="#b2b2b2"/>
    <path id="Path_15363" data-name="Path 15363" d="M230.1,79.468h-.231V77.974c0-.152-.01-.3-.02-.436h.241l.01.284h.007a.5.5,0,0,1,.436-.34c.076,0,.152,0,.231,0v.221c-.046,0-.1-.013-.142-.013-.343,0-.525.245-.531.615Z" transform="translate(-41.531 92.921)" fill="#b2b2b2"/>
    <path id="Path_15364" data-name="Path 15364" d="M231.993,79.013a.905.905,0,1,1-.9-1.024.924.924,0,0,1,.9,1.024m-.9-.813c-.465,0-.65.456-.65.813s.185.81.65.81.65-.453.65-.81-.185-.813-.65-.813m-.475-.942h.284V77.6h-.284Zm.667,0h.284V77.6h-.284Z" transform="translate(-40.721 92.411)" fill="#b2b2b2"/>
    <path id="Path_15365" data-name="Path 15365" d="M231.126,80.057h-.231V78.1c0-.519.241-.876.789-.876a.625.625,0,0,1,.69.595c0,.3-.452.5-.452.691,0,.377.828.36.828.955a.625.625,0,0,1-.66.648.581.581,0,0,1-.624-.6h.251a.351.351,0,0,0,.366.387.38.38,0,0,0,.416-.426c0-.439-.828-.433-.828-.938,0-.33.452-.459.452-.724s-.241-.377-.465-.377c-.422,0-.528.406-.531.743Z" transform="translate(-39.118 92.332)" fill="#b2b2b2"/>
    <path id="Path_15366" data-name="Path 15366" d="M231.81,78.557c.01.41.2.757.67.757a.571.571,0,0,0,.554-.463h.241a.8.8,0,0,1-.868.674c-.577,0-.845-.5-.845-1.021a.913.913,0,0,1,.858-1.024c.647,0,.881.472.881,1.077Zm1.241-.211a.618.618,0,0,0-.627-.654.637.637,0,0,0-.6.654Z" transform="translate(-37.582 92.92)" fill="#b2b2b2"/>
    <path id="Path_15367" data-name="Path 15367" d="M224.369,78.933h.238c-.01.132-.02.287-.02.436v1.156c0,.383.02.786-.406.988a.888.888,0,0,1-.439.089c-.35,0-.762-.119-.762-.519h.247c.026.228.3.307.544.307a.561.561,0,0,0,.584-.535V80.5h-.007a.71.71,0,0,1-.627.36c-.577,0-.828-.443-.828-.971s.234-1.008.822-1.008a.741.741,0,0,1,.634.357l.007-.013Zm-.63.155c-.419,0-.594.423-.594.776s.178.78.6.78c.442,0,.611-.41.611-.786a.69.69,0,0,0-.617-.77" transform="translate(-57.518 96.139)" fill="#b2b2b2"/>
    <path id="Path_15368" data-name="Path 15368" d="M223.823,80.864h-.231V79.37c0-.152-.01-.3-.016-.436h.238l.01.284h.007a.5.5,0,0,1,.436-.34c.076,0,.152,0,.231,0V79.1c-.046,0-.1-.013-.142-.013-.343,0-.525.244-.531.615Z" transform="translate(-55.95 96.138)" fill="#b2b2b2"/>
    <path id="Path_15369" data-name="Path 15369" d="M225.175,79.5c-.02-.317-.181-.416-.455-.416-.241,0-.442.073-.472.334H224a.636.636,0,0,1,.719-.545c.429,0,.693.195.683.638v.915c0,.149.013.3.02.436h-.238l-.007-.287h-.01l-.01.03a.729.729,0,0,1-.6.314.588.588,0,0,1-.64-.595.6.6,0,0,1,.389-.558,2.624,2.624,0,0,1,.868-.089Zm-.574,1.206c.5,0,.6-.416.574-.819-.323.013-1.006-.05-1.006.436a.383.383,0,0,0,.432.383" transform="translate(-55.163 96.139)" fill="#b2b2b2"/>
    <path id="Path_15370" data-name="Path 15370" d="M224.792,80.863h-.231V79.369c0-.152-.01-.3-.017-.436h.238l.01.284.007.007a.662.662,0,0,1,.6-.347.678.678,0,0,1,.68.78v1.206h-.231V79.617a.475.475,0,0,0-.5-.529c-.383,0-.554.317-.554.664Z" transform="translate(-53.721 96.139)" fill="#b2b2b2"/>
    <path id="Path_15371" data-name="Path 15371" d="M226.616,81.127l-.01-.013a.781.781,0,0,1-.657.357c-.574,0-.792-.545-.792-1.031s.218-1.014.792-1.014a.762.762,0,0,1,.657.35l.01-.007v-1.13h.231v2.339c0,.149.01.3.016.433h-.238Zm-.63-1.49c-.436,0-.581.406-.581.776s.106.846.548.846c.5,0,.653-.42.653-.859,0-.39-.172-.763-.62-.763" transform="translate(-52.312 95.59)" fill="#b2b2b2"/>
    <path id="Path_15372" data-name="Path 15372" d="M226.057,79.954c.01.41.2.757.67.757a.571.571,0,0,0,.554-.463h.244a.812.812,0,0,1-.871.674c-.577,0-.845-.5-.845-1.021a.913.913,0,0,1,.858-1.024c.647,0,.881.472.881,1.077Zm1.241-.211a.618.618,0,0,0-.627-.654.637.637,0,0,0-.6.654Z" transform="translate(-50.812 96.139)" fill="#b2b2b2"/>
    <path id="Path_15373" data-name="Path 15373" d="M226.445,80.612l1.125-1.507h-1.125v-.211h1.4v.211l-1.115,1.507h1.115v.211h-1.4Z" transform="translate(-49.352 96.178)" fill="#b2b2b2"/>
    <path id="Path_15374" data-name="Path 15374" d="M226.962,80.612l1.125-1.507h-1.125v-.211h1.4v.211l-1.115,1.507h1.115v.211h-1.4Z" transform="translate(-48.164 96.178)" fill="#b2b2b2"/>
    <path id="Path_15375" data-name="Path 15375" d="M228.731,79.5c-.023-.317-.181-.416-.455-.416-.241,0-.442.073-.472.334h-.248a.639.639,0,0,1,.723-.545c.426,0,.693.195.683.638v.915c0,.149.013.3.02.436h-.238l-.007-.287h-.01l-.01.03a.734.734,0,0,1-.6.314.588.588,0,0,1-.64-.595.6.6,0,0,1,.386-.558,2.644,2.644,0,0,1,.871-.089Zm-.574,1.206c.5,0,.6-.416.574-.819-.327.013-1.006-.05-1.006.436a.383.383,0,0,0,.432.383" transform="translate(-46.986 96.139)" fill="#b2b2b2"/>
    <path id="Path_15376" data-name="Path 15376" d="M228.674,79.217l.007.007a.662.662,0,0,1,.6-.347.636.636,0,0,1,.627.42.8.8,0,0,1,.663-.42.68.68,0,0,1,.68.78v1.206h-.231V79.617a.479.479,0,0,0-.508-.532c-.38,0-.551.32-.551.667v1.11h-.231V79.617a.479.479,0,0,0-.508-.532c-.379,0-.551.32-.551.667v1.11h-.231v-1.5c0-.149-.01-.3-.02-.433h.241Z" transform="translate(-44.803 96.139)" fill="#b2b2b2"/>
    <path id="Path_15377" data-name="Path 15377" d="M229.728,78.926h-.267v-.287h.267Zm-.02,2.485h-.231v-1.93h.231Z" transform="translate(-42.416 95.59)" fill="#b2b2b2"/>
    <path id="Path_15378" data-name="Path 15378" d="M229.968,80.863h-.231V79.369c0-.152-.01-.3-.02-.436h.238l.013.284.007.007a.662.662,0,0,1,.6-.347.678.678,0,0,1,.68.78v1.206h-.231V79.617a.475.475,0,0,0-.5-.529c-.383,0-.554.317-.554.664Z" transform="translate(-41.827 96.139)" fill="#b2b2b2"/>
    <path id="Path_15379" data-name="Path 15379" d="M230.636,78.926h-.271v-.287h.271Zm-.02,2.485h-.231v-1.93h.231Z" transform="translate(-40.337 95.59)" fill="#b2b2b2"/>
    <path id="Path_15380" data-name="Path 15380" d="M230.872,79.217l.007.007a.662.662,0,0,1,.6-.347.636.636,0,0,1,.627.42.8.8,0,0,1,.663-.42.68.68,0,0,1,.68.78v1.206h-.231V79.617a.479.479,0,0,0-.508-.532c-.379,0-.551.32-.551.667v1.11h-.231V79.617a.479.479,0,0,0-.508-.532c-.38,0-.551.32-.551.667v1.11h-.231v-1.5c0-.149-.01-.3-.02-.433h.241Z" transform="translate(-39.748 96.139)" fill="#b2b2b2"/>
    <path id="Path_15381" data-name="Path 15381" d="M232.869,79.5c-.023-.317-.181-.416-.455-.416-.241,0-.442.073-.472.334H231.7a.636.636,0,0,1,.719-.545c.426,0,.693.195.683.638v.915c0,.149.013.3.02.436h-.238l-.007-.287h-.01l-.01.03a.734.734,0,0,1-.6.314.588.588,0,0,1-.64-.595.6.6,0,0,1,.386-.558,2.635,2.635,0,0,1,.871-.089Zm-.574,1.206c.5,0,.6-.416.574-.819-.323.013-1.006-.05-1.006.436a.383.383,0,0,0,.432.383" transform="translate(-37.469 96.139)" fill="#b2b2b2"/>
    <path id="Path_15382" data-name="Path 15382" d="M224.435,80.725a.585.585,0,0,0-.653-.476c-.71,0-.924.644-.924,1.213s.214,1.216.924,1.216a.649.649,0,0,0,.683-.5h.271a.928.928,0,0,1-.954.73c-.841,0-1.195-.677-1.195-1.447s.36-1.444,1.195-1.444c.452,0,.884.208.921.707Z" transform="translate(-58.224 98.767)" fill="#b2b2b2"/>
    <path id="Path_15383" data-name="Path 15383" d="M223.406,82.811V80.035h.4l1.039,2.419,1.063-2.419h.379v2.775h-.248V80.247h-.007l-1.062,2.564h-.248l-1.059-2.551h-.007v2.551Z" transform="translate(-56.341 98.808)" fill="#b2b2b2"/>
    <path id="Path_15384" data-name="Path 15384" d="M225.421,81.612l-1.02-1.576h.317l.848,1.341.848-1.341h.271l-1.013,1.569v1.206h-.251Z" transform="translate(-54.052 98.808)" fill="#b2b2b2"/>
    <path id="Path_15385" data-name="Path 15385" d="M225.226,82.811V80.035h.244l.007,1.223,1.237-1.223h.317l-1.28,1.252,1.392,1.523h-.34l-1.327-1.447-.007,1.447Z" transform="translate(-52.156 98.808)" fill="#b2b2b2"/>
    <path id="Path_15386" data-name="Path 15386" d="M226.272,80.49a1.886,1.886,0,0,0,.61-.42h.238v2.66h-.251V80.341a2.335,2.335,0,0,1-.6.4Z" transform="translate(-49.75 98.887)" fill="#b2b2b2"/>
    <path id="Path_15387" data-name="Path 15387" d="M228.6,81.441c0,.677-.155,1.388-.881,1.388s-.884-.71-.884-1.388.158-1.388.884-1.388.881.71.881,1.388m-1.495,0c0,.4.049,1.156.614,1.156s.614-.76.614-1.156-.049-1.156-.614-1.156-.614.76-.614,1.156" transform="translate(-48.446 98.848)" fill="#b2b2b2"/>
    <path id="Path_15388" data-name="Path 15388" d="M229.255,81.441c0,.677-.158,1.388-.884,1.388s-.884-.71-.884-1.388.158-1.388.884-1.388.884.71.884,1.388m-1.5,0c0,.4.049,1.156.614,1.156s.614-.76.614-1.156-.049-1.156-.614-1.156-.614.76-.614,1.156" transform="translate(-46.958 98.848)" fill="#b2b2b2"/>
    <path id="Path_15389" data-name="Path 15389" d="M228.191,82.811V80.035h.4l1.039,2.419,1.063-2.419h.379v2.775h-.248V80.247h-.007l-1.062,2.564h-.248l-1.059-2.551h-.007v2.551Z" transform="translate(-45.337 98.808)" fill="#b2b2b2"/>
    <path id="Path_15390" data-name="Path 15390" d="M229.635,80.49a1.851,1.851,0,0,0,.61-.42h.238v2.66h-.247V80.341a2.41,2.41,0,0,1-.6.4Z" transform="translate(-42.016 98.887)" fill="#b2b2b2"/>
    <path id="Path_15391" data-name="Path 15391" d="M231.968,81.441c0,.677-.158,1.388-.884,1.388s-.881-.71-.881-1.388.155-1.388.881-1.388.884.71.884,1.388m-1.5,0c0,.4.049,1.156.614,1.156s.614-.76.614-1.156-.049-1.156-.614-1.156-.614.76-.614,1.156" transform="translate(-40.71 98.848)" fill="#b2b2b2"/>
    <path id="Path_15392" data-name="Path 15392" d="M232.614,81.441c0,.677-.155,1.388-.881,1.388s-.884-.71-.884-1.388.158-1.388.884-1.388.881.71.881,1.388m-1.495,0c0,.4.049,1.156.614,1.156s.614-.76.614-1.156-.049-1.156-.614-1.156-.614.76-.614,1.156" transform="translate(-39.224 98.848)" fill="#b2b2b2"/>
    <path id="Path_15393" data-name="Path 15393" d="M232.47,81.612l-1.02-1.576h.317l.848,1.341.848-1.341h.271l-1.013,1.569v1.206h-.251Z" transform="translate(-37.84 98.808)" fill="#b2b2b2"/>
  </g>
</svg>
