<svg xmlns="http://www.w3.org/2000/svg" xmlns:xlink="http://www.w3.org/1999/xlink" width="124.363" height="116.613" viewBox="0 0 124.363 116.613">
  <defs>
    <clipPath id="clip-path">
      <rect id="Rectangle_2249" data-name="Rectangle 2249" width="124.363" height="116.613" fill="none"/>
    </clipPath>
  </defs>
  <g id="Group_4366" data-name="Group 4366" clip-path="url(#clip-path)">
    <path id="Path_15401" data-name="Path 15401" d="M42.47,98.657c0,1.89,1.472,2.63,3.141,2.63,1.092,0,2.765-.32,2.765-1.774,0-1.533-2.128-1.791-4.217-2.349-2.109-.558-4.237-1.374-4.237-4.041,0-2.908,2.745-4.3,5.309-4.3,2.963,0,5.689,1.3,5.689,4.579H47.9c-.1-1.711-1.313-2.151-2.8-2.151-.993,0-2.148.42-2.148,1.612,0,1.1.676,1.236,4.237,2.151,1.033.261,4.217.915,4.217,4.143,0,2.607-2.049,4.56-5.907,4.56-3.141,0-6.085-1.553-6.045-5.059Z" transform="translate(-14.31 8.516)" fill="#b2b2b2"/>
    <path id="Path_15402" data-name="Path 15402" d="M53.183,103.14H50.5v-1.434h-.059a3.667,3.667,0,0,1-3.141,1.712c-3,0-3.758-1.692-3.758-4.239V92.845h2.825V98.66c0,1.692.495,2.528,1.808,2.528,1.531,0,2.188-.856,2.188-2.947v-5.4h2.825ZM44.97,88.923h2.683v2.329H44.97Zm4.095,0h2.686v2.329H49.065Z" transform="translate(-4.902 8.751)" fill="#b2b2b2"/>
    <path id="Path_15403" data-name="Path 15403" d="M54.752,101.825h-.04a3.41,3.41,0,0,1-3.122,1.6c-3.1,0-4.613-2.67-4.613-5.518,0-2.765,1.531-5.336,4.554-5.336A3.537,3.537,0,0,1,54.574,94.1h.04V88.923h2.825V103.14H54.752ZM52.287,94.7c-1.848,0-2.485,1.593-2.485,3.284,0,1.612.736,3.307,2.485,3.307,1.868,0,2.425-1.632,2.425-3.327,0-1.672-.594-3.264-2.425-3.264" transform="translate(3.01 8.751)" fill="#b2b2b2"/>
    <path id="Path_15404" data-name="Path 15404" d="M53.327,97.254c.02,1.236,1.053,1.731,2.168,1.731.815,0,1.848-.317,1.848-1.315,0-.856-1.175-1.153-3.2-1.593-1.63-.357-3.26-.935-3.26-2.746,0-2.63,2.264-3.307,4.474-3.307,2.244,0,4.313.76,4.531,3.288H57.2c-.079-1.1-.914-1.394-1.93-1.394-.634,0-1.567.119-1.567.955,0,1.018,1.59,1.156,3.2,1.533,1.65.38,3.26.978,3.26,2.888,0,2.706-2.346,3.585-4.692,3.585-2.386,0-4.715-.9-4.834-3.625Z" transform="translate(11.433 11.29)" fill="#b2b2b2"/>
    <path id="Path_15405" data-name="Path 15405" d="M58.273,92.262h2.069v1.893H58.273V99.25c0,.958.238,1.2,1.191,1.2a4.383,4.383,0,0,0,.878-.079v2.21a10.9,10.9,0,0,1-1.653.1c-1.729,0-3.24-.4-3.24-2.448V94.155H53.739V92.262h1.709V89.176h2.825Z" transform="translate(18.558 9.334)" fill="#b2b2b2"/>
    <path id="Path_15406" data-name="Path 15406" d="M58.823,96.141c.079,1.794.954,2.607,2.524,2.607a2.325,2.325,0,0,0,2.227-1.332h2.485a4.626,4.626,0,0,1-4.811,3.466c-3.24,0-5.25-2.234-5.25-5.419a5.162,5.162,0,0,1,5.25-5.438c3.5,0,5.19,2.951,4.992,6.116Zm4.593-1.794c-.257-1.431-.874-2.187-2.247-2.187a2.225,2.225,0,0,0-2.346,2.187Z" transform="translate(23.753 11.29)" fill="#b2b2b2"/>
    <path id="Path_15407" data-name="Path 15407" d="M59.607,90.3H62.29v1.913h.04a3.637,3.637,0,0,1,3.283-2.191,2.094,2.094,0,0,1,.614.1v2.627a5.16,5.16,0,0,0-1.013-.1c-2.069,0-2.785,1.493-2.785,3.307V100.6H59.607Z" transform="translate(32.053 11.293)" fill="#b2b2b2"/>
    <path id="Path_15408" data-name="Path 15408" d="M62.06,90.3h2.683v1.434H64.8a3.672,3.672,0,0,1,3.145-1.711c3,0,3.755,1.692,3.755,4.239V100.6H68.881V94.784c0-1.692-.5-2.528-1.812-2.528-1.531,0-2.184.856-2.184,2.944v5.4H62.06Z" transform="translate(37.694 11.293)" fill="#b2b2b2"/>
    <path id="Path_15409" data-name="Path 15409" d="M39.447,95.593h6.969v.714H43.35v8.088h-.838V96.306H39.447Z" transform="translate(-14.31 24.119)" fill="#b2b2b2"/>
    <path id="Path_15410" data-name="Path 15410" d="M41.76,95.593h.775v3.539h.023a2.154,2.154,0,0,1,2.033-1.282c1.785,0,2.326.935,2.326,2.452v4.094h-.775v-3.968c0-1.1-.356-1.926-1.614-1.926a2.007,2.007,0,0,0-1.993,2.184v3.71H41.76Z" transform="translate(-8.99 24.119)" fill="#b2b2b2"/>
    <path id="Path_15411" data-name="Path 15411" d="M44.446,99.851a2.255,2.255,0,0,0,2.092,2.5,1.938,1.938,0,0,0,2-1.626h.772a2.593,2.593,0,0,1-2.768,2.28c-2.019,0-2.867-1.553-2.867-3.367,0-1.675.848-3.364,2.867-3.364,2.046,0,2.858,1.787,2.795,3.575Zm4.111-.654a2.135,2.135,0,0,0-2.019-2.267A2.253,2.253,0,0,0,44.446,99.2Z" transform="translate(-4.596 25.693)" fill="#b2b2b2"/>
    <path id="Path_15412" data-name="Path 15412" d="M46.783,95.593h.934l5.121,7.444h.026V95.593H53.7v8.8h-.934l-5.121-7.444h-.023v7.444h-.838Z" transform="translate(2.56 24.119)" fill="#b2b2b2"/>
    <path id="Path_15413" data-name="Path 15413" d="M50.046,99.851a2.255,2.255,0,0,0,2.092,2.5,1.938,1.938,0,0,0,2-1.626h.775a2.6,2.6,0,0,1-2.772,2.28c-2.019,0-2.867-1.553-2.867-3.367,0-1.675.848-3.364,2.867-3.364,2.043,0,2.858,1.787,2.795,3.575Zm4.111-.654a2.135,2.135,0,0,0-2.019-2.267A2.253,2.253,0,0,0,50.046,99.2Z" transform="translate(8.283 25.693)" fill="#b2b2b2"/>
    <path id="Path_15414" data-name="Path 15414" d="M52.991,97.663h1.293v.654H52.991v4.289c0,.506.073.8.627.839a5.634,5.634,0,0,0,.667-.04v.667c-.234,0-.455.023-.69.023-1.036,0-1.392-.344-1.379-1.427V98.317H51.107v-.654h1.109v-1.91h.775Z" transform="translate(12.505 24.488)" fill="#b2b2b2"/>
    <path id="Path_15415" data-name="Path 15415" d="M52.215,96.331h.825l1.627,5.448h.023l1.551-5.448h.874l1.551,5.448h.023l1.627-5.448h.825l-2.043,6.36h-.851l-1.564-5.349H56.66l-1.551,5.349h-.848Z" transform="translate(15.053 25.821)" fill="#b2b2b2"/>
    <path id="Path_15416" data-name="Path 15416" d="M61.082,99.639c0,1.824-1.056,3.364-3,3.364s-3-1.54-3-3.364,1.059-3.364,3-3.364,3,1.54,3,3.364m-5.23,0c0,1.355.739,2.713,2.227,2.713s2.227-1.358,2.227-2.713-.736-2.713-2.227-2.713-2.227,1.358-2.227,2.713" transform="translate(21.635 25.693)" fill="#b2b2b2"/>
    <path id="Path_15417" data-name="Path 15417" d="M57.249,96.393h.713v1.49h.026a2.345,2.345,0,0,1,2.4-1.576v.776a2.188,2.188,0,0,0-2.363,2.28v3.39h-.775Z" transform="translate(26.63 25.758)" fill="#b2b2b2"/>
    <path id="Path_15418" data-name="Path 15418" d="M58.424,95.593H59.2v5.521l3.521-3.079h1.036l-2.709,2.352,2.891,4.008h-.97l-2.511-3.463L59.2,101.976v2.419h-.775Z" transform="translate(29.332 24.119)" fill="#b2b2b2"/>
    <path id="Path_15419" data-name="Path 15419" d="M67.239,99.639c0,1.824-1.059,3.364-3.006,3.364s-3-1.54-3-3.364,1.059-3.364,3-3.364,3.006,1.54,3.006,3.364m-5.233,0c0,1.355.739,2.713,2.227,2.713s2.227-1.358,2.227-2.713-.736-2.713-2.227-2.713-2.227,1.358-2.227,2.713" transform="translate(35.785 25.693)" fill="#b2b2b2"/>
    <path id="Path_15420" data-name="Path 15420" d="M66.315,98.688H65.058v5.706h-.772V98.688H63.2v-.654h1.086v-.578c-.013-1.1.294-1.863,1.538-1.863a3.771,3.771,0,0,1,.65.053v.664a3.2,3.2,0,0,0-.564-.063c-.861,0-.838.542-.851,1.232v.555h1.257Z" transform="translate(40.316 24.117)" fill="#b2b2b2"/>
    <path id="Path_15421" data-name="Path 15421" d="M40.44,105.466c-.036,1.811,1.267,2.366,2.867,2.366.924,0,2.326-.506,2.326-1.787,0-1-1-1.391-1.808-1.589l-1.957-.482c-1.036-.258-1.983-.75-1.983-2.118,0-.862.554-2.478,3.029-2.478,1.736,0,3.26.938,3.25,2.736h-.838a2.166,2.166,0,0,0-2.4-2.022c-1.145,0-2.2.446-2.2,1.751,0,.826.614,1.17,1.33,1.345l2.142.529c1.244.334,2.277.876,2.277,2.319,0,.6-.247,2.514-3.359,2.514-2.082,0-3.61-.938-3.511-3.083Z" transform="translate(-13.963 32.838)" fill="#b2b2b2"/>
    <path id="Path_15422" data-name="Path 15422" d="M47.948,103.48c0,1.824-1.056,3.364-3,3.364s-3-1.54-3-3.364,1.059-3.364,3-3.364,3,1.54,3,3.364m-5.23,0c0,1.355.739,2.713,2.227,2.713s2.227-1.358,2.227-2.713-.736-2.713-2.227-2.713-2.227,1.358-2.227,2.713" transform="translate(-8.57 34.541)" fill="#b2b2b2"/>
    <path id="Path_15423" data-name="Path 15423" d="M49.268,106.529h-.713v-1.143h-.026a2.365,2.365,0,0,1-2.191,1.332c-1.6,0-2.227-.942-2.227-2.415v-4.13h.775v4.137c.036,1.146.469,1.751,1.7,1.751,1.33,0,1.907-1.252,1.907-2.547v-3.34h.775Z" transform="translate(-3.584 34.67)" fill="#b2b2b2"/>
    <path id="Path_15424" data-name="Path 15424" d="M47.8,101.5H49.1v.658H47.8v4.285c0,.506.073.8.627.839a6.437,6.437,0,0,0,.667-.036v.664c-.234,0-.455.023-.69.023-1.036,0-1.392-.344-1.379-1.424v-4.351H45.92V101.5h1.109V99.594H47.8Z" transform="translate(0.576 33.338)" fill="#b2b2b2"/>
    <path id="Path_15425" data-name="Path 15425" d="M47.219,99.433h.775v3.539h.023a2.154,2.154,0,0,1,2.033-1.282c1.785,0,2.326.935,2.326,2.452v4.094H51.6v-3.968c0-1.1-.356-1.926-1.614-1.926a2.007,2.007,0,0,0-1.993,2.184v3.71h-.775Z" transform="translate(3.564 32.967)" fill="#b2b2b2"/>
    <path id="Path_15426" data-name="Path 15426" d="M50.021,99.433h6.966v.714H53.925v8.088h-.838v-8.088H50.021Z" transform="translate(10.008 32.966)" fill="#b2b2b2"/>
    <path id="Path_15427" data-name="Path 15427" d="M51.708,100.171h.825l2.092,5.425,1.957-5.425h.775L54.6,107.506c-.445,1.07-.7,1.381-1.676,1.381a2.031,2.031,0,0,1-.591-.063v-.654a2.528,2.528,0,0,0,.531.063c.69,0,.848-.406,1.109-1l.271-.724Z" transform="translate(13.887 34.667)" fill="#b2b2b2"/>
    <path id="Path_15428" data-name="Path 15428" d="M53.652,100.231h.713v1.49h.026a2.346,2.346,0,0,1,2.4-1.573v.776a2.184,2.184,0,0,0-2.363,2.277v3.39h-.775Z" transform="translate(18.358 34.608)" fill="#b2b2b2"/>
    <path id="Path_15429" data-name="Path 15429" d="M60.673,103.48c0,1.824-1.059,3.364-3.006,3.364s-3-1.54-3-3.364,1.059-3.364,3-3.364,3.006,1.54,3.006,3.364m-5.233,0c0,1.355.739,2.713,2.227,2.713s2.227-1.358,2.227-2.713-.736-2.713-2.227-2.713-2.227,1.358-2.227,2.713" transform="translate(20.685 34.541)" fill="#b2b2b2"/>
    <rect id="Rectangle_2248" data-name="Rectangle 2248" width="0.775" height="8.802" transform="translate(82.529 132.4)" fill="#b2b2b2"/>
    <path id="Path_15430" data-name="Path 15430" d="M58.2,103.691a2.255,2.255,0,0,0,2.092,2.5,1.932,1.932,0,0,0,1.993-1.626h.779a2.6,2.6,0,0,1-2.772,2.28c-2.019,0-2.867-1.553-2.867-3.367,0-1.675.848-3.364,2.867-3.364,2.043,0,2.854,1.787,2.795,3.575Zm4.111-.654A2.135,2.135,0,0,0,60.3,100.77a2.253,2.253,0,0,0-2.092,2.267Z" transform="translate(27.044 34.541)" fill="#b2b2b2"/>
    <path id="Path_15431" data-name="Path 15431" d="M59.629,102.244c.076-1.487,1.122-2.128,2.574-2.128,1.122,0,2.34.34,2.34,2.042v3.38A.413.413,0,0,0,65,106a.7.7,0,0,0,.247-.05v.654a2.181,2.181,0,0,1-.5.05c-.789,0-.914-.439-.914-1.11H63.8a2.42,2.42,0,0,1-2.313,1.3c-1.171,0-2.132-.575-2.132-1.857,0-1.787,1.739-1.854,3.412-2.052.64-.069,1-.155,1-.862,0-1.047-.752-1.3-1.663-1.3-.96,0-1.673.443-1.7,1.474Zm4.138.938H63.74c-.1.188-.442.244-.65.287-1.317.235-2.957.221-2.957,1.467a1.32,1.32,0,0,0,1.416,1.252,2.039,2.039,0,0,0,2.217-1.992Z" transform="translate(31.48 34.541)" fill="#b2b2b2"/>
    <path id="Path_15432" data-name="Path 15432" d="M61.395,100.3h.775v1.1h.023a2.164,2.164,0,0,1,2.033-1.282c1.785,0,2.326.935,2.326,2.452v4.094h-.775V102.7c0-1.1-.356-1.923-1.614-1.923a2,2,0,0,0-1.993,2.177v3.71h-.775Z" transform="translate(36.165 34.538)" fill="#b2b2b2"/>
    <path id="Path_15433" data-name="Path 15433" d="M67.455,102.161a1.464,1.464,0,0,0-1.663-1.394c-.686,0-1.5.274-1.5,1.1,0,.687.789.935,1.32,1.071l1.033.235a1.864,1.864,0,0,1,1.808,1.761c0,1.381-1.366,1.913-2.547,1.913a2.3,2.3,0,0,1-2.61-2.243h.775a1.675,1.675,0,0,0,1.871,1.589c.726,0,1.736-.321,1.736-1.209,0-.74-.69-.985-1.389-1.156l-1-.225c-1.01-.268-1.775-.615-1.775-1.7,0-1.3,1.27-1.787,2.389-1.787a2.082,2.082,0,0,1,2.326,2.045Z" transform="translate(40.532 34.541)" fill="#b2b2b2"/>
    <path id="Path_15434" data-name="Path 15434" d="M69.534,99.433h.931l3.448,8.8h-.9L71.943,105.5h-4l-1.059,2.739h-.9Zm-1.33,5.349H71.66l-1.7-4.51Z" transform="translate(46.718 32.967)" fill="#b2b2b2"/>
    <path id="Path_15435" data-name="Path 15435" d="M68.586,99.433h.775v3.648h.023a2.27,2.27,0,0,1,2.2-1.394c1.934,0,2.854,1.566,2.854,3.367s-.921,3.364-2.854,3.364a2.373,2.373,0,0,1-2.264-1.391H69.3v1.206h-.713Zm3,2.908c-1.65,0-2.227,1.394-2.227,2.713s.577,2.709,2.227,2.709c1.478,0,2.079-1.391,2.079-2.709s-.6-2.713-2.079-2.713" transform="translate(52.702 32.967)" fill="#b2b2b2"/>
    <path id="Path_15436" data-name="Path 15436" d="M70.727,100.231h.713v1.49h.026a2.346,2.346,0,0,1,2.4-1.573v.776A2.184,2.184,0,0,0,71.5,103.2v3.39h-.775Z" transform="translate(57.626 34.608)" fill="#b2b2b2"/>
    <path id="Path_15437" data-name="Path 15437" d="M77.748,103.48c0,1.824-1.059,3.364-3.006,3.364s-3-1.54-3-3.364,1.059-3.364,3-3.364,3.006,1.54,3.006,3.364m-5.233,0c0,1.355.739,2.713,2.227,2.713s2.227-1.358,2.227-2.713-.736-2.713-2.227-2.713-2.227,1.358-2.227,2.713" transform="translate(59.953 34.541)" fill="#b2b2b2"/>
    <path id="Path_15438" data-name="Path 15438" d="M74.077,102.244c.076-1.487,1.122-2.128,2.574-2.128,1.122,0,2.339.34,2.339,2.042v3.38a.413.413,0,0,0,.455.466.7.7,0,0,0,.247-.05v.654a2.181,2.181,0,0,1-.5.05c-.789,0-.911-.439-.911-1.11h-.026a2.42,2.42,0,0,1-2.313,1.3c-1.171,0-2.132-.575-2.132-1.857,0-1.787,1.739-1.854,3.412-2.052.64-.069,1-.155,1-.862,0-1.047-.749-1.3-1.663-1.3-.96,0-1.673.443-1.7,1.474Zm4.138.938h-.023c-.1.188-.445.244-.653.287-1.317.235-2.957.221-2.957,1.467A1.32,1.32,0,0,0,76,106.189a2.039,2.039,0,0,0,2.217-1.992Z" transform="translate(64.707 34.541)" fill="#b2b2b2"/>
    <path id="Path_15439" data-name="Path 15439" d="M81.623,108.235H80.91v-1.209h-.023a2.52,2.52,0,0,1-2.267,1.394c-1.934,0-2.854-1.566-2.854-3.367s.921-3.364,2.854-3.364a2.267,2.267,0,0,1,2.2,1.391h.023V99.433h.775Zm-3-.469c1.65,0,2.227-1.391,2.227-2.713s-.577-2.709-2.227-2.709c-1.478,0-2.079,1.391-2.079,2.709s.6,2.713,2.079,2.713" transform="translate(69.214 32.967)" fill="#b2b2b2"/>
    <path id="Path_15440" data-name="Path 15440" d="M134.419,87.157l-4.29-1.45V79.158L125.341,77.4l.891-11.759-4.682-.717-14.674,8.359-7.4-3.651-7.754,2.5H79.406l-8.183,7.553L69,88.247,55.885,86.618,53.724,81.5H41.839L36.493,94.439l4.63,4.51-.789,5.657,1.145,2.541,8.134,3.562,5.289-1.88,4.63,3.793,6.507-3.489,3.788,2.111L70.9,105.59l3.861,3.327h3l.713,9.5-2.821,4.53,2.821,3.668,5.131-4.1,9.437-3.562,2.287-1.986,4.144-9.271,8.8-2.4h7.685L120,99.755l1.072-4.457,6.487,3.849,8.616-1.933,4.075-3.311Zm-39.91,6.37,3,9.4L89.2,98.414l-8.309,5.6,2.643-8.376L77.35,89.625l8.563-1.933L89.272,79.5l2.768,7.031,16.179-3.777Z" transform="translate(-21.103 -46.537)" fill="#fff"/>
    <path id="Path_15441" data-name="Path 15441" d="M81.334,76.982l-8.612,1.933-6.491-3.846-1.072,4.454L61.12,85.07h-.782v5.121h.782l4.039-5.548,1.072-4.457,6.491,3.846L81.334,82.1l4.075-8.382-.043-.01Z" transform="translate(33.734 -26.306)" fill="#e73243"/>
    <path id="Path_15442" data-name="Path 15442" d="M121.642,65.413l4.1.624-.861,11.33-.026.35.33.122,4.484,1.642V86.04l.317.106,4.168,1.411,5.428,6.288-3.616,2.937-8.329,1.87L121.306,94.9l-.541-.321-.148.611-1.049,4.368-3.847,5.28h-7.51l-.059.017-8.794,2.4-.211.056-.092.2-4.1,9.179L92.8,118.552l-9.358,3.532-.069.026-.059.046-4.758,3.8-2.34-3.04,2.653-4.252.079-.129-.01-.152-.713-9.506-.033-.43h-3.26L71.2,105.236l-.61-.525-.148.79-.95,5.022-3.23-1.8-.221-.122-.224.119-6.233,3.344-4.385-3.6-.2-.165-.247.086-5.115,1.821-7.8-3.416-1.016-2.257.769-5.521.033-.235-.168-.165-4.405-4.289,5.1-12.36H53.417L55.46,86.8l.1.248.267.033,13.12,1.629.4.05.1-.4,2.184-8.422,7.952-7.335H91.8l.069-.023,7.576-2.448,7.23,3.568.221.109.214-.122Zm-.089-.486-14.674,8.359-7.4-3.651-7.758,2.5H79.409l-8.187,7.553-2.217,8.554-13.12-1.629L53.724,81.5H41.839L36.493,94.439l4.633,4.51-.789,5.657,1.145,2.541,8.131,3.562,5.289-1.88,4.63,3.793,6.507-3.489,3.791,2.111L70.9,105.59l3.861,3.327h3l.716,9.5-2.825,4.53,2.825,3.668,5.128-4.1,9.437-3.562,2.29-1.986,4.144-9.271,8.794-2.4h7.685L120,99.755l1.072-4.457,6.491,3.849,8.612-1.933,4.075-3.311-5.824-6.747-4.29-1.45V79.158L125.341,77.4l.894-11.759ZM80.891,104.014l2.646-8.376L77.35,89.625l8.563-1.933,3.359-8.2,2.772,7.034,16.175-3.777L94.509,93.527l3,9.4L89.2,98.414Z" transform="translate(-21.103 -46.537)" fill="#b2b2b2"/>
    <path id="Path_15443" data-name="Path 15443" d="M59.979,82.818l-3.97-10.9-7.134,1.612,6.187,6.013-2.646,8.376Z" transform="translate(7.372 -30.438)" fill="#51ad47"/>
    <path id="Path_15444" data-name="Path 15444" d="M58.587,76.351l-2.762-7.014-3.362,8.194-1.425.324L55,88.755l.749-.5,8.309,4.51-3-9.4.007-.007Z" transform="translate(12.345 -36.376)" fill="#60bfec"/>
    <path id="Path_15445" data-name="Path 15445" d="M57.016,75.814,64,70.322l-8.286,1.933Z" transform="translate(23.111 -34.106)" fill="#e73243"/>
    <path id="Path_15446" data-name="Path 15446" d="M58.587,76.351l-2.762-7.014-3.362,8.194-1.425.324L55,88.755l.749-.5,8.309,4.51-3-9.4.007-.007Z" transform="translate(12.345 -36.376)" fill="#60bfec"/>
    <path id="Path_15447" data-name="Path 15447" d="M55.807,79.739l-.007.007,6.718-5.283-1.293-3.555-7.893,1.84-.007-.013Z" transform="translate(17.607 -32.757)" fill="#ffd719"/>
    <path id="Path_15448" data-name="Path 15448" d="M53.005,69.336l-.742,1.811Z" transform="translate(15.164 -36.378)" fill="#ffd719"/>
    <path id="Path_15449" data-name="Path 15449" d="M78.593,77.161H70.908l-8.794,2.4L57.97,88.831l-2.29,1.986-2.94,1.11v5.118l2.94-1.11,2.29-1.986,4.144-9.271,8.794-2.4h7.685l.013-.017V77.141Z" transform="translate(16.26 -18.395)" fill="#ffd719"/>
    <path id="Path_15450" data-name="Path 15450" d="M57.173,80.561h-3L50.31,77.234l-1.072,5.653-3.788-2.111,0,0V85.9h0l4.392,1.867.469-5.412,3.861,3.327,3.382-.066Z" transform="translate(-0.514 -18.181)" fill="#60bfec"/>
    <path id="Path_15451" data-name="Path 15451" d="M56.313,84.12l-5.131,4.1-2.792-3.628-.03,5.078,2.821,3.671,5.131-4.1,6.7-2.528V81.592Z" transform="translate(6.19 -8.138)" fill="#60bfec"/>
    <path id="Path_15452" data-name="Path 15452" d="M40.6,81.135l.4-2.888-4.451-4.335Z" transform="translate(-20.978 -25.834)" fill="#52ae46"/>
    <path id="Path_15453" data-name="Path 15453" d="M56.089,83.251l-4.63-3.793-5.289,1.88-8.134-3.565-.046-.1L38,77.81l1.241,3.007,6.926,5.64,5.289-1.88,4.63,3.793,6.5-3.486V79.762Z" transform="translate(-17.661 -17.166)" fill="#52ae46"/>
  </g>
</svg>
