<svg xmlns="http://www.w3.org/2000/svg" xmlns:xlink="http://www.w3.org/1999/xlink" width="135.269" height="65.734" viewBox="0 0 135.269 65.734">
  <defs>
    <clipPath id="clip-path">
      <rect id="Rectangle_2247" data-name="Rectangle 2247" width="135.269" height="65.734" fill="none"/>
    </clipPath>
  </defs>
  <g id="Group_4364" data-name="Group 4364" clip-path="url(#clip-path)">
    <path id="Path_15394" data-name="Path 15394" d="M142.711,90.868a14.019,14.019,0,0,1-9,8.022L132.624,94.5a9.486,9.486,0,0,0,4.94-3.628Zm-9.114-18.9A14.024,14.024,0,0,1,142.21,79l-3.966,2.075a9.569,9.569,0,0,0-5.7-4.715ZM115.828,84.623a13.991,13.991,0,0,1,4.56-9.552l2.891,3.479a9.463,9.463,0,0,0-2.933,6.139Zm4.633,11.25a13.968,13.968,0,0,1-4.636-9.638l4.517-.073a9.462,9.462,0,0,0,2.973,6.208Zm4.009-2.58a9.423,9.423,0,0,0,5.319,1.636,9.663,9.663,0,0,0,1.32-.092l.944,4.427a14.2,14.2,0,0,1-2.264.182,13.922,13.922,0,0,1-8.068-2.561Zm-2.848-19.22a13.994,13.994,0,0,1,10.315-2.468l-.911,4.431a9.571,9.571,0,0,0-1.237-.079,9.424,9.424,0,0,0-5.382,1.675Z" transform="translate(-64.617 -65.443)" fill="#f49800" fill-rule="evenodd"/>
    <path id="Path_15395" data-name="Path 15395" d="M162.373,88.542l2.016,3.013h2.026l-2.128-3.013Zm-2.742,0v3.013h1.617V89.183l.634-.641Zm-8.451,0a3.475,3.475,0,0,0,3.574,3.192,3.109,3.109,0,0,0,3.234-3.013H156.42a1.659,1.659,0,0,1-1.666,1.652,1.939,1.939,0,0,1-1.947-1.83Zm-7.926,0v.228c0,2,1.155,2.964,3.131,2.964s3.141-.971,3.141-2.964v-.228H147.91v.228c0,1.1-.373,1.6-1.524,1.6-1.307,0-1.515-.8-1.515-1.6v-.228Zm-7.942,0v3.013h1.617V88.677h1.617c.812,0,1.112.344,1.224,1.117a8.182,8.182,0,0,0,.257,1.761h1.617a4.023,4.023,0,0,1-.307-1.745,2.418,2.418,0,0,0-.389-1.269Zm-7.791,0v3.013h3.564c1.33,0,2.594-.641,2.594-2.131a2.2,2.2,0,0,0-.168-.882h-1.746a1,1,0,0,1,.3.79c0,.757-.554.968-1.195.968h-1.729V88.542Zm-4.425,0c.756.2,1.363.426,1.363,1.014,0,.753-.865.919-1.432.919-.865,0-1.627-.387-1.627-1.361h-1.564c-.02,1.814,1.5,2.62,3.128,2.62,2,0,3.059-1.011,3.059-2.366a1.993,1.993,0,0,0-.165-.826Zm-8.259,0,1.881,3.013h1.617V88.542h-1.511v.591l-.37-.591Zm-2.709,3.013h1.511V88.542h-1.511Zm-5.461-3.013,1.881,3.013h1.617V88.542H108.65v.591l-.37-.591Zm-2.712,3.013h1.515V88.542h-1.515Zm-1.963,0h-1.617V88.542h1.617Z" transform="translate(-100.15 -26.039)" fill="#004982" fill-rule="evenodd"/>
    <path id="Path_15396" data-name="Path 15396" d="M136.928,87.676H138.7c.719,0,1.112.311,1.112,1.021,0,.74-.393,1.051-1.112,1.051h-1.772Zm-7.791,0h1.515c.577,0,1.112.145,1.112.846,0,.618-.422.876-.99.876h-1.637Zm30.493-.1v3.188h2.25l.294-.3.2.3h1.914l-1.023-1.444,1.726-1.745h-1.963l-1.779,1.89V87.58Zm-7.711,0a4.212,4.212,0,0,0-.779,2.551,5.087,5.087,0,0,0,.04.638h1.627a4.087,4.087,0,0,1-.049-.638c0-1.289.544-2.528,2-2.528a1.594,1.594,0,0,1,1.607,1.289h1.564a3.016,3.016,0,0,0-.459-1.312Zm-4.009,3.188h1.617V87.58H147.91Zm-4.656,0h1.617V87.58h-1.617Zm-7.942-3.188v3.188h5.636a1.209,1.209,0,0,0-.683-.453,1.854,1.854,0,0,0,1.165-1.867,2.038,2.038,0,0,0-.188-.866Zm-7.791,0v3.188h1.617V90.5H130.9a1.266,1.266,0,0,1,.865.264l1.746,0a1.749,1.749,0,0,0-1.178-.991,1.611,1.611,0,0,0,1-1.533,2.161,2.161,0,0,0-.092-.667Zm-4.092,0a1.023,1.023,0,0,1,.782,1.034h1.564a2.331,2.331,0,0,0-.218-1.034Zm-3.151,0a2.012,2.012,0,0,0-.195.889c0,1.381,1.1,1.8,2.191,2.095.28.073.561.139.822.2h2.762a2.758,2.758,0,0,0-2.016-1.318c-1.845-.476-2.194-.548-2.194-1.113a.776.776,0,0,1,.6-.757Zm-3.455,3.188h1.511V87.58h-1.511Zm-4.7-3.188v3.188h1.511V88.852l1.2,1.916h1.617l-1.993-3.188Zm-3.478,3.188h1.515V87.58H108.65Zm-4.7-3.188v3.188h1.515V88.852l1.2,1.916h1.614l-1.993-3.188Zm-1.963,3.188h-1.617V87.58h1.617Z" transform="translate(-100.15 -28.263)" fill="#004982" fill-rule="evenodd"/>
    <path id="Path_15397" data-name="Path 15397" d="M164.989,92.023l1.148-1.163h-2.016l-1.1,1.163Zm-3.742-1.163H159.63v1.163h1.617Zm-3.781,1.163a3.146,3.146,0,0,0-2.712-1.338,3.41,3.41,0,0,0-2.834,1.338Zm-7.939-1.163H147.91v1.163h1.617Zm-4.653,0h-1.617v1.163h1.617Zm-3.63,1.163a2.074,2.074,0,0,0-1.967-1.163h-3.966v1.163Zm-8.008,0c-.271-.859-1.112-1.163-2.254-1.163h-3.458v1.163Zm-10.991,0a1.61,1.61,0,0,1,.515-.079,2.517,2.517,0,0,1,.67.079h2.132a2.854,2.854,0,0,0-2.729-1.338,2.772,2.772,0,0,0-2.554,1.338Zm-3.91-1.163H116.82v1.163h1.515Zm-3.874,1.163-.726-1.163h-1.607v1.163Zm-4.3-1.163H108.65v1.163h1.515Zm-3.877,1.163-.726-1.163h-1.607v1.163Zm-5.913-1.163h1.617v1.163h-1.617Zm91.515-5.21a4.048,4.048,0,0,0,.647.05,3.908,3.908,0,0,0,.6-.046Zm-53.97,0a4.079,4.079,0,0,0,.647.05,2.509,2.509,0,0,0,.492-.05Z" transform="translate(-100.15 -32.705)" fill="#004982" fill-rule="evenodd"/>
    <path id="Path_15398" data-name="Path 15398" d="M228.912,84.684v3.06h1.617V84.869h1.617c.812,0,1.112.34,1.224,1.113a8.18,8.18,0,0,0,.257,1.761h1.617a4.077,4.077,0,0,1-.31-1.741,2.339,2.339,0,0,0-.422-1.318Zm-7.626,0v3.06h5.58V86.382H222.9v-1.7Zm-5.619,3.06h1.617v-3.06h-1.617Zm-7.533-3.06,1.911,3.06h1.617v-3.06h-1.511v.638l-.4-.638Zm-2.679,3.06h1.515v-3.06h-1.515Zm-7.629-3.06v3.06h5.58V86.382h-3.963v-1.7Zm-8.87,0a3.472,3.472,0,0,0,2.933,3.188h1.244a3.081,3.081,0,0,0,2.633-2.964H194.2a1.654,1.654,0,0,1-1.666,1.649,1.943,1.943,0,0,1-1.953-1.87Zm-9.15,3.06h1.617v-3.06H179.8Zm-7.533-3.06,1.911,3.06H175.8v-3.06h-1.515v.638l-.4-.638Zm-2.683,3.06H171.1v-3.06h-1.515Zm-7.626-3.06v3.06h5.58V86.382H163.58v-1.7Zm-3.9,0,.013,3.06h1.511v-3.06Zm-4.135,0L155,87.744h1.244l1.059-3.06h-1.379l-.244.763-.264-.763Zm-2.257,3.06h1.515v-3.06h-1.515Zm-7.629-3.06v3.06h5.58V86.382h-3.963v-1.7Zm-9.054,0a3.472,3.472,0,0,0,2.933,3.188h1.138a2.5,2.5,0,0,0,1.524-.961l.165.833h1.03v-3.06h-3.089v.287h1.627a1.59,1.59,0,0,1-1.749,1.586,1.943,1.943,0,0,1-1.953-1.87Zm-7.345,0-1.158,3.06h1.637L128.7,86.1h2.749L132,87.744h1.68l-1.145-3.06h-1.587l.076.215h-1.9l.076-.215Zm-6.283,0,1.911,3.06h1.617v-3.06h-1.511v.638l-.4-.638Zm-2.679,3.06h1.515v-3.06h-1.515Zm-7.629-3.06-1.162,3.06h1.637L112.1,86.1h2.749l.558,1.639h1.676l-1.142-3.06h-1.587l.073.215h-1.9l.076-.215Zm-4.283,0,.013,3.06h1.515v-3.06Zm-4.135,0,1.079,3.06h1.247l1.056-3.06h-1.379l-.244.763-.261-.763Zm-2.257,3.06h1.515v-3.06h-1.515Z" transform="translate(-100.15 -34.928)" fill="#004982" fill-rule="evenodd"/>
    <path id="Path_15399" data-name="Path 15399" d="M230.528,83.864H232.3c.723,0,1.112.311,1.112,1.021,0,.743-.389,1.054-1.112,1.054h-1.769Zm-88.753,2.124h-3.089v.919h3.089Zm87.136-2.267v3.188h5.6a1.2,1.2,0,0,0-.643-.406,1.853,1.853,0,0,0,1.161-1.867,2.1,2.1,0,0,0-.208-.919Zm-7.629,0v3.188H222.9V86.8h3.564V85.546H222.9V83.97h3.881v-.248Zm-7.82,0v.248h2.2v2.941h1.617V83.97h2.2v-.248Zm-3.316,3.188h1.515V83.722h-1.515Zm-4.7-3.188v3.188h1.515v-1.87l1.168,1.87h1.614l-1.993-3.188Zm-7.626,0v3.188h1.617V86.8H203V85.546h-3.56V83.97h3.88v-.248Zm-8.091,0a4.2,4.2,0,0,0-.815,2.6,4.894,4.894,0,0,0,.036.588l1.623,0a3.9,3.9,0,0,1-.043-.591c0-1.289.544-2.524,2-2.524a1.586,1.586,0,0,1,1.607,1.289H195.7a2.977,2.977,0,0,0-.492-1.361Zm-12.136,0v.248h2.2v2.941h1.617V83.97h2.2v-.248Zm-3.313,3.188H175.8V83.722h-1.515Zm-4.7-3.188v3.188H171.1v-1.87l1.165,1.87h1.617l-1.993-3.188Zm-7.626,0v3.188h1.614V86.8h3.564V85.546h-3.564V83.97h3.884v-.248Zm-5.012,0-1.026,3.188H157.3l.746-2.158.01,2.158h1.524V83.722Zm-5.286,0v3.188h1.515V84.8l.742,2.108h1.5l-1.1-3.188Zm-7.626,0v3.188h1.617V86.8h3.56V85.546h-3.56V83.97h3.881v-.248Zm-8.276,0a4.2,4.2,0,0,0-.815,2.6,4.9,4.9,0,0,0,.036.588l1.627,0a3.515,3.515,0,0,1-.046-.591c0-1.289.544-2.524,2-2.524a1.512,1.512,0,0,1,1.557,1.236h1.544a2.791,2.791,0,0,0-.472-1.308Zm-6.916,0-1.208,3.188h1.551l.881-2.488.874,2.488h1.587l-1.191-3.188Zm-5.478,3.188h1.515V83.722H123.37Zm-4.692-3.188v3.188h1.511v-1.87l1.168,1.87h1.617l-2-3.188Zm-6.421,0-1.211,3.188H112.6l.881-2.488.871,2.488h1.59l-1.191-3.188Zm-6.6,0-1.023,3.188h1.379l.746-2.158.007,2.158h1.524V83.722Zm-5.283,0v3.188h1.515V84.8l.742,2.108h1.5l-1.1-3.188Z" transform="translate(-100.15 -37.152)" fill="#004982" fill-rule="evenodd"/>
    <path id="Path_15400" data-name="Path 15400" d="M202.068,72.917a3.166,3.166,0,0,0,0,4.434,3.1,3.1,0,0,0,4.415,0,3.162,3.162,0,0,0,0-4.434,3.1,3.1,0,0,0-4.412,0m-36.749,36.5a19.733,19.733,0,0,1-11.632-3.77l2.745-3.588a15.256,15.256,0,0,0,8.886,2.841,15.41,15.41,0,0,0,2.547-.211l.944,4.421a19.912,19.912,0,0,1-3.491.307M150.005,90.356a15.313,15.313,0,0,0,5.131,10.665l-2.854,3.5a19.84,19.84,0,0,1-6.791-14.1Zm5.052-12.228A15.313,15.313,0,0,0,150.005,88.7l-4.514-.066a19.852,19.852,0,0,1,6.679-13.983Zm23.9,4.381a15.369,15.369,0,0,0-9.513-7.765l1.056-4.4A19.9,19.9,0,0,1,182.94,80.378Zm-9.391,21.79a15.381,15.381,0,0,0,8.794-6.668l5.085.03a19.918,19.918,0,0,1-12.793,11.026Zm-3.211-6.7a7.7,7.7,0,0,1-1.039.066,8.06,8.06,0,0,1-4.491-1.358L163.362,93a3.933,3.933,0,0,0,1.957.519l.168-.007Zm-6.652-2.187a8.122,8.122,0,0,1-2.475-5.177l4.168-.069a3.947,3.947,0,0,0,.95,2.006Zm2.643-8.511a3.93,3.93,0,0,0-.94,1.959l-4.174-.059a8.1,8.1,0,0,1,2.445-5.111Zm5.408-5.121a8.135,8.135,0,0,1,4.765,4l-3.676,1.93a3.985,3.985,0,0,0-2.062-1.867Zm.455,10.461,4.761.026a8.16,8.16,0,0,1-5.144,5l-1.006-4.064a4.185,4.185,0,0,0,1.389-.965m-2.894-22.58a19.821,19.821,0,0,1,3.336.281l-.911,4.427a15.436,15.436,0,0,0-2.425-.192,15.231,15.231,0,0,0-9,2.924l-2.785-3.558a19.746,19.746,0,0,1,11.783-3.882M160.779,82.8a8.091,8.091,0,0,1,4.54-1.388,8.443,8.443,0,0,1,.967.056l-.841,4.1h-.125a3.929,3.929,0,0,0-1.967.522ZM188.8,71.517h7.22v36.136H188.8Zm-68.555,24.5,12.618-13.444v25.084h7.22V71.517h-6.421L120.235,85.572,106.808,71.517h-6.425v36.136h7.22V82.569ZM204.2,73.122a3.013,3.013,0,0,1,1.086.145.987.987,0,0,1,.617,1.008.867.867,0,0,1-.389.786,1.513,1.513,0,0,1-.577.195.955.955,0,0,1,.686.39,1.091,1.091,0,0,1,.218.618v.291q0,.139.01.3a.661.661,0,0,0,.033.208l-.63.05-.02-.086-.017-.129v-.314a.983.983,0,0,0-.373-.915,1.685,1.685,0,0,0-.782-.129h-.551V77.11h-.7V73.122Zm.752.631a1.8,1.8,0,0,0-.845-.149h-.6v1.444h.63a1.886,1.886,0,0,0,.667-.089.719.719,0,0,0,.145-1.206M206.84,77.7a3.61,3.61,0,0,1-5.131,0,3.649,3.649,0,0,1,.01-5.138A3.627,3.627,0,0,1,206.84,77.7m27.978,38.406a2.071,2.071,0,0,0-1.943-1.113h-3.963v1.113Zm-8.035-1.113h-5.5v1.113h5.5Zm-7.3,0h-6.022v1.113h6.022Zm-7.824,0h-1.515v1.113h1.515Zm-3.9,1.113-.7-1.113h-1.607v1.113Zm-4.435-1.113h-5.5v1.113h5.5Zm-8.107,1.113a3.161,3.161,0,0,0-2.679-1.289,3.412,3.412,0,0,0-2.8,1.292Zm-11.592-1.113H177.6v1.113h6.022Zm-7.824,0h-1.515v1.113H175.8Zm-3.907,1.113-.7-1.113h-1.607v1.113Zm-4.432-1.113h-5.5v1.113h5.5Zm-7.876,1.113v-1.113h-2.274l-.36,1.113Zm-5.26,0-.383-1.113h-2.273v1.113Zm-4.788-1.113h-5.5v1.113h5.5Zm-8.345,1.113a3.148,3.148,0,0,0-2.627-1.289,3.412,3.412,0,0,0-2.8,1.292Zm-9.846,0-.416-1.113h-1.66l-.422,1.113Zm-6.461-1.113H123.37v1.113h1.515Zm-3.9,1.113-.7-1.113h-1.607v1.113Zm-6.23,0-.416-1.113h-1.656l-.422,1.113Zm-6.458,0v-1.113h-2.277l-.356,1.113Zm-5.26,0-.383-1.113h-2.277v1.113Z" transform="translate(-100.15 -69.537)" fill="#004982" fill-rule="evenodd"/>
  </g>
</svg>
