<svg xmlns="http://www.w3.org/2000/svg" xmlns:xlink="http://www.w3.org/1999/xlink" width="162.613" height="29.775" viewBox="0 0 162.613 29.775">
  <defs>
    <clipPath id="clip-path">
      <rect id="Rectangle_2272" data-name="Rectangle 2272" width="162.613" height="29.775" fill="none"/>
    </clipPath>
  </defs>
  <g id="Group_4390" data-name="Group 4390" clip-path="url(#clip-path)">
    <path id="Path_15534" data-name="Path 15534" d="M82.227,196.438a9.718,9.718,0,0,1-.26,2.319,5.069,5.069,0,0,1-.824,1.816,3.743,3.743,0,0,1-1.435,1.177,4.854,4.854,0,0,1-2.094.411,16.676,16.676,0,0,1-2.094-.139q-1.081-.142-1.858-.308a.461.461,0,0,1-.281-.142.514.514,0,0,1-.071-.3v-16.3a.485.485,0,0,1,.106-.319.352.352,0,0,1,.292-.13h.236a.36.36,0,0,1,.292.13.485.485,0,0,1,.106.319v4.64c.236-.047.493-.095.777-.142s.573-.086.871-.118.582-.053.857-.071.532-.024.765-.024q4.612,0,4.613,5.631Zm-1.037-1.556a6.243,6.243,0,0,0-.812-3.534,3.118,3.118,0,0,0-2.764-1.177c-.233,0-.493.009-.777.024s-.57.035-.868.059-.588.056-.871.095-.535.083-.753.127v10.46c.425.08.933.151,1.53.213a16.791,16.791,0,0,0,1.74.095,3.028,3.028,0,0,0,2.776-1.26,6.6,6.6,0,0,0,.8-3.546Z" transform="translate(-69.639 -177.153)" fill="#2a363b"/>
    <path id="Path_15535" data-name="Path 15535" d="M77.3,186.288a.427.427,0,0,1,.316-.13h.162a.405.405,0,0,1,.31.13.463.463,0,0,1,.118.319v7.819a5.106,5.106,0,0,0,.245,1.7,2.9,2.9,0,0,0,.679,1.106,2.522,2.522,0,0,0,1.016.6,4.132,4.132,0,0,0,1.232.177,6.539,6.539,0,0,0,1.858-.284,14.4,14.4,0,0,0,1.864-.683V186.607a.439.439,0,0,1,.446-.45h.142a.444.444,0,0,1,.446.45v11.729a.5.5,0,0,1-.118.331.379.379,0,0,1-.3.142h-.189a.387.387,0,0,1-.31-.142.522.522,0,0,1-.112-.331v-.376a10.487,10.487,0,0,1-1.9.707,7.392,7.392,0,0,1-1.893.257,5.064,5.064,0,0,1-1.6-.245,3.456,3.456,0,0,1-1.32-.79,3.835,3.835,0,0,1-.892-1.39,5.7,5.7,0,0,1-.331-2.073v-7.819a.426.426,0,0,1,.133-.319" transform="translate(-62.11 -173.941)" fill="#2a363b"/>
    <path id="Path_15536" data-name="Path 15536" d="M86.079,186.967a1.25,1.25,0,0,1-.458.071,5.394,5.394,0,0,0-1.447.213,7.215,7.215,0,0,0-1.822.869v10.318a.444.444,0,0,1-.449.45h-.142a.444.444,0,0,1-.446-.45V186.706a.493.493,0,0,1,.118-.328.377.377,0,0,1,.307-.142h.186a.381.381,0,0,1,.307.142.509.509,0,0,1,.118.328v.5A7.022,7.022,0,0,1,84,186.366a5.15,5.15,0,0,1,1.624-.248,1.251,1.251,0,0,1,.458.071.276.276,0,0,1,.177.284v.189a.292.292,0,0,1-.177.3" transform="translate(-54.001 -174.019)" fill="#2a363b"/>
    <path id="Path_15537" data-name="Path 15537" d="M92.853,192.362a.444.444,0,0,1-.449.447H84.454v.494a7.529,7.529,0,0,0,.328,2.428A3.513,3.513,0,0,0,85.7,197.2a3.128,3.128,0,0,0,1.353.719,7,7,0,0,0,1.66.186A14.746,14.746,0,0,0,90.4,198a17.993,17.993,0,0,0,1.787-.293.559.559,0,0,1,.343.012c.1.038.154.136.154.293v.166a.433.433,0,0,1-.095.3.621.621,0,0,1-.354.154,17.472,17.472,0,0,1-1.787.293,15.553,15.553,0,0,1-1.74.106,7.5,7.5,0,0,1-2.059-.272,4.239,4.239,0,0,1-1.684-.917,4.282,4.282,0,0,1-1.14-1.757,8.041,8.041,0,0,1-.413-2.78V191.75a7.852,7.852,0,0,1,.307-2.251,5.183,5.183,0,0,1,.907-1.777,4.187,4.187,0,0,1,1.48-1.18,4.74,4.74,0,0,1,2.059-.423,5.078,5.078,0,0,1,2.106.4,3.816,3.816,0,0,1,1.459,1.145,4.845,4.845,0,0,1,.848,1.777,9.051,9.051,0,0,1,.272,2.286Zm-1.037-.659a6.117,6.117,0,0,0-.824-3.445,3.153,3.153,0,0,0-2.824-1.218,3.768,3.768,0,0,0-1.681.34,3.1,3.1,0,0,0-1.152.958,4.088,4.088,0,0,0-.67,1.479,7.928,7.928,0,0,0-.213,1.91v.115h7.363Z" transform="translate(-49.895 -174.017)" fill="#2a363b"/>
    <path id="Path_15538" data-name="Path 15538" d="M95.924,198.418a.455.455,0,0,1-.139.328.437.437,0,0,1-.322.142h-.115a.433.433,0,0,1-.322-.142.455.455,0,0,1-.139-.328v-.588a14.065,14.065,0,0,1-1.881.837,6.214,6.214,0,0,1-2.118.364,4.907,4.907,0,0,1-1.305-.177,2.932,2.932,0,0,1-1.152-.612,3.171,3.171,0,0,1-.824-1.165,4.616,4.616,0,0,1-.319-1.839v-.308a3.817,3.817,0,0,1,.307-1.588,2.723,2.723,0,0,1,.986-1.13,4.959,4.959,0,0,1,1.8-.683A13.941,13.941,0,0,1,93.1,191.3h1.811v-.846a7.452,7.452,0,0,0-.142-1.567,2.452,2.452,0,0,0-.481-1.059,1.937,1.937,0,0,0-.919-.6,4.67,4.67,0,0,0-1.424-.186c-.39,0-.732,0-1.022.012s-.561.024-.812.047-.493.044-.73.065-.493.056-.777.083a.722.722,0,0,1-.363-.032c-.118-.038-.177-.145-.177-.316v-.145a.3.3,0,0,1,.142-.3,1.467,1.467,0,0,1,.4-.118c.251-.033.49-.059.718-.083s.473-.05.73-.071.543-.041.848-.047.656-.015,1.046-.015a5.194,5.194,0,0,1,1.964.319,2.967,2.967,0,0,1,1.217.893,3.379,3.379,0,0,1,.623,1.381,8.279,8.279,0,0,1,.174,1.745Zm-1.013-6.2H93.1a15.266,15.266,0,0,0-2.248.142,4.447,4.447,0,0,0-1.471.461,1.917,1.917,0,0,0-.812.834,3,3,0,0,0-.245,1.272v.308a4.031,4.031,0,0,0,.2,1.378,2.156,2.156,0,0,0,.552.881,1.973,1.973,0,0,0,.809.473,3.386,3.386,0,0,0,1,.142,6.524,6.524,0,0,0,1.917-.281,11.857,11.857,0,0,0,2.106-.92Z" transform="translate(-42.333 -174.019)" fill="#2a363b"/>
    <path id="Path_15539" data-name="Path 15539" d="M91.3,186.288a.434.434,0,0,1,.319-.13h.162a.4.4,0,0,1,.307.13.463.463,0,0,1,.118.319v7.819a5.106,5.106,0,0,0,.245,1.7,2.908,2.908,0,0,0,.682,1.106,2.512,2.512,0,0,0,1.013.6,4.165,4.165,0,0,0,1.235.177,6.57,6.57,0,0,0,1.858-.284,14.365,14.365,0,0,0,1.861-.683V186.607a.439.439,0,0,1,.446-.45h.142a.444.444,0,0,1,.446.45v11.729a.5.5,0,0,1-.118.331.375.375,0,0,1-.3.142h-.189a.381.381,0,0,1-.307-.142.508.508,0,0,1-.115-.331v-.376a10.542,10.542,0,0,1-1.9.707,7.409,7.409,0,0,1-1.893.257,5.05,5.05,0,0,1-1.6-.245,3.456,3.456,0,0,1-1.32-.79,3.8,3.8,0,0,1-.892-1.39,5.7,5.7,0,0,1-.331-2.073v-7.819a.435.435,0,0,1,.13-.319" transform="translate(-34.74 -173.941)" fill="#2a363b"/>
    <path id="Path_15540" data-name="Path 15540" d="M108.284,190.108a5.6,5.6,0,0,1-.552,2.614,4.688,4.688,0,0,1-1.489,1.706,5.932,5.932,0,0,1-2.156.92,12.026,12.026,0,0,1-2.6.272c-.313,0-.676-.012-1.084-.035l-1.016-.059v6.148a.473.473,0,0,1-.127.328.422.422,0,0,1-.319.142H96.595a.485.485,0,0,1-.473-.47V185.468a.6.6,0,0,1,.2-.509,1.149,1.149,0,0,1,.555-.2q.917-.142,2.121-.225c.8-.053,1.633-.083,2.5-.083a12.413,12.413,0,0,1,2.593.26,5.921,5.921,0,0,1,2.156.9,4.6,4.6,0,0,1,1.486,1.683,5.526,5.526,0,0,1,.552,2.6Zm-3.269-.225a2.411,2.411,0,0,0-.883-2.117,4.574,4.574,0,0,0-2.646-.627c-.124,0-.286.006-.481.012s-.4.015-.6.024-.4.018-.576.024-.325.021-.437.035v5.631c.095,0,.239,0,.437.012s.4.015.611.024.416.015.611.024.34.012.434.012a4.114,4.114,0,0,0,2.717-.71,2.671,2.671,0,0,0,.812-2.129Z" transform="translate(-25.076 -177.276)" fill="#2a363b"/>
    <path id="Path_15541" data-name="Path 15541" d="M103.886,202.148a.4.4,0,0,1-.319.154h-2.186a.432.432,0,0,1-.331-.154.493.493,0,0,1-.142-.34V184.844a.485.485,0,0,1,.473-.47h2.186a.413.413,0,0,1,.319.142.476.476,0,0,1,.13.328v16.963a.521.521,0,0,1-.13.34" transform="translate(-15.725 -177.433)" fill="#2a363b"/>
    <path id="Path_15542" data-name="Path 15542" d="M113.2,198.867a.464.464,0,0,1-.142.331.449.449,0,0,1-.331.139h-2a.453.453,0,0,1-.331-.139.461.461,0,0,1-.139-.331v-.376a8.228,8.228,0,0,1-1.648.766,5.312,5.312,0,0,1-1.669.269,6.611,6.611,0,0,1-1.459-.166,3.208,3.208,0,0,1-2.248-1.813,4.518,4.518,0,0,1-.363-1.955V195.5a4.508,4.508,0,0,1,.316-1.766,3.033,3.033,0,0,1,1.013-1.272,4.766,4.766,0,0,1,1.787-.778,11.423,11.423,0,0,1,2.623-.26h1.483v-1.044a1.858,1.858,0,0,0-.505-1.544,2.6,2.6,0,0,0-1.565-.381q-1.13,0-2.188.059c-.706.041-1.255.083-1.645.13h-.118a.59.59,0,0,1-.307-.071c-.077-.047-.118-.157-.118-.328v-1.493c0-.263.151-.426.449-.488.47-.095,1.04-.18,1.7-.257a18.847,18.847,0,0,1,2.224-.118A5.858,5.858,0,0,1,111.865,187a4.161,4.161,0,0,1,1.332,3.389ZM110.09,193.5H108.6a5.477,5.477,0,0,0-1.311.13,2.007,2.007,0,0,0-.806.376,1.227,1.227,0,0,0-.4.624,3.237,3.237,0,0,0-.106.872v.095a1.372,1.372,0,0,0,.4,1.165,2.229,2.229,0,0,0,1.3.3,4.345,4.345,0,0,0,1.267-.189,6.073,6.073,0,0,0,1.146-.47Z" transform="translate(-11.896 -174.472)" fill="#2a363b"/>
    <path id="Path_15543" data-name="Path 15543" d="M114.817,201.092c-.284.047-.552.086-.812.118a6.871,6.871,0,0,1-.789.047,8.772,8.772,0,0,1-1.7-.142,2.387,2.387,0,0,1-1.158-.541,2.348,2.348,0,0,1-.653-1.144,7.145,7.145,0,0,1-.21-1.919v-7.4l-2.212-.328a.894.894,0,0,1-.331-.166.388.388,0,0,1-.139-.308v-1.059a.461.461,0,0,1,.139-.331.47.47,0,0,1,.331-.139H109.5V185.85a.386.386,0,0,1,.139-.3.821.821,0,0,1,.328-.166l2.171-.376h.095c.248,0,.372.118.372.352v2.428h2.118a.474.474,0,0,1,.47.47v1.39a.48.48,0,0,1-.47.47H112.6v7.4c0,.3.009.535.024.707a.866.866,0,0,0,.118.4.4.4,0,0,0,.272.175,2.7,2.7,0,0,0,.505.035h1.246c.331,0,.493.118.493.355v1.485c0,.234-.148.376-.446.423" transform="translate(-4.18 -176.2)" fill="#2a363b"/>
    <path id="Path_15544" data-name="Path 15544" d="M118.043,201.092c-.284.047-.552.086-.812.118a6.87,6.87,0,0,1-.789.047,8.772,8.772,0,0,1-1.7-.142,2.387,2.387,0,0,1-1.158-.541,2.347,2.347,0,0,1-.653-1.144,7.266,7.266,0,0,1-.21-1.919v-7.4l-2.212-.328a.859.859,0,0,1-.328-.166.382.382,0,0,1-.142-.308v-1.059a.453.453,0,0,1,.142-.331.458.458,0,0,1,.328-.139h2.212V185.85a.386.386,0,0,1,.139-.3.821.821,0,0,1,.328-.166l2.171-.376h.095c.248,0,.372.118.372.352v2.428h2.118a.46.46,0,0,1,.331.139.45.45,0,0,1,.139.331v1.39a.48.48,0,0,1-.47.47h-2.118v7.4c0,.3.009.535.024.707a.9.9,0,0,0,.118.4.4.4,0,0,0,.272.175,2.74,2.74,0,0,0,.505.035H118c.331,0,.493.118.493.355v1.485c0,.234-.148.376-.446.423" transform="translate(2.122 -176.2)" fill="#2a363b"/>
    <path id="Path_15545" data-name="Path 15545" d="M124.357,199.186a.432.432,0,0,1-.331.154h-2.162a.432.432,0,0,1-.331-.154.493.493,0,0,1-.142-.34v-7.68a10.983,10.983,0,0,0-.059-1.283,1.78,1.78,0,0,0-.257-.8,1.109,1.109,0,0,0-.6-.423,3.667,3.667,0,0,0-1.084-.13,3.868,3.868,0,0,0-1.258.222,10.225,10.225,0,0,0-1.4.624v9.472a.493.493,0,0,1-.142.34.431.431,0,0,1-.328.154H114.1a.422.422,0,0,1-.328-.154.493.493,0,0,1-.142-.34v-12.32a.453.453,0,0,1,.142-.331.44.44,0,0,1,.328-.142h2.047a.445.445,0,0,1,.328.142.453.453,0,0,1,.142.331v.494a9.57,9.57,0,0,1,.954-.541,5.389,5.389,0,0,1,.883-.343,5.84,5.84,0,0,1,.916-.186,8.153,8.153,0,0,1,1.06-.062,4.651,4.651,0,0,1,2.07.4,3,3,0,0,1,1.235,1.106,4.667,4.667,0,0,1,.6,1.674,12.549,12.549,0,0,1,.165,2.1v7.68a.493.493,0,0,1-.142.34" transform="translate(9.125 -174.472)" fill="#2a363b"/>
    <path id="Path_15546" data-name="Path 15546" d="M129.432,193.189c0,.393-.159.591-.473.591h-7.67v.068a4.953,4.953,0,0,0,.118,1.05,2.575,2.575,0,0,0,.437.964,2.28,2.28,0,0,0,.868.707,3.142,3.142,0,0,0,1.4.272q1.294,0,2.437-.083c.759-.053,1.391-.107,1.893-.154h.071a.528.528,0,0,1,.3.083.306.306,0,0,1,.118.272v1.556a.85.85,0,0,1-.083.423c-.053.095-.192.157-.411.189-.375.077-.73.139-1.057.186s-.665.089-1,.118-.706.056-1.1.071-.868.024-1.4.024a7.234,7.234,0,0,1-1.893-.269,4.945,4.945,0,0,1-3.228-2.756,6.661,6.661,0,0,1-.549-2.886V191.87a7.649,7.649,0,0,1,.375-2.472,5.211,5.211,0,0,1,1.093-1.884,4.757,4.757,0,0,1,1.772-1.2,6.357,6.357,0,0,1,2.4-.426,6.151,6.151,0,0,1,2.4.438A4.7,4.7,0,0,1,128,187.561a5.391,5.391,0,0,1,1.066,1.9,7.631,7.631,0,0,1,.366,2.413Zm-3.107-1.718a3.075,3.075,0,0,0-.685-2.144,2.316,2.316,0,0,0-1.8-.754,2.407,2.407,0,0,0-1.819.742,2.988,2.988,0,0,0-.712,2.156v.095h5.012Z" transform="translate(18.07 -174.472)" fill="#2a363b"/>
    <path id="Path_15547" data-name="Path 15547" d="M129.439,188.384a.451.451,0,0,1-.331.142,6.1,6.1,0,0,0-1.728.225,7.794,7.794,0,0,0-1.518.624v9.469a.5.5,0,0,1-.139.34.437.437,0,0,1-.331.154h-2.165a.426.426,0,0,1-.328-.154.487.487,0,0,1-.142-.34v-12.32a.453.453,0,0,1,.142-.331.445.445,0,0,1,.328-.142h2.047a.451.451,0,0,1,.331.142.461.461,0,0,1,.139.331v.494a4.776,4.776,0,0,1,1.766-.908,6.717,6.717,0,0,1,1.6-.222.452.452,0,0,1,.331.142.446.446,0,0,1,.142.328v1.7a.451.451,0,0,1-.142.328" transform="translate(26.957 -174.47)" fill="#2a363b"/>
  </g>
</svg>
