<svg id="Group_4369" data-name="Group 4369" xmlns="http://www.w3.org/2000/svg" xmlns:xlink="http://www.w3.org/1999/xlink" width="165.758" height="31.832" viewBox="0 0 165.758 31.832">
  <defs>
    <clipPath id="clip-path">
      <rect id="Rectangle_2251" data-name="Rectangle 2251" width="165.758" height="31.832" fill="none"/>
    </clipPath>
  </defs>
  <g id="Group_4368" data-name="Group 4368" clip-path="url(#clip-path)">
    <path id="Path_15456" data-name="Path 15456" d="M151.157,150.15c3.006,0,4.668,2.111,4.668,5.347,0,.13-.018.282-.018.412H149.1c.077,1.607.915,2.429,2.242,2.429a1.847,1.847,0,0,0,1.869-1.308l2.443.2a4.219,4.219,0,0,1-4.369,3.066c-2.763,0-4.819-1.7-4.819-5.03s2.2-5.122,4.688-5.122m-2.017,4.113h4.072a1.961,1.961,0,0,0-2.017-2.15,2.07,2.07,0,0,0-2.055,2.15" transform="translate(-91.213 -146.692)" fill="#25303b"/>
    <path id="Path_15457" data-name="Path 15457" d="M156.357,150.417l-.391,2.355a2.532,2.532,0,0,0-1.084-.261c-1.83,0-2.165,1.684-2.165,3.31v4.226h-2.6v-9.685h2.446v1.589h.056a3.042,3.042,0,0,1,2.594-1.794,2.476,2.476,0,0,1,1.14.261" transform="translate(-84.05 -146.68)" fill="#25303b"/>
    <path id="Path_15458" data-name="Path 15458" d="M161.128,152.88V156.9a7.555,7.555,0,0,0,.465,3.161h-2.612a6.783,6.783,0,0,1-.264-.99A4.242,4.242,0,0,1,155.6,160.3c-1.925,0-3.249-1.068-3.249-2.88,0-1.963,1.4-2.693,3.4-2.992a8.211,8.211,0,0,0,2.82-.673v-.412c0-1.065-.616-1.326-1.736-1.326a1.558,1.558,0,0,0-1.718,1.326l-2.485-.2c.338-2.189,2.017-2.992,4.351-2.992,2.372,0,4.146.73,4.146,2.731m-3.175,5.1a2.229,2.229,0,0,0,.616-1.871v-.747a7.374,7.374,0,0,1-1.83.486c-.915.187-1.792.412-1.792,1.385,0,.86.69,1.272,1.531,1.272a2.5,2.5,0,0,0,1.475-.525" transform="translate(-79.67 -146.694)" fill="#25303b"/>
    <path id="Path_15459" data-name="Path 15459" d="M170.026,148.983v13.369h-2.633v-9.985h-.039l-2.929,9.985H162l-2.95-9.985h-.039v9.985h-2.615V148.983h4.072l2.781,9.217h.021l2.669-9.217Z" transform="translate(-71.744 -148.986)" fill="#25303b"/>
    <path id="Path_15460" data-name="Path 15460" d="M166.239,150.15c3.006,0,4.668,2.111,4.668,5.347,0,.13-.018.282-.018.412h-6.705c.077,1.607.915,2.429,2.242,2.429a1.847,1.847,0,0,0,1.869-1.308l2.443.2a4.219,4.219,0,0,1-4.369,3.066c-2.763,0-4.819-1.7-4.819-5.03s2.2-5.122,4.688-5.122m-2.017,4.113h4.072a1.961,1.961,0,0,0-2.017-2.15,2.069,2.069,0,0,0-2.055,2.15" transform="translate(-61.626 -146.692)" fill="#25303b"/>
    <path id="Path_15461" data-name="Path 15461" d="M165.108,157.1l2.538-.187a1.822,1.822,0,0,0,2.055,1.572c1.158,0,1.792-.451,1.792-1.124,0-.448-.335-.765-1.214-.991-.746-.187-1.436-.356-2.091-.543-1.454-.43-2.781-.99-2.781-2.654,0-2,1.7-3.028,4.126-3.028,2.372,0,3.942.783,4.277,2.823l-2.464.222c-.151-.9-.8-1.251-1.813-1.251-.859,0-1.623.279-1.623.878,0,.356.317.655.933.824.56.148,1.271.317,1.887.466,1.792.43,3.379.934,3.379,2.9,0,1.587-1.12,3.307-4.407,3.307-2.446,0-4.315-1.008-4.594-3.215" transform="translate(-54.648 -146.692)" fill="#25303b"/>
    <path id="Path_15462" data-name="Path 15462" d="M168.557,157.1l2.538-.187a1.824,1.824,0,0,0,2.055,1.572c1.158,0,1.792-.451,1.792-1.124,0-.448-.335-.765-1.214-.991-.746-.187-1.436-.356-2.091-.543-1.454-.43-2.781-.99-2.781-2.654,0-2,1.7-3.028,4.126-3.028,2.372,0,3.942.783,4.277,2.823l-2.464.222c-.151-.9-.8-1.251-1.813-1.251-.859,0-1.623.279-1.623.878,0,.356.317.655.933.824.56.148,1.271.317,1.887.466,1.792.43,3.379.934,3.379,2.9,0,1.587-1.12,3.307-4.407,3.307-2.446,0-4.315-1.008-4.594-3.215" transform="translate(-47.882 -146.692)" fill="#25303b"/>
    <path id="Path_15463" data-name="Path 15463" d="M176.731,150.15c3.006,0,4.668,2.111,4.668,5.347,0,.13-.018.282-.018.412h-6.705c.077,1.607.915,2.429,2.242,2.429a1.847,1.847,0,0,0,1.869-1.308l2.443.2a4.219,4.219,0,0,1-4.368,3.066c-2.763,0-4.819-1.7-4.819-5.03s2.2-5.122,4.688-5.122m-2.017,4.113h4.072a1.962,1.962,0,0,0-2.02-2.15,2.069,2.069,0,0,0-2.052,2.15" transform="translate(-41.044 -146.692)" fill="#25303b"/>
    <path id="Path_15464" data-name="Path 15464" d="M141.406,168.494V155.128h5.882c2.39,0,4.65.762,4.65,3.384a2.991,2.991,0,0,1-1.848,2.805,3.239,3.239,0,0,1,2.5,3.307c0,2.6-2.129,3.87-4.594,3.87Zm6.163-8.019a1.58,1.58,0,0,0,1.644-1.551c0-1.068-.693-1.533-2.112-1.533h-2.876v3.1Zm.074,5.756c1.12,0,2.073-.5,2.073-1.809,0-1.441-1.176-1.8-2.278-1.8l-3.213-.021v3.627Z" transform="translate(-101.145 -136.908)" fill="#dadada"/>
    <path id="Path_15465" data-name="Path 15465" d="M150.654,156.294a4.769,4.769,0,0,1,5.005,5.065,4.831,4.831,0,0,1-5.005,5.086c-3.305,0-4.985-2.263-4.985-5.142a4.779,4.779,0,0,1,4.985-5.009m0,8.114c1.57,0,2.352-1.308,2.352-3.049,0-1.72-.782-3.028-2.352-3.028s-2.352,1.308-2.352,3.049c0,1.72.782,3.028,2.352,3.028" transform="translate(-92.782 -134.616)" fill="#dadada"/>
    <rect id="Rectangle_2250" data-name="Rectangle 2250" width="2.615" height="13.369" transform="translate(64.334 18.217)" fill="#dadada"/>
    <path id="Path_15466" data-name="Path 15466" d="M154.177,163.961l1.345-.039h4.164v2.132h-8.758v-2l5.153-5.646-1.362.039H151.3v-2.076h8.068V158.3Z" transform="translate(-82.466 -134.468)" fill="#dadada"/>
    <path id="Path_15467" data-name="Path 15467" d="M163.1,159.025v4.018a7.555,7.555,0,0,0,.465,3.161h-2.612a6.787,6.787,0,0,1-.264-.99,4.246,4.246,0,0,1-3.116,1.234c-1.925,0-3.249-1.068-3.249-2.88,0-1.963,1.4-2.693,3.4-2.992a8.211,8.211,0,0,0,2.82-.673v-.412c0-1.065-.616-1.326-1.736-1.326a1.558,1.558,0,0,0-1.718,1.326l-2.485-.2c.338-2.189,2.017-2.992,4.351-2.992,2.372,0,4.146.729,4.146,2.731m-3.175,5.1a2.23,2.23,0,0,0,.616-1.871v-.747a7.373,7.373,0,0,1-1.83.486c-.915.187-1.792.412-1.792,1.385,0,.86.69,1.272,1.531,1.272a2.5,2.5,0,0,0,1.475-.525" transform="translate(-75.811 -134.616)" fill="#dadada"/>
    <path id="Path_15468" data-name="Path 15468" d="M164.375,160.351c0-1.1-.447-2.037-1.644-2.037a1.877,1.877,0,0,0-1.887,1.251,6.893,6.893,0,0,0-.187,1.907v4.73h-2.612v-9.685h2.443v1.4h.038a3.6,3.6,0,0,1,3.062-1.625c2.671,0,3.4,1.551,3.4,3.926V166.2h-2.615Z" transform="translate(-68.502 -134.616)" fill="#dadada"/>
    <path id="Path_15469" data-name="Path 15469" d="M166.537,156.294a4.77,4.77,0,0,1,5.005,5.065,4.831,4.831,0,0,1-5.005,5.086c-3.305,0-4.985-2.263-4.985-5.142a4.779,4.779,0,0,1,4.985-5.009m0,8.114c1.57,0,2.355-1.308,2.355-3.049,0-1.72-.785-3.028-2.355-3.028s-2.352,1.308-2.352,3.049c0,1.72.782,3.028,2.352,3.028" transform="translate(-61.624 -134.616)" fill="#dadada"/>
    <path id="Path_15470" data-name="Path 15470" d="M165.971,168.494V155.128h5.882c2.39,0,4.65.762,4.65,3.384a2.991,2.991,0,0,1-1.848,2.805,3.239,3.239,0,0,1,2.5,3.307c0,2.6-2.129,3.87-4.594,3.87Zm6.163-8.019a1.58,1.58,0,0,0,1.644-1.551c0-1.068-.693-1.533-2.112-1.533h-2.876v3.1Zm.074,5.756c1.12,0,2.073-.5,2.073-1.809,0-1.441-1.176-1.8-2.278-1.8l-3.213-.021v3.627Z" transform="translate(-52.955 -136.908)" fill="#dadada"/>
    <path id="Path_15471" data-name="Path 15471" d="M175.1,156.294a4.77,4.77,0,0,1,5.005,5.065,4.831,4.831,0,0,1-5.005,5.086c-3.305,0-4.985-2.263-4.985-5.142a4.779,4.779,0,0,1,4.985-5.009m0,8.114c1.57,0,2.352-1.308,2.352-3.049,0-1.72-.782-3.028-2.352-3.028s-2.352,1.308-2.352,3.049c0,1.72.782,3.028,2.352,3.028" transform="translate(-44.828 -134.616)" fill="#dadada"/>
    <path id="Path_15472" data-name="Path 15472" d="M177.1,163.961l1.345-.039H182.6v2.132h-8.758v-2L179,158.407l-1.362.039H174.22v-2.076h8.068V158.3Z" transform="translate(-37.506 -134.468)" fill="#dadada"/>
    <path id="Path_15473" data-name="Path 15473" d="M181.794,156.294c3.006,0,4.668,2.111,4.668,5.347,0,.13-.018.282-.018.412h-6.705c.077,1.607.915,2.429,2.242,2.429a1.841,1.841,0,0,0,1.866-1.308l2.446.2a4.219,4.219,0,0,1-4.368,3.066c-2.763,0-4.819-1.7-4.819-5.03s2.2-5.121,4.688-5.121m-2.017,4.113h4.069a1.96,1.96,0,0,0-2.017-2.15,2.069,2.069,0,0,0-2.052,2.15" transform="translate(-31.112 -134.616)" fill="#dadada"/>
    <path id="Path_15474" data-name="Path 15474" d="M187.086,160.351c0-1.1-.447-2.037-1.644-2.037a1.88,1.88,0,0,0-1.887,1.251,6.893,6.893,0,0,0-.187,1.907v4.73h-2.612v-9.685H183.2v1.4h.036a3.6,3.6,0,0,1,3.062-1.625c2.671,0,3.4,1.551,3.4,3.926V166.2h-2.615Z" transform="translate(-23.95 -134.616)" fill="#dadada"/>
    <path id="Path_15475" data-name="Path 15475" d="M139.233,156.78a3.705,3.705,0,1,0-3.705,3.71,3.707,3.707,0,0,0,3.705-3.71" transform="translate(-119.944 -140.953)" fill="#25303b"/>
    <path id="Path_15476" data-name="Path 15476" d="M136.153,150.837a1.853,1.853,0,1,0-1.851,1.853,1.853,1.853,0,0,0,1.851-1.853" transform="translate(-118.718 -148.984)" fill="#25303b"/>
    <path id="Path_15477" data-name="Path 15477" d="M134.58,151.046a1.8,1.8,0,1,0-1.8,1.806,1.806,1.806,0,0,0,1.8-1.806" transform="translate(-121.611 -148.481)" fill="#25303b"/>
    <path id="Path_15478" data-name="Path 15478" d="M133.2,151.683a1.753,1.753,0,1,0-1.753,1.756,1.754,1.754,0,0,0,1.753-1.756" transform="translate(-124.118 -147.131)" fill="#25303b"/>
    <path id="Path_15479" data-name="Path 15479" d="M132.1,152.673a1.7,1.7,0,1,0-1.706,1.708,1.707,1.707,0,0,0,1.706-1.708" transform="translate(-126.092 -145.09)" fill="#25303b"/>
    <path id="Path_15480" data-name="Path 15480" d="M131.349,153.936a1.657,1.657,0,1,0-1.659,1.658,1.656,1.656,0,0,0,1.659-1.658" transform="translate(-127.375 -142.51)" fill="#25303b"/>
    <path id="Path_15481" data-name="Path 15481" d="M131.024,155.394A1.607,1.607,0,1,0,129.419,157a1.606,1.606,0,0,0,1.605-1.607" transform="translate(-127.814 -139.544)" fill="#25303b"/>
    <path id="Path_15482" data-name="Path 15482" d="M131.182,156.855a1.556,1.556,0,1,0-1.558,1.56,1.559,1.559,0,0,0,1.558-1.56" transform="translate(-127.308 -136.58)" fill="#25303b"/>
    <path id="Path_15483" data-name="Path 15483" d="M131.771,158.117a1.508,1.508,0,1,0-1.508,1.509,1.509,1.509,0,0,0,1.508-1.509" transform="translate(-125.96 -133.999)" fill="#25303b"/>
    <path id="Path_15484" data-name="Path 15484" d="M132.711,159.105a1.459,1.459,0,1,0-1.457,1.462,1.459,1.459,0,0,0,1.457-1.462" transform="translate(-123.924 -131.959)" fill="#25303b"/>
    <path id="Path_15485" data-name="Path 15485" d="M133.926,159.744a1.41,1.41,0,1,0-1.41,1.412,1.41,1.41,0,0,0,1.41-1.412" transform="translate(-121.35 -130.61)" fill="#25303b"/>
    <path id="Path_15486" data-name="Path 15486" d="M135.336,159.951a1.361,1.361,0,1,0-1.359,1.361,1.36,1.36,0,0,0,1.359-1.361" transform="translate(-118.392 -130.103)" fill="#25303b"/>
    <path id="Path_15487" data-name="Path 15487" d="M136.745,159.679a1.311,1.311,0,1,0-1.312,1.314,1.313,1.313,0,0,0,1.312-1.314" transform="translate(-115.43 -130.545)" fill="#25303b"/>
    <path id="Path_15488" data-name="Path 15488" d="M137.959,158.975a1.262,1.262,0,1,0-1.262,1.263,1.263,1.263,0,0,0,1.262-1.263" transform="translate(-112.856 -131.829)" fill="#25303b"/>
    <path id="Path_15489" data-name="Path 15489" d="M138.9,157.921a1.213,1.213,0,1,0-1.211,1.213,1.212,1.212,0,0,0,1.211-1.213" transform="translate(-110.82 -133.802)" fill="#25303b"/>
    <path id="Path_15490" data-name="Path 15490" d="M139.491,156.593a1.165,1.165,0,1,0-1.167,1.165,1.167,1.167,0,0,0,1.167-1.165" transform="translate(-109.474 -136.318)" fill="#25303b"/>
    <path id="Path_15491" data-name="Path 15491" d="M139.648,155.068a1.115,1.115,0,1,0-1.114,1.115,1.113,1.113,0,0,0,1.114-1.115" transform="translate(-108.968 -139.217)" fill="#25303b"/>
    <path id="Path_15492" data-name="Path 15492" d="M139.323,153.545a1.065,1.065,0,1,0-1.066,1.068,1.066,1.066,0,0,0,1.066-1.068" transform="translate(-109.407 -142.118)" fill="#25303b"/>
    <path id="Path_15493" data-name="Path 15493" d="M138.573,152.215a1.016,1.016,0,1,0-1.016,1.017,1.018,1.018,0,0,0,1.016-1.017" transform="translate(-110.688 -144.632)" fill="#25303b"/>
    <path id="Path_15494" data-name="Path 15494" d="M137.469,151.16a.967.967,0,1,0-.966.967.966.966,0,0,0,.966-.967" transform="translate(-112.662 -146.608)" fill="#25303b"/>
    <path id="Path_15495" data-name="Path 15495" d="M136.092,150.458a.918.918,0,1,0-.918.919.919.919,0,0,0,.918-.919" transform="translate(-115.171 -147.893)" fill="#25303b"/>
    <path id="Path_15496" data-name="Path 15496" d="M136.153,152.433a1.853,1.853,0,1,0-1.851,1.853,1.853,1.853,0,0,0,1.851-1.853" transform="translate(-118.718 -145.847)" fill="#25303b"/>
    <path id="Path_15497" data-name="Path 15497" d="M134.446,152.806a1.771,1.771,0,1,0-1.774,1.773,1.776,1.776,0,0,0,1.774-1.773" transform="translate(-121.746 -144.957)" fill="#25303b"/>
    <path id="Path_15498" data-name="Path 15498" d="M133.19,153.868a1.688,1.688,0,1,0-1.688,1.69,1.689,1.689,0,0,0,1.688-1.69" transform="translate(-123.885 -142.706)" fill="#25303b"/>
    <path id="Path_15499" data-name="Path 15499" d="M132.629,155.386a1.607,1.607,0,1,0-1.605,1.607,1.608,1.608,0,0,0,1.605-1.607" transform="translate(-124.665 -139.559)" fill="#25303b"/>
    <path id="Path_15500" data-name="Path 15500" d="M132.918,156.905a1.524,1.524,0,1,0-1.525,1.527,1.526,1.526,0,0,0,1.525-1.527" transform="translate(-123.775 -136.416)" fill="#25303b"/>
    <path id="Path_15501" data-name="Path 15501" d="M133.9,157.968a1.442,1.442,0,1,0-1.442,1.444,1.443,1.443,0,0,0,1.442-1.444" transform="translate(-121.529 -134.164)" fill="#25303b"/>
    <path id="Path_15502" data-name="Path 15502" d="M135.336,158.338a1.361,1.361,0,1,0-1.359,1.361,1.36,1.36,0,0,0,1.359-1.361" transform="translate(-118.392 -133.274)" fill="#25303b"/>
    <path id="Path_15503" data-name="Path 15503" d="M136.771,157.86a1.278,1.278,0,1,0-1.279,1.281,1.281,1.281,0,0,0,1.279-1.281" transform="translate(-115.251 -134.056)" fill="#25303b"/>
    <path id="Path_15504" data-name="Path 15504" d="M137.753,156.687a1.2,1.2,0,1,0-1.2,1.2,1.2,1.2,0,0,0,1.2-1.2" transform="translate(-113.005 -136.198)" fill="#25303b"/>
    <path id="Path_15505" data-name="Path 15505" d="M138.041,155.06a1.114,1.114,0,1,0-1.114,1.115,1.113,1.113,0,0,0,1.114-1.115" transform="translate(-112.114 -139.233)" fill="#25303b"/>
    <path id="Path_15506" data-name="Path 15506" d="M137.48,153.434a1.032,1.032,0,1,0-1.034,1.035,1.033,1.033,0,0,0,1.034-1.035" transform="translate(-112.895 -142.272)" fill="#25303b"/>
    <path id="Path_15507" data-name="Path 15507" d="M136.226,152.262a.951.951,0,1,0-.951.952.952.952,0,0,0,.951-.952" transform="translate(-115.035 -144.412)" fill="#25303b"/>
  </g>
</svg>
