<svg xmlns="http://www.w3.org/2000/svg" xmlns:xlink="http://www.w3.org/1999/xlink" width="156.578" height="43.892" viewBox="0 0 156.578 43.892">
  <defs>
    <clipPath id="clip-path">
      <rect id="Rectangle_2291" data-name="Rectangle 2291" width="156.578" height="43.892" fill="none"/>
    </clipPath>
  </defs>
  <g id="Group_4491" data-name="Group 4491" clip-path="url(#clip-path)">
    <path id="Path_15585" data-name="Path 15585" d="M172.782,59.389l-.262-15.033c-.035-1.26-.043-2.46-.026-3.563q.009-.6.022-1.146-.087.257-.185.535c-.33.937-.635,1.755-.905,2.432-.89,2.121-1.929,4.412-2.831,6.816-.361.961-.728,1.815-1.118,2.719-.589,1.371-1.068,2.788-1.708,4.709l-.052.156-.158.046a17.277,17.277,0,0,1-2.963.551,31.317,31.317,0,0,1-3.354.182h-.233l-.067-.223c-.457-1.508-.948-2.718-1.469-4-.378-.929-.768-1.89-1.178-3.04-.969-2.718-2-5.4-3.057-7.965-.341-.782-.654-1.539-.929-2.246l-.046-.118c0,.092.006.186.008.28q.025,1.084.026,2.325V59.455h-7.631l0-.316c0-.258.133-25.848.079-26.906a11.128,11.128,0,0,0-1.606-5.734c-.093-.157-.175-.3-.241-.422l-.162-.31.325-.128c.58-.228,4.264-1.025,5.028-1.154,1.328-.225,2.505-.381,3.5-.464l.145-.012.1.1a26.736,26.736,0,0,1,1.468,2.834c.962,1.984,2.572,5.306,3.468,7.26,1.423,3.106,2.786,6.342,4.049,9.619.477,1.227.886,2.368,1.216,3.389.217.673.4,1.268.562,1.8q.22-.675.489-1.467c.29-.853.75-2.1,1.369-3.718,1.3-3.24,2.684-6.509,4.125-9.721s2.881-6.437,4.28-9.134l.088-.169h6.671l1.31,34.586Z" transform="translate(-96.257 -16.191)" fill="#586d7a"/>
    <path id="Path_15586" data-name="Path 15586" d="M65.455,42.118c0,3.812-.993,6.737-2.949,8.694s-4.865,2.949-8.642,2.949c-.476,0-.913-.017-1.3-.051q-.421-.036-.776-.073V31.873a10.3,10.3,0,0,1,1.046-.084q.775-.025,1.965-.026c3.4,0,6.051.586,7.888,2.439s2.769,4.517,2.769,7.916m8.486-.676c0-5.48-1.682-9.681-5-12.489-3.3-2.793-8.219-3.37-14.61-3.37-1.136,0-2.91.139-4.153.25-.049-.141-.1-.28-.149-.407a4,4,0,0,0-.686-1.248q-1.5.126-3.526.468A20.535,20.535,0,0,0,41.728,25.8a15.5,15.5,0,0,1,1.217,3.87,26.11,26.11,0,0,1,.513,4.627v25l.238.061a25.28,25.28,0,0,0,3.977.633c1.551.139,3.389.209,5.463.209,6.465,0,11.6-1.459,15.268-4.792s5.538-8.039,5.538-13.963" transform="translate(-28.14 -16.305)" fill="#586d7a"/>
    <path id="Path_15587" data-name="Path 15587" d="M7.89,0A17.011,17.011,0,0,0,.084,1.847c0,.336-.084.5-.084,1.007C0,5.2,1.595,9.4,2.854,12.171a21.428,21.428,0,0,0,7.638-1.595V9.737c0-2.266-.084-7.47-1.847-9.737Z" fill="#c0c100"/>
    <path id="Path_15588" data-name="Path 15588" d="M16.422,42.151c-1.049.089-2.69.328-4.109.57A21.425,21.425,0,0,0,8.02,43.943c.007.015,0,27.746,0,27.746h8.4s.077-29.46,0-29.538" transform="translate(-5.408 -28.425)" fill="#586d7a"/>
    <path id="Path_15589" data-name="Path 15589" d="M350.147,117.728a4.486,4.486,0,0,0-1.655.446,4.464,4.464,0,0,0,.532,1.64,4.476,4.476,0,0,0,1.611-.36,2.664,2.664,0,0,0,.029-.417,2.02,2.02,0,0,0-.36-1.295.539.539,0,0,0-.158-.014m-4.675-3.4a2.416,2.416,0,0,1,1.274.425,5.807,5.807,0,0,0,.373-1.191,3.263,3.263,0,0,0-1.4-.249,2.273,2.273,0,0,0-2.362,1.326c.373,2.02,2.289,2.568,2.413,3.687a.732.732,0,0,1-.735.373,2.587,2.587,0,0,1-1.605-.725,2.958,2.958,0,0,0-.425,1.253,3.528,3.528,0,0,0,1.864.487,2.322,2.322,0,0,0,2.361-1.263c-.29-2.02-2.33-2.589-2.455-3.832a.793.793,0,0,1,.694-.29m-6.234.114a1.1,1.1,0,0,1,.311.756c0,.539-.363,1.088-2.009,1.253v-1.6a4.823,4.823,0,0,1,1.605-.414Zm-1.7,2.911a2.326,2.326,0,0,0,.663-.062c.445.632,1.595,2.2,2.89,2.444a1.672,1.672,0,0,0,.59-.932,6.355,6.355,0,0,1-2.237-1.813,1.9,1.9,0,0,0,1.45-1.843,2.3,2.3,0,0,0-.818-1.792,2.639,2.639,0,0,0-.4-.031,5.058,5.058,0,0,0-2.206.622,1.215,1.215,0,0,0-.259-.622,4.111,4.111,0,0,0-1.243.259,3.791,3.791,0,0,1,.29,1.533V117.9a3.348,3.348,0,0,0,.28,1.812,5.5,5.5,0,0,0,1.263-.2,3.574,3.574,0,0,1-.259-1.7Zm-7.593.166c0,1.4.166,2.185,2.082,2.185a11.941,11.941,0,0,0,2.268-.259,1.953,1.953,0,0,0,.073-.528,1.716,1.716,0,0,0-.073-.528,9.536,9.536,0,0,1-2.04.259c-.839,0-1.025-.186-1.025-1.222v-.352L333.7,117a2.907,2.907,0,0,0,.166-.9c0-.124-.01-.124-.01-.207l-2.62.228c0-.839-.01-1.295-.031-1.512a7.061,7.061,0,0,1,1.864-.186c.331,0,.653.01,1.015.031a2.874,2.874,0,0,0,.176-.911c0-.114-.01-.134-.01-.2-.166,0-.332-.031-.725-.031a8.741,8.741,0,0,0-2.4.321.971.971,0,0,0-.1-.331,4.571,4.571,0,0,0-1.336.248,4.242,4.242,0,0,1,.269,1.823Zm-3.571-2.61c0-.093-.01-.29-.021-.373h1.729a1.955,1.955,0,0,0,.207-.932c0-.135-.01-.135-.01-.228l-4.733.187a1.422,1.422,0,0,0-.166.684,1.453,1.453,0,0,0,.031.29h1.647a4.475,4.475,0,0,1,.041.642V117.9a3.348,3.348,0,0,0,.28,1.812,5.032,5.032,0,0,0,1.274-.2,3.332,3.332,0,0,1-.269-1.7Zm-8.7,2.61c0,1.4.166,2.185,2.082,2.185a11.944,11.944,0,0,0,2.268-.259,1.963,1.963,0,0,0,.072-.528,1.715,1.715,0,0,0-.072-.528,9.541,9.541,0,0,1-2.04.259c-.839,0-1.025-.186-1.025-1.222v-.352l2.465-.073a2.906,2.906,0,0,0,.166-.9c0-.124-.01-.124-.01-.207l-2.62.228c0-.839-.01-1.295-.031-1.512a7.059,7.059,0,0,1,1.864-.186c.331,0,.652.01,1.015.031a2.875,2.875,0,0,0,.176-.911c0-.114-.01-.134-.01-.2-.166,0-.332-.031-.725-.031a8.744,8.744,0,0,0-2.4.321.964.964,0,0,0-.1-.331,4.573,4.573,0,0,0-1.336.248,4.237,4.237,0,0,1,.269,1.823Zm-5.61-1.139a13.81,13.81,0,0,0,2.683,3.335,3,3,0,0,0,1.491-.425,15.923,15.923,0,0,1-2.651-2.889,10.757,10.757,0,0,0,2.113-2.8,2.691,2.691,0,0,0-1.253-.248,11.552,11.552,0,0,1-2.382,3.024m-.052-1.657a2.44,2.44,0,0,0-.331-1.4,3.86,3.86,0,0,0-1.243.259,3.792,3.792,0,0,1,.29,1.533V117.9a3.348,3.348,0,0,0,.28,1.812,6.162,6.162,0,0,0,1.263-.2,3.413,3.413,0,0,1-.259-1.7Zm-5.259-.28a1.1,1.1,0,0,1,.311.756c0,.539-.362,1.088-2.009,1.253v-1.6a4.821,4.821,0,0,1,1.605-.414Zm-1.7,2.911a2.326,2.326,0,0,0,.663-.062c.445.632,1.595,2.2,2.889,2.444a1.669,1.669,0,0,0,.59-.932,6.358,6.358,0,0,1-2.237-1.813,1.9,1.9,0,0,0,1.45-1.843,2.3,2.3,0,0,0-.818-1.792,2.631,2.631,0,0,0-.4-.031,5.058,5.058,0,0,0-2.206.622,1.213,1.213,0,0,0-.259-.622,4.111,4.111,0,0,0-1.243.259,3.791,3.791,0,0,1,.29,1.533V117.9a3.348,3.348,0,0,0,.28,1.812,5.5,5.5,0,0,0,1.263-.2,3.574,3.574,0,0,1-.259-1.7Zm-5.633.186a9.68,9.68,0,0,1-1.067-.052,19.382,19.382,0,0,0,.756-2.392,2.122,2.122,0,0,0,.062-.352,24.016,24.016,0,0,1,.891,2.776c-.186.021-.445.021-.642.021m-.787-3.873-2.3,5.955a3.907,3.907,0,0,0,.735.062,4.013,4.013,0,0,0,.6-.041l.394-1.181a.831.831,0,0,0,.165.01h.435c.549,0,1.181-.021,1.668-.062l.218.539a2.543,2.543,0,0,0,.456.766,4.409,4.409,0,0,0,1.326-.279c-1.409-2.3-1.574-4.816-2.672-6.163a2.021,2.021,0,0,0-1.025.394m-3.975,1.056a2.4,2.4,0,0,0-.29-1.4,5.026,5.026,0,0,0-1.3.187,4.167,4.167,0,0,1-.124.414l-1.585,4.153c-.518-1.1-1.088-3.4-2.03-4.754a1.253,1.253,0,0,0-.218-.01,3.889,3.889,0,0,0-1.305.249,2.308,2.308,0,0,1,.2,1.036v5.034h1.2v-2.972c0-.114-.01-.352-.072-1.5A25.864,25.864,0,0,0,290.5,118.9c.124.311.269.632.352.808h.124a2.976,2.976,0,0,0,1-.186l1.17-3.1c.083-.238.176-.549.373-1.305-.072.911-.072,1.295-.072,1.544V117.9a3.351,3.351,0,0,0,.29,1.812,4.614,4.614,0,0,0,1.191-.2,3.456,3.456,0,0,1-.269-1.7Z" transform="translate(-194.087 -76.383)" fill="#586d7a"/>
    <path id="Path_15590" data-name="Path 15590" d="M349.154,79.246a4.483,4.483,0,0,0-1.654.446,4.464,4.464,0,0,0,.532,1.64,4.48,4.48,0,0,0,1.611-.36,2.616,2.616,0,0,0,.029-.417,2.02,2.02,0,0,0-.36-1.294.529.529,0,0,0-.158-.015m-4.623-3.4a2.416,2.416,0,0,1,1.274.425,5.817,5.817,0,0,0,.373-1.191,3.271,3.271,0,0,0-1.4-.248,2.272,2.272,0,0,0-2.362,1.326c.373,2.02,2.289,2.569,2.413,3.687a.732.732,0,0,1-.735.373,2.589,2.589,0,0,1-1.605-.725,2.955,2.955,0,0,0-.425,1.253,3.524,3.524,0,0,0,1.864.487,2.322,2.322,0,0,0,2.361-1.263c-.29-2.02-2.33-2.589-2.455-3.832a.793.793,0,0,1,.694-.29m-5.768.114a1.1,1.1,0,0,1,.311.756c0,.539-.362,1.087-2.009,1.253V76.37a4.813,4.813,0,0,1,1.605-.414Zm-1.7,2.91a2.324,2.324,0,0,0,.663-.062c.445.632,1.595,2.2,2.89,2.445a1.671,1.671,0,0,0,.59-.932,6.352,6.352,0,0,1-2.237-1.812,1.9,1.9,0,0,0,1.45-1.843,2.3,2.3,0,0,0-.818-1.792,2.676,2.676,0,0,0-.4-.031,5.059,5.059,0,0,0-2.206.621,1.215,1.215,0,0,0-.259-.621,4.093,4.093,0,0,0-1.243.259,3.789,3.789,0,0,1,.29,1.533v2.786a3.35,3.35,0,0,0,.279,1.812,5.522,5.522,0,0,0,1.264-.2,3.57,3.57,0,0,1-.259-1.7Zm-7.127.166c0,1.4.166,2.185,2.082,2.185a11.944,11.944,0,0,0,2.268-.259,1.967,1.967,0,0,0,.072-.528,1.716,1.716,0,0,0-.072-.528,9.562,9.562,0,0,1-2.04.259c-.839,0-1.025-.186-1.025-1.222v-.352l2.465-.073a2.907,2.907,0,0,0,.166-.9c0-.124-.01-.124-.01-.207l-2.62.228c0-.839-.01-1.294-.031-1.512a7.039,7.039,0,0,1,1.864-.187c.331,0,.653.01,1.015.031a2.878,2.878,0,0,0,.176-.911c0-.114-.01-.135-.01-.2-.166,0-.331-.031-.725-.031a8.744,8.744,0,0,0-2.4.321.965.965,0,0,0-.1-.331,4.586,4.586,0,0,0-1.336.249,4.234,4.234,0,0,1,.269,1.823Zm-4.628-.86V76.359a3.917,3.917,0,0,1,1.6-.414,1.25,1.25,0,0,1,.414.932c0,.828-.466,1.263-2.009,1.294m0,.911a1.552,1.552,0,0,0,.29.01c1.336,0,3.086-.518,3.086-2.32a2.2,2.2,0,0,0-1.077-1.906,2.324,2.324,0,0,0-.269-.01,4.54,4.54,0,0,0-2.113.57,1.34,1.34,0,0,0-.248-.59,4.091,4.091,0,0,0-1.243.259,3.79,3.79,0,0,1,.29,1.533v2.786a3.349,3.349,0,0,0,.28,1.812,4.176,4.176,0,0,0,.87-.1l.394-.093a3.409,3.409,0,0,1-.259-1.7Zm-4.936-3.149a3.044,3.044,0,0,1,.828,2.331c0,1.139-.383,1.947-1.491,1.947a1.875,1.875,0,0,1-.5-.052,3.109,3.109,0,0,1-.808-2.31c0-1.16.445-1.968,1.419-1.968a3.876,3.876,0,0,1,.549.052m2.227,2.134a4.638,4.638,0,0,0-1.274-3.117,3.485,3.485,0,0,0-.994-.124,3.127,3.127,0,0,0-3.325,3.366,3.992,3.992,0,0,0,1.243,2.962,4.306,4.306,0,0,0,1.046.114,3.022,3.022,0,0,0,3.3-3.2m-8.9-1.833a2.121,2.121,0,0,0-.332-1.4,4.091,4.091,0,0,0-1.243.259,3.79,3.79,0,0,1,.29,1.533v2.465a3.246,3.246,0,0,0,.476,2.03,3.536,3.536,0,0,0,1,.114,6.315,6.315,0,0,0,2.165-.311,2.313,2.313,0,0,0,.072-.559,1.716,1.716,0,0,0-.072-.528,7.415,7.415,0,0,1-2.134.29,2.571,2.571,0,0,1-.228-1.336Zm-7.1,2.8c0,1.4.165,2.185,2.082,2.185a11.943,11.943,0,0,0,2.268-.259,1.955,1.955,0,0,0,.073-.528,1.715,1.715,0,0,0-.073-.528,9.559,9.559,0,0,1-2.04.259c-.839,0-1.025-.186-1.025-1.222v-.352l2.465-.073a2.907,2.907,0,0,0,.166-.9c0-.124-.01-.124-.01-.207l-2.62.228c0-.839-.01-1.294-.031-1.512a7.041,7.041,0,0,1,1.864-.187c.332,0,.653.01,1.015.031a2.877,2.877,0,0,0,.176-.911c0-.114-.01-.135-.01-.2-.166,0-.331-.031-.725-.031a8.741,8.741,0,0,0-2.4.321.972.972,0,0,0-.1-.331,4.582,4.582,0,0,0-1.336.249,4.24,4.24,0,0,1,.269,1.823Zm-2.632-1.45a2.393,2.393,0,0,1-1.108,2.289,8.581,8.581,0,0,1-.787-2.2,10.625,10.625,0,0,0-1.232-2.838,10.529,10.529,0,0,0-1.2.393,11.829,11.829,0,0,1,1.253,2.931,8.979,8.979,0,0,0,1.346,3.118A4.321,4.321,0,0,0,305.3,77.26a2.829,2.829,0,0,0-1.709-2.744,2.188,2.188,0,0,0-.756,1,2.055,2.055,0,0,1,1.139,2.061m-9.563,1.45c0,1.4.166,2.185,2.082,2.185a11.938,11.938,0,0,0,2.268-.259,1.955,1.955,0,0,0,.073-.528,1.715,1.715,0,0,0-.073-.528,9.556,9.556,0,0,1-2.04.259c-.839,0-1.025-.186-1.025-1.222v-.352l2.465-.073a2.919,2.919,0,0,0,.165-.9c0-.124-.01-.124-.01-.207l-2.62.228c0-.839-.01-1.294-.031-1.512a7.041,7.041,0,0,1,1.864-.187c.332,0,.653.01,1.015.031a2.876,2.876,0,0,0,.176-.911c0-.114-.01-.135-.01-.2-.166,0-.332-.031-.725-.031a8.741,8.741,0,0,0-2.4.321.973.973,0,0,0-.1-.331,4.583,4.583,0,0,0-1.336.249,4.235,4.235,0,0,1,.269,1.823ZM289.1,76.3a3.952,3.952,0,0,1,1.388-.342,2.3,2.3,0,0,1-.86,4.267,2.174,2.174,0,0,1-.311-.021,3.476,3.476,0,0,1-.218-1.212Zm-1.284,2.8a3.354,3.354,0,0,0,.487,2.03,4.4,4.4,0,0,0,1.015.1c2.672,0,3.718-1.678,3.718-3.335a3.024,3.024,0,0,0-2.248-3.066,6.569,6.569,0,0,0-1.771.6,1.328,1.328,0,0,0-.228-.6,4.778,4.778,0,0,0-1.264.269,3.784,3.784,0,0,1,.29,1.533Z" transform="translate(-193.894 -50.251)" fill="#586d7a"/>
    <path id="Path_15591" data-name="Path 15591" d="M348.549,41.321a4.484,4.484,0,0,0-1.654.446,4.45,4.45,0,0,0,.532,1.64,4.474,4.474,0,0,0,1.611-.36,2.618,2.618,0,0,0,.029-.417,2.019,2.019,0,0,0-.36-1.295.538.538,0,0,0-.158-.014m-4.882-3.4a2.413,2.413,0,0,1,1.274.425,5.811,5.811,0,0,0,.373-1.191,3.263,3.263,0,0,0-1.4-.249,2.273,2.273,0,0,0-2.362,1.326c.373,2.02,2.289,2.568,2.413,3.687a.732.732,0,0,1-.735.373,2.587,2.587,0,0,1-1.605-.725,2.958,2.958,0,0,0-.425,1.253,3.529,3.529,0,0,0,1.865.486,2.322,2.322,0,0,0,2.361-1.263c-.29-2.02-2.33-2.589-2.454-3.832a.792.792,0,0,1,.694-.29m-5.82.114a1.1,1.1,0,0,1,.311.756c0,.539-.363,1.088-2.009,1.253v-1.6a4.823,4.823,0,0,1,1.605-.414Zm-1.7,2.911a2.327,2.327,0,0,0,.663-.062c.445.632,1.595,2.2,2.89,2.444a1.672,1.672,0,0,0,.59-.932,6.358,6.358,0,0,1-2.237-1.813,1.9,1.9,0,0,0,1.45-1.843,2.3,2.3,0,0,0-.818-1.792,2.643,2.643,0,0,0-.4-.031,5.057,5.057,0,0,0-2.206.622,1.221,1.221,0,0,0-.259-.622,4.111,4.111,0,0,0-1.243.259,3.792,3.792,0,0,1,.29,1.533V41.49a3.353,3.353,0,0,0,.279,1.812,5.507,5.507,0,0,0,1.264-.2,3.568,3.568,0,0,1-.259-1.7ZM331.16,38.01a3.043,3.043,0,0,1,.828,2.33c0,1.139-.383,1.947-1.491,1.947a1.881,1.881,0,0,1-.5-.052,3.112,3.112,0,0,1-.807-2.309c0-1.16.445-1.968,1.419-1.968a3.818,3.818,0,0,1,.549.052m2.227,2.134a4.64,4.64,0,0,0-1.274-3.118,3.5,3.5,0,0,0-.995-.124,3.127,3.127,0,0,0-3.324,3.366,4,4,0,0,0,1.242,2.962,4.317,4.317,0,0,0,1.047.114,3.022,3.022,0,0,0,3.3-3.2M325.3,38.5c0-.093-.01-.29-.021-.373h1.729a1.951,1.951,0,0,0,.207-.932c0-.135-.01-.135-.01-.228l-4.734.187a1.423,1.423,0,0,0-.165.684,1.443,1.443,0,0,0,.031.29h1.647a4.527,4.527,0,0,1,.041.642V41.49a3.343,3.343,0,0,0,.28,1.812,5.032,5.032,0,0,0,1.274-.2,3.332,3.332,0,0,1-.269-1.7Zm-5.653,2.63a9.678,9.678,0,0,1-1.067-.052,19.347,19.347,0,0,0,.756-2.392,2.155,2.155,0,0,0,.063-.352,24.008,24.008,0,0,1,.89,2.776c-.186.021-.445.021-.642.021m-.787-3.873-2.3,5.955a3.9,3.9,0,0,0,.735.062,4.014,4.014,0,0,0,.6-.041l.393-1.181a.83.83,0,0,0,.165.01h.435c.549,0,1.181-.021,1.668-.062l.217.539a2.537,2.537,0,0,0,.456.766,4.41,4.41,0,0,0,1.326-.279c-1.408-2.3-1.574-4.816-2.672-6.163a2.02,2.02,0,0,0-1.025.394m-3.989,2.4a2.393,2.393,0,0,1-1.108,2.289,8.6,8.6,0,0,1-.787-2.2,10.6,10.6,0,0,0-1.232-2.838,10.517,10.517,0,0,0-1.2.394,11.823,11.823,0,0,1,1.253,2.931,8.962,8.962,0,0,0,1.346,3.117,4.321,4.321,0,0,0,3.055-4.018,2.83,2.83,0,0,0-1.709-2.745,2.185,2.185,0,0,0-.756,1,2.055,2.055,0,0,1,1.139,2.061m-7.044-1.647a3.043,3.043,0,0,1,.828,2.33c0,1.139-.383,1.947-1.491,1.947a1.878,1.878,0,0,1-.5-.052,3.111,3.111,0,0,1-.808-2.309c0-1.16.445-1.968,1.419-1.968a3.818,3.818,0,0,1,.549.052m2.227,2.134a4.64,4.64,0,0,0-1.274-3.118,3.505,3.505,0,0,0-.995-.124,3.127,3.127,0,0,0-3.324,3.366A4,4,0,0,0,305.7,43.23a4.315,4.315,0,0,0,1.047.114,3.022,3.022,0,0,0,3.3-3.2m-10.932-.249c-.011-.279-.011-.528-.062-1.046a33.772,33.772,0,0,0,2.962,4.526,2.857,2.857,0,0,0,1.17-.311,2.411,2.411,0,0,1-.228-1.274V37.026H301.7v3.159a7.788,7.788,0,0,0,.062.974,23.313,23.313,0,0,0-2.817-4.257,4.476,4.476,0,0,0-1.284.249,2.834,2.834,0,0,1,.2,1.212V43.22h1.264Zm-6.944,0c-.01-.279-.01-.528-.062-1.046a33.838,33.838,0,0,0,2.962,4.526,2.861,2.861,0,0,0,1.171-.311,2.406,2.406,0,0,1-.228-1.274V37.026h-1.264v3.159a7.83,7.83,0,0,0,.062.974A23.277,23.277,0,0,0,292,36.9a4.48,4.48,0,0,0-1.284.249,2.834,2.834,0,0,1,.2,1.212V43.22h1.263ZM289.1,38.31a2.317,2.317,0,0,0-.332-1.4,4.856,4.856,0,0,0-1.243.259,3.786,3.786,0,0,1,.29,1.533V41.49a3.65,3.65,0,0,0,.28,1.812,5.5,5.5,0,0,0,1.263-.2,3.472,3.472,0,0,1-.259-1.7Z" transform="translate(-193.894 -24.676)" fill="#586d7a"/>
  </g>
</svg>
