<svg xmlns="http://www.w3.org/2000/svg" xmlns:xlink="http://www.w3.org/1999/xlink" width="138" height="46.373" viewBox="0 0 138 46.373">
  <defs>
    <clipPath id="clip-path">
      <rect id="Rectangle_2252" data-name="Rectangle 2252" width="138" height="46.373" fill="none"/>
    </clipPath>
  </defs>
  <g id="Group_4370" data-name="Group 4370" clip-path="url(#clip-path)">
    <path id="Path_15508" data-name="Path 15508" d="M239.284,193.742a3.918,3.918,0,0,1-.577,1.823c-.141.234-.291.467-.44.689-.061.1-.122.2-.187.291l-.012.019a.331.331,0,0,1-.057.077.548.548,0,0,1-.329.168c-.111,0-.206-.065-.31-.207a.969.969,0,0,1-.088-.842,5.534,5.534,0,0,1,1.48-2.673.773.773,0,0,1,.107-.08l.065-.046.069-.05.027.08a1.72,1.72,0,0,0,.107.241.959.959,0,0,1,.145.509m-8.4-.26a9.645,9.645,0,0,1-2.329,2.5c-.126.1-.249.207-.363.314-.1.084-.2.172-.3.257a1.444,1.444,0,0,1-.314.2.365.365,0,0,1-.161.038c-.065,0-.279-.031-.283-.406l0-.019.034-.1a2.319,2.319,0,0,1,.126-.333,5.777,5.777,0,0,1,2.031-2.221c.264-.18.547-.345.822-.5l.1-.057a.913.913,0,0,1,.34-.123h.019a.381.381,0,0,1,.287.123.35.35,0,0,1-.015.325m13.622.387c.1-.161.126-.264.1-.337s-.115-.126-.291-.188l-.038-.015a.6.6,0,0,0-.207-.057c-.061,0-.107.031-.184.191a2.727,2.727,0,0,1-.566.793l-.122.123c-.134.134-.275.272-.4.421-.3.368-.6.739-.891,1.111-.18.226-.359.452-.539.674a.863.863,0,0,1-.118.119l-.054.046-.034.031-.122-.077.008-.038v-.046a.46.46,0,0,1,.023-.123l.08-.268c.077-.241.157-.494.252-.735a7.415,7.415,0,0,1,1.335-2.328.716.716,0,0,0,.142-.287.266.266,0,0,0-.092-.3.445.445,0,0,0-.26-.073.574.574,0,0,0-.463.211c-.1.153-.191.306-.275.444l-.111.172-.291-.011c-.207-.008-.405-.015-.6-.019h-.073c-.142,0-.291,0-.432.011h-.042a.509.509,0,0,1-.467-.28,1.349,1.349,0,0,1-.115-.237.618.618,0,0,0-.486-.406.857.857,0,0,0-.853.3,6.991,6.991,0,0,0-1.3,1.823,2.751,2.751,0,0,0-.352,1.513l0,.142v.038l-.034.019q-.1.052-.184.092c-.119.061-.222.115-.325.172-.069.042-.141.084-.21.13a2.39,2.39,0,0,1-.386.218.549.549,0,0,1-.21.054c-.126,0-.272-.069-.272-.383a.91.91,0,0,1,.027-.28,8.99,8.99,0,0,1,1.228-2.88,1.223,1.223,0,0,0,.268-.659.179.179,0,0,0-.142-.2.542.542,0,0,0-.688.3.744.744,0,0,1-.459.494c-.2.065-.39.142-.578.222-.157.065-.321.13-.482.188a2.627,2.627,0,0,1-.4.1c-.069.012-.134.023-.206.038l-.1.023.031-.1.031-.107a.729.729,0,0,1,.05-.153c.084-.176.168-.352.252-.525.138-.291.287-.586.417-.885a7.652,7.652,0,0,0,.413-1.034c.054-.184.061-.287.027-.337s-.145-.077-.348-.077h-.13c-.126,0-.21.023-.256.138l-.21.525c-.268.674-.543,1.367-.807,2.052-.073.188-.119.314-.279.314a1.009,1.009,0,0,1-.245-.05c-.13-.038-.264-.069-.4-.1-.065-.012-.13-.027-.2-.042l-.053-.012.008-.054a.178.178,0,0,0-.031-.126.21.21,0,0,0-.161-.065.453.453,0,0,1-.371-.26.85.85,0,0,0-.727-.456.637.637,0,0,0-.21.034,6.289,6.289,0,0,0-.956.379,5.994,5.994,0,0,0-2.5,2.508c-.038.065-.08.13-.142.138a1.657,1.657,0,0,0-.765.348l-.1.073c-.134.088-.264.18-.4.272-.172.123-.352.249-.532.364a1.782,1.782,0,0,1-.914.306h-.019a.283.283,0,0,1-.218-.08.278.278,0,0,1-.061-.218,1.651,1.651,0,0,1,.065-.345,7.42,7.42,0,0,1,1.855-2.979.312.312,0,0,1,.145-.065l.05-.015.073-.027.011.077.012.057a.314.314,0,0,1,0,.168,1.068,1.068,0,0,1-.073.165.645.645,0,0,0-.073.169.405.405,0,0,0-.019.257,2.1,2.1,0,0,0,.482.341c.065.035.13-.008.161-.1l.027-.092c.084-.253.168-.513.272-.762.122-.291.077-.444-.164-.6a2.356,2.356,0,0,0-.428-.207.783.783,0,0,0-.895.165c-.061.057-.119.111-.176.169a4.528,4.528,0,0,0-.57.613,6.73,6.73,0,0,0-1.3,2.57l0,.031-.031.015c-.057.031-.115.057-.168.084-.107.054-.2.1-.294.149-.077.046-.153.092-.229.142a3.28,3.28,0,0,1-.424.241.51.51,0,0,1-.2.046c-.1,0-.264-.05-.268-.368a1.017,1.017,0,0,1,.023-.283,8.94,8.94,0,0,1,1.235-2.9,1.243,1.243,0,0,0,.264-.659.173.173,0,0,0-.134-.2.571.571,0,0,0-.2-.035.537.537,0,0,0-.493.318c-.046.1-.088.188-.13.28-.13.283-.268.574-.382.869l-.119.291c-.218.555-.447,1.126-.627,1.7a1.4,1.4,0,0,0,.356,1.478.589.589,0,0,0,.577.157,1.7,1.7,0,0,0,.723-.387c.092-.077.18-.157.264-.234l.164-.149.038.054c.031.038.057.08.084.119a1.019,1.019,0,0,0,.168.207,1.2,1.2,0,0,0,1.415.2,7.4,7.4,0,0,0,.834-.544c.084-.057.164-.119.249-.176.138-.1.268-.2.409-.306.065-.054.13-.107.2-.157l.1-.08,0,.13a.892.892,0,0,0,.187.728,3.674,3.674,0,0,0,.554.414.392.392,0,0,0,.268.031,2.185,2.185,0,0,0,.9-.475c.21-.176.413-.364.612-.548.119-.107.233-.214.352-.318a1.319,1.319,0,0,1,.145-.111l.065-.046.034-.027.1.073,0,.038-.019.176a2.506,2.506,0,0,0,.111,1.149.358.358,0,0,0,.34.253,1.071,1.071,0,0,0,.344-.038.132.132,0,0,0,.088-.05.146.146,0,0,0-.027-.107,1.631,1.631,0,0,1-.176-1.065,5.322,5.322,0,0,1,1.174-2.631l.038-.054.207.191c.2.184.413.375.612.571a.223.223,0,0,1,.027.207c-.1.329-.2.659-.306.988-.138.433-.275.869-.409,1.306a1.78,1.78,0,0,0-.084.479.281.281,0,0,0,.1.191c.287.176.516.119.627-.18.015-.042.023-.08.034-.123l.019-.065.176-.6q.258-.9.524-1.8a.536.536,0,0,1,.425-.379c.31-.08.623-.168.925-.253l.3-.088c.054-.011.1-.031.157-.046l.218-.073-.073.184-.023.057c-.065.176-.134.349-.2.521-.153.395-.314.8-.432,1.21a1.4,1.4,0,0,0,.348,1.482.575.575,0,0,0,.589.157,1.7,1.7,0,0,0,.723-.391c.119-.1.237-.214.359-.325l.229-.207.034.077a1.282,1.282,0,0,0,.619.6.656.656,0,0,0,.887-.084,4.228,4.228,0,0,0,.88-1.03,6.705,6.705,0,0,0,.776-2c.034-.142.1-.291.337-.264a.9.9,0,0,0,.264-.027c.187-.038.371-.077.562-.119l.363-.08-.054.146-.023.057a11.911,11.911,0,0,0-.971,2.539c-.077.345-.073.578.187.743l.122.08c.088.057.18.119.272.168a.409.409,0,0,0,.493-.061,4.84,4.84,0,0,0,.5-.548c.191-.234.375-.483.555-.72.092-.126.187-.253.279-.375a.555.555,0,0,1,.08-.084l.038-.038.118-.115-.011.165-.023.31c-.019.214-.034.421-.038.628a1.081,1.081,0,0,0,.8.992,1.251,1.251,0,0,0,.268.031c.084,0,.172-.034.183-.13a.342.342,0,0,0-.187-.3l-.069-.042a.655.655,0,0,1-.26-.383,2.423,2.423,0,0,1,.038-1.229,5.59,5.59,0,0,1,.742-1.654m-6.983-3.576a.649.649,0,0,0-.363-.107.863.863,0,0,0-.348.08.433.433,0,0,0-.233.413c0,.291.038.444.229.525a.439.439,0,0,0,.524-.13,3.562,3.562,0,0,0,.256-.276.362.362,0,0,0,.069-.283.326.326,0,0,0-.134-.222m-14.322.05a.625.625,0,0,0-.122.486.375.375,0,0,0,.214.371.385.385,0,0,0,.447-.057,2.088,2.088,0,0,0,.329-.337.4.4,0,0,0,.077-.249c-.011-.241-.172-.36-.493-.36a.582.582,0,0,0-.451.146m-6.039,6.257a.654.654,0,0,1-.126.126l-.054.046-.061.054-.034-.073a.3.3,0,0,1-.034-.234,8.677,8.677,0,0,1,1.576-3.217.96.96,0,0,0,.226-.394.4.4,0,0,0-.1-.31.421.421,0,0,0-.252-.077.547.547,0,0,0-.463.249l-.08.146c-.306.555-.627,1.126-.91,1.7a7.057,7.057,0,0,0-.673,1.987.649.649,0,0,0,.092.479c.294.26.516.421.711.421s.375-.138.681-.49l.023-.034.023-.034.184-.241c.233-.31.467-.617.7-.927a.909.909,0,0,1,.088-.1l.076-.084.13-.145-.023.2-.015.111-.015.111-.011.245c-.011.214-.023.433-.023.651a.8.8,0,0,0,.268.528,1.1,1.1,0,0,0,.7.349l.015,0c.191,0,.233-.05.237-.123a.305.305,0,0,0-.1-.237,1,1,0,0,1-.467-1.011,4.121,4.121,0,0,1,.547-1.865l.138-.245c.08-.142.161-.283.233-.429a.242.242,0,0,0,.019-.2.263.263,0,0,0-.176-.134l-.061-.019a.879.879,0,0,1-.107-.031.55.55,0,0,0-.176-.042c-.069,0-.111.038-.2.188l-.08.126a3.141,3.141,0,0,1-.413.582,19.506,19.506,0,0,0-2.008,2.4m-8.26-.425c-.164.161-.325.322-.486.482a.326.326,0,0,1-.126.088c-.092.031-.187.057-.279.084l-.187.057-.008-.077c0-.042-.008-.084-.015-.126a.805.805,0,0,1-.008-.3,4.971,4.971,0,0,1,.872-1.758,4.805,4.805,0,0,0,.325-.54l.115-.211c.038-.061.038-.115-.065-.2a.572.572,0,0,0-.367-.134.673.673,0,0,0-.581.383l-.1.2a9.722,9.722,0,0,1-.566,1.011,5.032,5.032,0,0,1-1.843,1.685.522.522,0,0,1-.164.042l-.069.008-.069.015,0-.073,0-.065a.434.434,0,0,1,0-.172c.046-.169.107-.352.18-.555a12.671,12.671,0,0,1,1.5-2.738,1.371,1.371,0,0,0,.164-.41c.019-.065.015-.142-.141-.188a.692.692,0,0,0-.176-.023.661.661,0,0,0-.6.387c-.057.13-.122.253-.184.375l-.019.034c-.119.222-.237.448-.356.67-.249.471-.5.954-.75,1.436a2.151,2.151,0,0,0-.21,1.478.413.413,0,0,0,.149.211.925.925,0,0,0,1.178.046c.2-.145.394-.28.6-.421l.291-.2.107-.073-.011.126c-.027.379.222.5.551.624a1.183,1.183,0,0,0,1.243-.237c.164-.134.317-.287.47-.433.088-.084.176-.172.264-.253a2.314,2.314,0,0,1,.207-.169l.107-.088.076-.061.019.1.023.092a.755.755,0,0,1,.019.111,2.605,2.605,0,0,0,.44,1.145.671.671,0,0,0,.631.287h.042a.182.182,0,0,0,.13-.073.19.19,0,0,0-.05-.134,1.5,1.5,0,0,1-.49-1.16,3.452,3.452,0,0,1,.971-2.271.332.332,0,0,0,.1-.211.682.682,0,0,0-.21-.226l-.012-.012-.076-.015-.088-.015a1,1,0,0,0-.268-.046c-.18,0-.294.1-.428.36l-.061.126a3.036,3.036,0,0,1-.424.693c-.417.448-.857.884-1.281,1.31m4.214.617c-.088.1-.2.226-.34.226a.254.254,0,0,1-.141-.05c-.119-.08-.111-.371-.069-.513.245-.885.509-1.788.807-2.757a.994.994,0,0,1,.279-.379l.027-.027c.107-.1.172-.176.134-.291a.374.374,0,0,0-.359-.3h-.027a.423.423,0,0,0-.424.283l-.084.222c-.21.532-.424,1.087-.6,1.643a12.6,12.6,0,0,0-.417,1.719c-.1.567.073.831.654,1.015a.49.49,0,0,0,.509-.065c.294-.249.562-.482.822-.716a2.933,2.933,0,0,0,.214-.222l.1-.111.031-.034.145.069-.011.172c0,.088-.008.176-.008.268s0,.165,0,.249c0,.111,0,.222,0,.329-.008.322.157.513.547.651a.494.494,0,0,0,.134.019.18.18,0,0,0,.107-.023c.023-.019.023-.115.023-.168v-.084l-.011-.038a.23.23,0,0,1-.023-.073c-.011-.073-.027-.153-.042-.23a2.1,2.1,0,0,1-.057-.555,5.385,5.385,0,0,1,.2-1.195c.1-.337.226-.666.348-.984.08-.207.161-.421.237-.632a.514.514,0,0,0,.034-.348.415.415,0,0,0-.73.069,9.443,9.443,0,0,1-1.954,2.8Zm-16.758-3.071v.015a4.669,4.669,0,0,1-.815,2.183l-.214.329c-.057.088-.119.176-.176.264a.55.55,0,0,1-.447.326l-.065,0a.42.42,0,0,1-.229-.176.676.676,0,0,1-.138-.463l.034-.18a5.459,5.459,0,0,1,.279-1.072,5.176,5.176,0,0,1,1.2-1.819.289.289,0,0,1,.191-.1c.115,0,.161.142.176.2.038.111.088.226.134.337l.069.153Zm7.041.337-.05.1a3.03,3.03,0,0,1-.455.735c-.409.444-.849.877-1.273,1.3-.161.157-.321.314-.478.475a.356.356,0,0,1-.13.088c-.088.031-.18.057-.272.084l-.176.054-.008-.077-.019-.123a.807.807,0,0,1-.011-.3,4.864,4.864,0,0,1,.872-1.762,5.988,5.988,0,0,0,.333-.54c.031-.057.065-.111.1-.169.053-.092.057-.176-.092-.276a.6.6,0,0,0-.325-.1.684.684,0,0,0-.589.4l-.061.123a10.786,10.786,0,0,1-.6,1.065,5.139,5.139,0,0,1-1.862,1.7.441.441,0,0,1-.153.034l-.061.008-.065.012-.008-.069-.008-.057a.38.38,0,0,1,0-.161c.05-.191.115-.383.184-.578a12.53,12.53,0,0,1,1.5-2.734,1.537,1.537,0,0,0,.164-.391.171.171,0,0,0-.008-.126.232.232,0,0,0-.149-.088.659.659,0,0,0-.769.391l-.107.222-.057.111-.027.054-.054-.023a1.347,1.347,0,0,0-.608-.122c-.111,0-.226.008-.333.015-.084,0-.172.011-.256.011-.478.015-.623-.073-.792-.505a.678.678,0,0,0-.509-.421l-.115-.031-.042-.008h-.034a1.484,1.484,0,0,0-.876.586c-.252.318-.516.659-.75,1.015a4.1,4.1,0,0,0-.677,1.666l-.015.107-.084-.065a.356.356,0,0,0-.447-.027c-.164.1-.329.211-.486.318-.2.13-.405.268-.616.391l-.023.015a6.054,6.054,0,0,1-1.033.517c-.264.1-.428.084-.516-.031-.073-.1-.076-.253-.011-.494a5.563,5.563,0,0,1,.868-1.811c.237-.333.5-.651.769-.957.073-.088.149-.176.222-.264a.286.286,0,0,1,.149-.073l.057-.019.077-.031.008.084.008.061a.434.434,0,0,1,0,.172.977.977,0,0,1-.073.157.743.743,0,0,0-.069.169.44.44,0,0,0,.011.287,1.275,1.275,0,0,0,.39.287c.1.05.184.031.218-.069s.065-.172.1-.257a6.2,6.2,0,0,0,.229-.682.546.546,0,0,0-.054-.414,1.125,1.125,0,0,0-.818-.379,1.063,1.063,0,0,0-.734.306,6.606,6.606,0,0,0-1.985,3.446.8.8,0,0,0,.359.908,1.271,1.271,0,0,0,1.449.012c.256-.161.509-.348.75-.525.126-.1.252-.191.382-.283.172-.123.348-.241.532-.368l.356-.245.023.218.011.111a1.259,1.259,0,0,0,.715,1.114,1.024,1.024,0,0,0,.44.13.612.612,0,0,0,.436-.207,7.24,7.24,0,0,0,.906-1.064,5.929,5.929,0,0,0,.772-1.968.308.308,0,0,1,.325-.272,4.452,4.452,0,0,0,.551-.092c.073-.015.149-.031.222-.042l.218-.042.287-.054-.073.172-.027.061-.164.306c-.172.322-.34.643-.512.965a3.236,3.236,0,0,0-.428,1.333c-.042.532.134.781.627.892a.666.666,0,0,0,.432,0c.264-.142.516-.31.761-.475.088-.061.176-.119.264-.176a.941.941,0,0,0,.1-.08l.057-.05.076-.058.023.092c.1.41.184.513.558.651a1.22,1.22,0,0,0,1.266-.237c.153-.13.3-.276.447-.413.084-.084.168-.165.256-.245.065-.061.134-.119.214-.184l.115-.1.08-.065.023.1.019.092a1.091,1.091,0,0,1,.027.126,2.511,2.511,0,0,0,.455,1.157.643.643,0,0,0,.6.268h.069a.2.2,0,0,0,.126-.088.186.186,0,0,0-.05-.111,1.568,1.568,0,0,1-.493-1.375,3.466,3.466,0,0,1,.983-2.068.277.277,0,0,0,.084-.257.234.234,0,0,0-.168-.168.5.5,0,0,0-.1-.023l-.1-.023a1.026,1.026,0,0,0-.283-.05c-.18,0-.287.092-.428.371m-20.376-.318a3.3,3.3,0,0,1-.405,1.543c-.245.444-.524.881-.8,1.3l-.034.054a.679.679,0,0,1-.249.191l-.027.015a.227.227,0,0,1-.1.027.255.255,0,0,1-.18-.084.835.835,0,0,1-.245-.728,4.621,4.621,0,0,1,.765-1.949c.153-.234.325-.459.493-.674l.111-.145a.868.868,0,0,1,.149-.142l.057-.05a.144.144,0,0,1,.249.054,1.166,1.166,0,0,0,.065.119,1.547,1.547,0,0,1,.1.2.732.732,0,0,1,.038.2l.011.077m3.014.356-.092.061-.073.046-.088-.054v-.05l.012-.061c.008-.046.019-.092.031-.138a1.067,1.067,0,0,0-.027-.766.336.336,0,0,0-.1-.142.536.536,0,0,0-.52.015c-.08.057-.084.077-.042.165l.092.2-.1,0-.115-.008c-.069,0-.134-.008-.2-.008h-.031c-.226,0-.47.011-.784.027a.5.5,0,0,1-.482-.253,2.088,2.088,0,0,1-.1-.207l-.046-.092-.019-.046-.042-.08a.773.773,0,0,0-.585-.264.626.626,0,0,0-.229.042,1.564,1.564,0,0,0-.707.571.678.678,0,0,1-.528.326.455.455,0,0,0-.088.027l-.042.015c-.1.031-.187.065-.279.1l-.543.184a1.419,1.419,0,0,1-.6.08l-.069-.008.015-.069.019-.084a1.177,1.177,0,0,1,.05-.165l.011-.035c.1-.241.2-.494.3-.735a4.323,4.323,0,0,1,.31-.605c.088-.134.184-.26.279-.383.076-.1.153-.191.222-.295a2.518,2.518,0,0,0,.3-.509,1.837,1.837,0,0,1,.218-.433.956.956,0,0,0,.092-.153.206.206,0,0,0-.008-.2.451.451,0,0,0-.405-.211.5.5,0,0,0-.428.222l-.053.088a7.7,7.7,0,0,0-.4.72c-.34.731-.673,1.478-.994,2.2l-.149.337c-.077.172-.161.283-.337.283a.656.656,0,0,1-.176-.027l-.168-.05a1.118,1.118,0,0,0-.149-.046l-.061-.012a.121.121,0,0,0-.092.038.166.166,0,0,0-.023.142.769.769,0,0,0,.2.414l.034.038a2.975,2.975,0,0,1,.249.287.291.291,0,0,1,.05.23,5.4,5.4,0,0,1-.145.525c-.069.218-.138.44-.21.659-.13.41-.264.831-.386,1.245-.111.387-.214.781-.314,1.16-.042.168-.088.341-.13.509v.226a.162.162,0,0,1,.015.061.254.254,0,0,0,.4.23.963.963,0,0,1,.13-.057l.057-.023a.35.35,0,0,0,.233-.326,7.936,7.936,0,0,1,.306-1.662c.13-.444.275-.892.417-1.325.115-.356.229-.716.34-1.072a.67.67,0,0,1,.447-.467c.092-.031.18-.065.268-.1.111-.042.222-.084.337-.123.134-.046.275-.084.413-.123l.191-.054.142-.042-.126.23-.1.188a3.133,3.133,0,0,0-.432,1.478c-.012.762.206,1.191.73,1.432l.077.038.057.031a.563.563,0,0,0,.512,0,1.34,1.34,0,0,0,.287-.191,4.594,4.594,0,0,0,1.159-1.628,8.8,8.8,0,0,0,.459-1.417.2.2,0,0,1,.207-.18h.031a3.314,3.314,0,0,0,.853-.146l.161-.038.187-.038-.027.1-.031.122c-.019.08-.038.157-.061.23l-.05.161c-.153.486-.314.992-.478,1.486a2.263,2.263,0,0,1-.2.41c-.05.088-.107.169-.164.253-.042.065-.084.126-.122.191a.437.437,0,0,0,.015.525,2.267,2.267,0,0,0,.184.222.2.2,0,0,0,.306,0,.83.83,0,0,0,.241-.463,4.117,4.117,0,0,1,.585-1.34,4.931,4.931,0,0,1,1.771-1.543,1.1,1.1,0,0,1,.543-.176.756.756,0,0,1,.31.069.205.205,0,0,0,.08.019.339.339,0,0,0,.275-.207.265.265,0,0,0-.073-.375.85.85,0,0,0-.933-.134,6.581,6.581,0,0,0-1.258.781m-33.8-.6-.011.042c-.019.088-.034.18-.054.268-.042.2-.08.406-.134.609a7.249,7.249,0,0,1-.734,1.907,2.014,2.014,0,0,1-.172.257l-.08.111a.222.222,0,0,1-.184.111.211.211,0,0,1-.168-.092,1.847,1.847,0,0,1-.47-1.233.377.377,0,0,1,.069-.191,5.707,5.707,0,0,1,1.6-1.746c.042-.027.084-.046.126-.069l.057-.027.027-.015Zm.555-.322a6.472,6.472,0,0,0-.581-.31.47.47,0,0,0-.516.046l-.149.1a3.447,3.447,0,0,0-.325.249c-.218.191-.428.39-.631.586-.08.077-.161.149-.237.222l0,.031-.084,0-.019-.023c-.015-.019-.023-.027,0-.126l.088-.341c.069-.291.142-.578.21-.869a.249.249,0,0,0-.023-.165.268.268,0,0,0-.222-.1.452.452,0,0,0-.138.023l-.092.023c-.145.031-.237.061-.26.2-.027.161-.057.329-.1.532a28.357,28.357,0,0,1-1.14,3.642l-.088.245c-.3.839-.623,1.746-1.01,2.86a.4.4,0,0,0-.011.268c.061.161.21.237.455.237l.118,0c.172-.015.187-.107.21-.26l.015-.069a13.68,13.68,0,0,1,1.377-3.795.361.361,0,0,1,.061-.073l.038-.035.053-.057.084.134a.84.84,0,0,0,.073.115l.13.188a2.664,2.664,0,0,0,.321.421.747.747,0,0,0,1.243-.046,6.129,6.129,0,0,0,.941-1.773l.076-.2a4.406,4.406,0,0,0,.3-1.52.373.373,0,0,0-.161-.364m16.724.609a4.183,4.183,0,0,1-.773,2.187c-.118.188-.245.375-.367.563l-.042.065a.549.549,0,0,1-.444.314l-.061,0c-.184-.023-.371-.4-.371-.6a3.086,3.086,0,0,1,.26-1.195,6.638,6.638,0,0,1,1.04-1.723,1.145,1.145,0,0,1,.264-.226l.122-.092.054-.046.038.061a1.315,1.315,0,0,0,.073.123c.057.1.122.2.172.306a.545.545,0,0,1,.031.191l0,.073m2.057,2.9a.6.6,0,0,1-.122.119l-.054.046-.034.031-.126-.077.008-.038.008-.061a.672.672,0,0,1,.023-.146,8.928,8.928,0,0,1,1.629-3.263.993.993,0,0,0,.184-.383.229.229,0,0,0-.115-.276.5.5,0,0,0-.241-.057.568.568,0,0,0-.474.237l-.382.6-.038,0-.18-.015c-.13-.011-.256-.023-.375-.027s-.26,0-.39.008c-.057,0-.111.008-.164.008-.551.019-.65-.065-.857-.544a.63.63,0,0,0-.176-.234.752.752,0,0,0-.994.035,7.118,7.118,0,0,0-.78.854,4.751,4.751,0,0,0-.906,1.65,5.234,5.234,0,0,0-.145.8c-.015.122-.034.241-.054.36l0,.031-.031.015c-.034.019-.076.035-.115.054a2.725,2.725,0,0,0-.279.142,2.024,2.024,0,0,0-.187.126,1.767,1.767,0,0,1-.306.188,1.1,1.1,0,0,1-.371.1.241.241,0,0,1-.145-.038c-.122-.084-.149-.356-.115-.517a8.56,8.56,0,0,1,1.22-2.945l.023-.031a1.125,1.125,0,0,0,.264-.666.263.263,0,0,0-.111-.184.551.551,0,0,0-.7.234c-.065.157-.138.31-.207.46s-.153.325-.218.486l-.149.368c-.237.594-.482,1.2-.688,1.815a1.45,1.45,0,0,0,.229,1.436.591.591,0,0,0,.8.237,3.537,3.537,0,0,0,.677-.417l.057-.038a2.588,2.588,0,0,0,.291-.26c.042-.042.088-.084.134-.126l.065-.061.034.084a1.242,1.242,0,0,0,.612.6.921.921,0,0,0,.428.138.705.705,0,0,0,.482-.23,5.2,5.2,0,0,0,.677-.739,6.178,6.178,0,0,0,.971-2.256c.046-.2.122-.306.356-.314a2.529,2.529,0,0,0,.474-.069c.065-.015.13-.027.2-.038s.157-.031.245-.05l.23-.046-.092.207-.069.149a11.967,11.967,0,0,0-.9,2.413c-.1.448-.023.582.275.773a3.306,3.306,0,0,0,.291.18.425.425,0,0,0,.543-.065,7.8,7.8,0,0,0,.593-.67c.2-.249.39-.5.593-.774l.26-.341.118-.161-.023.41c-.015.28-.027.528-.042.777a.89.89,0,0,0,.249.64,1.138,1.138,0,0,0,.75.391h.023a.225.225,0,0,0,.237-.134.185.185,0,0,0-.111-.241.982.982,0,0,1-.47-1.026,4.34,4.34,0,0,1,.658-2.056l.046-.08a4.09,4.09,0,0,0,.218-.4.231.231,0,0,0,.012-.2.249.249,0,0,0-.172-.13c-.054-.015-.111-.035-.164-.054a.512.512,0,0,0-.172-.042c-.073,0-.118.042-.206.188l-.073.119a2.974,2.974,0,0,1-.4.567,19.843,19.843,0,0,0-2.05,2.455m-4.7-6.226a.63.63,0,0,0-.069.551.347.347,0,0,0,.218.264.3.3,0,0,0,.119.023.859.859,0,0,0,.574-.306.51.51,0,0,0,.161-.368l-.008-.034c-.046-.23-.2-.329-.5-.333a.588.588,0,0,0-.5.2m-3.931,2.2a2.109,2.109,0,0,0-.688,1.823c.05.54.138,1.088.222,1.62.042.276.084.551.122.831a.393.393,0,0,1-.019.176l-.015.069-.012.069-.065-.023-.073-.015a.3.3,0,0,1-.176-.077c-.172-.2-.321-.406-.447-.582-.05-.073-.1-.149-.138-.222s-.1-.161-.149-.234a.362.362,0,0,0-.287-.126.373.373,0,0,0-.214.061c-.172.126-.191.257-.065.452.057.088.13.2.214.314a2.99,2.99,0,0,0,1.193.984.7.7,0,0,0,.8-.165.617.617,0,0,0,.164-.494c-.023-.237-.057-.479-.1-.712-.012-.092-.027-.184-.042-.276-.061-.44-.126-.881-.184-1.271l-.069-.459a2.062,2.062,0,0,1,.52-1.379.33.33,0,0,1,.256-.149c.069,0,.191.031.272.245a.766.766,0,0,1-.107.674.3.3,0,0,0,.126.44.5.5,0,0,0,.226.092c.053,0,.111-.031.2-.168a1.875,1.875,0,0,0,.157-.295,1.144,1.144,0,0,0-.2-1.2,1.1,1.1,0,0,0-.727-.26,1.037,1.037,0,0,0-.7.26m-3.113-.011a2.132,2.132,0,0,0-.688,1.842c.05.544.134,1.091.218,1.624.042.268.084.54.122.808a.7.7,0,0,1-.012.18l-.011.069-.008.073-.073-.023-.08-.019a.365.365,0,0,1-.2-.088,6.713,6.713,0,0,1-.428-.571c-.046-.069-.088-.142-.13-.211s-.092-.157-.145-.23a.38.38,0,0,0-.3-.134.372.372,0,0,0-.206.057c-.176.123-.2.26-.065.463.057.092.126.2.2.3a3,3,0,0,0,1.193.988.709.709,0,0,0,.807-.157.656.656,0,0,0,.164-.506c-.023-.237-.057-.479-.1-.708-.011-.088-.027-.176-.038-.26-.077-.528-.157-1.057-.222-1.5l-.034-.226a2.051,2.051,0,0,1,.516-1.39c.061-.073.214-.18.295-.142a.5.5,0,0,1,.237.257.723.723,0,0,1-.111.655.3.3,0,0,0,.122.429.447.447,0,0,0,.23.092c.05,0,.107-.019.2-.157a1.59,1.59,0,0,0,.157-.295,1.161,1.161,0,0,0-.168-1.191,1.2,1.2,0,0,0-.78-.276.959.959,0,0,0-.669.245m-2.662.528v0m.26.4a9.912,9.912,0,0,1-2.386,2.554c-.092.073-.184.153-.268.234s-.168.149-.252.222a2.036,2.036,0,0,1-.379.253.47.47,0,0,1-.2.054.235.235,0,0,1-.164-.065.558.558,0,0,1-.1-.41l0-.023.05-.123a3.736,3.736,0,0,1,.206-.448,6.343,6.343,0,0,1,2.26-2.244c.191-.115.394-.234.6-.345a.886.886,0,0,1,.348-.123h.012a.379.379,0,0,1,.294.138.355.355,0,0,1-.034.326m-.673-.942a5.687,5.687,0,0,0-2.834,2.049,4.21,4.21,0,0,0-.784,1.459.924.924,0,0,0,.142.9,2.759,2.759,0,0,0,.57.425.356.356,0,0,0,.264.027l.057-.027a5.652,5.652,0,0,0,.883-.486,6.481,6.481,0,0,0,.623-.544c.1-.092.191-.184.291-.272a1.6,1.6,0,0,1,.161-.126c.031-.027.065-.05.107-.08l.107-.084-.012.134-.008.126a.651.651,0,0,0-.008.142l.011.268a6.37,6.37,0,0,0,.061.716.421.421,0,0,0,.444.414.866.866,0,0,0,.272-.05c.057-.019.088-.038.1-.061s0-.057-.019-.111a2.055,2.055,0,0,1-.18-.6,3.38,3.38,0,0,1,.252-1.49,7.712,7.712,0,0,1,1.044-1.784c.065-.088.092-.157.077-.2s-.08-.069-.187-.088a.517.517,0,0,1-.379-.276.856.856,0,0,0-1.052-.383" transform="translate(-147.432 -154.135)" fill="#db0812"/>
    <path id="Path_15509" data-name="Path 15509" d="M169.32,204.951h-4.092l-.092,0a6.632,6.632,0,0,1-1.74-.191,1.67,1.67,0,0,1-1.2-1.229,8.39,8.39,0,0,1-.153-1.869s.008-20.544.008-21.1c-1.174.165-2.344.371-3.5.624-.524.111-1.048.237-1.564.371-.359.092-.39.042-.39.387V202.16c0,.142,0,.26,0,.306q.017.373.046.747c.011.123.008.241.019.36v.023c.023.2.046.4.076.6a9.877,9.877,0,0,0,.279,1.313,7.562,7.562,0,0,0,.956,2.233,4.992,4.992,0,0,0,.577.712l0,.015a6.419,6.419,0,0,0,3.885,1.823c.2.031.394.057.593.077l.019,0c.47.046.945.069,1.415.069h3.48c.344,0,.294-.035.386-.391.134-.525.256-1.049.371-1.578.249-1.16.451-2.324.616-3.5l0-.019h0Zm16.261-6.981a11.819,11.819,0,0,1-1.686,5.978,4.79,4.79,0,0,1-1.1,1.122,4.33,4.33,0,0,1-5.411-.448c-1.5-1.5-1.989-3.745-2.218-5.786a29.169,29.169,0,0,1-.008-6.406c.218-2.014.677-4.243,2.092-5.778a4.332,4.332,0,0,1,5.358-.712c1.732,1.091,2.4,3.3,2.731,5.223a27.8,27.8,0,0,1,.245,6.809m4.539,5.6a22.56,22.56,0,0,0,1.247-8.049c0-4.182-.742-9-3.843-12.051a9.438,9.438,0,0,0-5.323-2.585,11.764,11.764,0,0,0-6.249.7c-3.989,1.716-5.79,5.878-6.383,9.968a29.316,29.316,0,0,0-.168,6.652,18.7,18.7,0,0,0,1.537,6.3,10.121,10.121,0,0,0,3.947,4.5,10.923,10.923,0,0,0,6.019,1.367,10.037,10.037,0,0,0,5.7-1.907,10.817,10.817,0,0,0,3.514-4.89m21.531,6.119h1.805V193.241a16.782,16.782,0,0,0-1.48-8,7.632,7.632,0,0,0-3.641-3.439,13.06,13.06,0,0,0-5.048-.938,31.34,31.34,0,0,0-6.065.582,20.028,20.028,0,0,0-2.807.609,1.247,1.247,0,0,0-.96,1v26.629h5.457V186.027c0-.264.13-.184.428-.249a15.033,15.033,0,0,1,3.228-.391c1.614,0,3.423.387,4.318,1.88a10.729,10.729,0,0,1,1.105,5.158c.1,3.764.008,7.54.008,11.3v5.932c0,.069.3.027.359.027h3.293m18.536-13.307v9.133a10.814,10.814,0,0,1-5.981.157,4.309,4.309,0,0,1-2.669-3.316,27.405,27.405,0,0,1-.44-6.6v-9.738a4.707,4.707,0,0,1,.987-.226,16.106,16.106,0,0,1,1.71-.238c1.656-.134,3.671-.023,4.876,1.3,1.094,1.2,1.339,3.109,1.453,4.664.134,1.765.065,3.094.065,4.859m5.457-1.75c0-1.1.019-1.75-.019-2.853-.142-3.967-1.35-8.321-5.327-9.956a14.3,14.3,0,0,0-5.733-.842,39.759,39.759,0,0,0-6.685.881c-.719.142-1.862.245-2.18,1.045a2.124,2.124,0,0,0-.061.762v13.617a21.566,21.566,0,0,0,1.063,7.965,8.041,8.041,0,0,0,3.84,4.327,12.759,12.759,0,0,0,5.714,1.065,28.783,28.783,0,0,0,3.931-.318v3.948a10.051,10.051,0,0,1-.2,2.772,2.254,2.254,0,0,1-1.346,1.558,9.88,9.88,0,0,1-2.62.693c.207.835.413,1.666.623,2.5.13.525.26,1.049.39,1.578l.1.41c.042.172.44.061.574.057a10.271,10.271,0,0,0,5.243-1.386,6.066,6.066,0,0,0,2.448-3.96,12.579,12.579,0,0,0,.241-2.569V194.631Zm18.043,4.522c-.233,1.976-.7,4.22-2.18,5.66a4.334,4.334,0,0,1-5.4.429c-1.648-1.225-2.321-3.393-2.62-5.35a29.377,29.377,0,0,1-.222-6.3,12.781,12.781,0,0,1,1.614-6.115,5.172,5.172,0,0,1,1.228-1.336,4.323,4.323,0,0,1,5.4.433c1.48,1.447,1.947,3.726,2.184,5.71a29.447,29.447,0,0,1,0,6.866m5.886-3.508c0-4.193-.738-9.037-3.847-12.108a10.844,10.844,0,0,0-11.568-1.884c-3.954,1.7-5.756,5.824-6.364,9.88a29.555,29.555,0,0,0-.2,6.678,19.066,19.066,0,0,0,1.5,6.345,10.188,10.188,0,0,0,3.9,4.568,10.764,10.764,0,0,0,5.989,1.44,10.052,10.052,0,0,0,5.737-1.846,10.8,10.8,0,0,0,3.568-4.867,22.641,22.641,0,0,0,1.293-8.206" transform="translate(-121.574 -180.536)" fill="#db0812"/>
  </g>
</svg>
