<svg id="Group_4385" data-name="Group 4385" xmlns="http://www.w3.org/2000/svg" xmlns:xlink="http://www.w3.org/1999/xlink" width="90.445" height="65.513" viewBox="0 0 90.445 65.513">
  <defs>
    <clipPath id="clip-path">
      <rect id="Rectangle_2268" data-name="Rectangle 2268" width="90.446" height="65.513" fill="none"/>
    </clipPath>
  </defs>
  <g id="Group_4384" data-name="Group 4384" clip-path="url(#clip-path)">
    <path id="Path_15530" data-name="Path 15530" d="M77.636,222.791l-1.7.152v4.332l-3.32.3v-12.79l6.448-.575c2.858-.254,4.481,1.48,4.478,3.856a4.329,4.329,0,0,1-2.567,4.067l2.623,4.464-3.8.337Zm.927-5.759-2.627.235v2.874l2.627-.231a1.651,1.651,0,0,0,1.6-1.583,1.335,1.335,0,0,0-1.6-1.3" transform="translate(-44.338 -200.565)" fill="#c8183a"/>
    <path id="Path_15531" data-name="Path 15531" d="M83.177,213.811c3.94-.35,6.873,2.111,6.873,6a7.258,7.258,0,0,1-6.877,7.226c-3.937.353-6.89-2.108-6.89-6a7.275,7.275,0,0,1,6.893-7.229m0,2.914a3.851,3.851,0,0,0-3.514,4.014,3.131,3.131,0,0,0,3.514,3.387,3.857,3.857,0,0,0,3.494-4.011,3.12,3.12,0,0,0-3.494-3.39" transform="translate(-35.905 -201.497)" fill="#c8183a"/>
    <path id="Path_15532" data-name="Path 15532" d="M80.967,213.828l3.32-.3v9.915l5.171-.463v2.878l-8.494.757Z" transform="translate(-25.144 -202.067)" fill="#c8183a"/>
    <path id="Path_15533" data-name="Path 15533" d="M138.892,240.095l.007-30.034-74.844,6.671-.007,32.938,46.335-4.13-.007,30.034,44.114-3.932L154.5,238.7Zm-71.914-20.72,68.994-6.146-.007,27.126L66.975,246.5Zm72.69,43.514-4.171.373-3.752-9.582-4.118.367,0,9.915-3.32.294v-9.912l-3.61.32,0-2.875,10.52-.938,3.2-.284,3.161,8.941L140.77,250l3.765-.334Z" transform="translate(-64.045 -210.061)" fill="#c8183a"/>
  </g>
</svg>
